<?xml version="1.0" encoding="utf-8"?>
<!-- Generator: Adobe Illustrator 19.0.0, SVG Export Plug-In . SVG Version: 6.00 Build 0)  -->
<svg version="1.1" id="Layer_1" xmlns="http://www.w3.org/2000/svg" xmlns:xlink="http://www.w3.org/1999/xlink" x="0px" y="0px"
	 viewBox="-276 367.2 58 58.8" style="enable-background:new -276 367.2 58 58.8;" xml:space="preserve">
<style type="text/css">
	.st0{fill:#FFFFFF;}
</style>
<g id="XMLID_437_">
	<g>
		<g id="XMLID_44_">
			<path id="XMLID_49_" class="st0" d="M-243.9,404.2c6.6,0,12-5.4,12-12s-5.4-12-12-12c-6.6,0-12,5.4-12,12
				S-250.5,404.2-243.9,404.2z"/>
			<g id="XMLID_45_">
				<path id="XMLID_48_" class="st0" d="M-254.1,406.6c-4.6,0-8.4,3.7-8.4,8.4v9.4c0,0.9,0.7,1.6,1.6,1.6h33.9
					c0.9,0,1.6-0.7,1.6-1.6v-9.2c0.1-0.2,0.3-0.5,0.4-0.8l6.6-17.4c0.2-0.6,0.3-1.2,0.3-1.8v-19.5c0-2.8-2.3-5.2-5.2-5.2
					s-5.2,2.3-5.2,5.2v18.6l-4.5,12.3H-254.1z"/>
				<path id="XMLID_47_" class="st0" d="M-274.4,378.7h3.8c0.8,0,1.5-0.6,1.6-1.4c0.2-1.4,0.7-2.5,1.3-3.1c0.6-0.6,1.5-0.9,2.6-0.9
					c1.2,0,2.1,0.3,2.8,1c0.7,0.7,1,1.5,1,2.5c0,0.5-0.1,1-0.4,1.4c-0.1,0.2-0.6,0.9-2.4,2.5c-1.7,1.4-2.8,2.8-3.5,4.1
					c-0.7,1.4-1,3.3-1,6l0,0c0,0.9,0.7,1.6,1.6,1.6h3.4c0.9,0,1.6-0.7,1.6-1.6l0,0c0-2.1,0.3-2.9,0.4-3.3c0.1-0.3,0.6-1,2.5-2.6
					c1.8-1.5,3-2.8,3.7-4.1c0.7-1.3,1.1-2.8,1.1-4.3c0-2.7-1-5-3.1-6.8c-2-1.6-4.6-2.5-7.7-2.5c-3,0-5.5,0.9-7.5,2.6
					c-2,1.8-3.1,4.2-3.4,7.1l0,0C-276.1,377.9-275.3,378.7-274.4,378.7z"/>
				<path id="XMLID_46_" class="st0" d="M-263.6,401.6c0.9,0,1.6-0.7,1.6-1.6v-3.4c0-0.9-0.7-1.6-1.6-1.6h-3.4
					c-0.9,0-1.6,0.7-1.6,1.6v3.4c0,0.9,0.7,1.6,1.6,1.6H-263.6z"/>
			</g>
		</g>
	</g>
</g>
</svg>
