<?xml version="1.0" encoding="utf-8"?>
<!-- Generator: Adobe Illustrator 19.2.1, SVG Export Plug-In . SVG Version: 6.00 Build 0)  -->
<svg version="1.1" id="Layer_1" xmlns="http://www.w3.org/2000/svg" xmlns:xlink="http://www.w3.org/1999/xlink" x="0px" y="0px"
	 viewBox="0 0 58 58.8" style="enable-background:new 0 0 58 58.8;" xml:space="preserve">
<style type="text/css">
	.st0{fill:#b1b1b1;}
</style>
<g id="XMLID_437_">
	<g>
		<g id="XMLID_44_">
			<path id="XMLID_49_" class="st0" d="M32.1,37c6.6,0,12-5.4,12-12s-5.4-12-12-12s-12,5.4-12,12S25.5,37,32.1,37z"/>
			<g id="XMLID_45_">
				<path id="XMLID_48_" class="st0" d="M21.9,39.4c-4.6,0-8.4,3.7-8.4,8.4v9.4c0,0.9,0.7,1.6,1.6,1.6h33.9c0.9,0,1.6-0.7,1.6-1.6
					V48c0.1-0.2,0.3-0.5,0.4-0.8l6.6-17.4c0.2-0.6,0.3-1.2,0.3-1.8V8.5c0-2.8-2.3-5.2-5.2-5.2s-5.2,2.3-5.2,5.2v18.6L43,39.4H21.9z"
					/>
				<path id="XMLID_47_" class="st0" d="M1.6,11.5h3.8c0.8,0,1.5-0.6,1.6-1.4C7.2,8.7,7.7,7.6,8.3,7c0.6-0.6,1.5-0.9,2.6-0.9
					c1.2,0,2.1,0.3,2.8,1c0.7,0.7,1,1.5,1,2.5c0,0.5-0.1,1-0.4,1.4c-0.1,0.2-0.6,0.9-2.4,2.5c-1.7,1.4-2.8,2.8-3.5,4.1
					c-0.7,1.4-1,3.3-1,6l0,0c0,0.9,0.7,1.6,1.6,1.6h3.4c0.9,0,1.6-0.7,1.6-1.6l0,0c0-2.1,0.3-2.9,0.4-3.3c0.1-0.3,0.6-1,2.5-2.6
					c1.8-1.5,3-2.8,3.7-4.1c0.7-1.3,1.1-2.8,1.1-4.3c0-2.7-1-5-3.1-6.8C16.6,0.9,14,0,10.9,0c-3,0-5.5,0.9-7.5,2.6
					C1.4,4.4,0.3,6.8,0,9.7l0,0C-0.1,10.7,0.7,11.5,1.6,11.5z"/>
				<path id="XMLID_46_" class="st0" d="M12.4,34.4c0.9,0,1.6-0.7,1.6-1.6v-3.4c0-0.9-0.7-1.6-1.6-1.6H9c-0.9,0-1.6,0.7-1.6,1.6v3.4
					c0,0.9,0.7,1.6,1.6,1.6H12.4z"/>
			</g>
		</g>
	</g>
</g>
</svg>
