<?xml version="1.0" encoding="utf-8"?>
<!-- Generator: Adobe Illustrator 19.0.0, SVG Export Plug-In . SVG Version: 6.00 Build 0)  -->
<svg version="1.1" id="Layer_1" xmlns="http://www.w3.org/2000/svg" xmlns:xlink="http://www.w3.org/1999/xlink" x="0px" y="0px"
	 viewBox="0 0 187.8 44.1" style="enable-background:new 0 0 187.8 44.1;" xml:space="preserve">
<style type="text/css">
	.st0{fill:#111F44;}
</style>
<g id="XMLID_53_">
	<path id="XMLID_54_" class="st0" d="M3.1,7h5.5V34H3.1V7z"/>
	<path id="XMLID_56_" class="st0" d="M30.9,34h-5.5V22.2c0-2.3-1.5-3.9-3.8-3.9c-2.3,0-3.9,1.6-3.9,3.9V34h-5.5V13.7h5.1v1.8
		c1.4-1.4,3.5-2.3,5.9-2.3c4.7,0,7.6,3.2,7.6,8.2V34z"/>
	<path id="XMLID_58_" class="st0" d="M35.1,27.2c1.8,1.8,3.7,2.7,5.7,2.7c1.5,0,2.6-0.6,2.6-1.7c0-0.9-0.6-1.2-2.1-1.8l-2.2-0.9
		c-3.7-1.5-5.5-3.2-5.5-6.2c0-3.8,3-6.1,7.5-6.1c3,0,5.5,1,7.3,3l-2.8,3.4c-1.4-1.3-2.9-1.9-4.6-1.9c-1.4,0-2.2,0.5-2.2,1.4
		c0,0.8,0.5,1.1,2.1,1.8l2,0.8c3.9,1.6,5.7,3.2,5.7,6.2c0,2-0.7,3.6-2.3,4.8c-1.5,1.1-3.4,1.7-5.7,1.7c-3.6,0-6.6-1.5-8.4-3.9
		L35.1,27.2z"/>
	<path id="XMLID_60_" class="st0" d="M63.8,34c-1.3,0.3-2.6,0.5-3.8,0.5c-5.1,0-8.1-2.5-8.1-7.6v-8.5h-3.2v-4.7h3.2V8.6h5.5v5.1h5.7
		v4.7h-5.7v8c0,2.3,1.1,3.2,3.8,3.2c0.3,0,1.2,0,2.6-0.2V34z"/>
	<path id="XMLID_62_" class="st0" d="M82.8,34h-5.1v-2c-1.5,1.5-3.6,2.5-6.2,2.5c-4.3,0-7-2.5-7-6.1c0-3.6,3-5.9,7.7-5.9h5.1v-0.9
		c0-2.3-1.3-3.6-3.8-3.6c-2.1,0-3.6,0.9-5.4,2.8l-2.9-3.4c2.3-2.8,5.3-4.2,8.9-4.2c5.3,0,8.7,3.1,8.7,8.7V34z M77.2,26.2h-4.3
		c-1.8,0-2.8,0.7-2.8,2c0,1.4,1.1,2.2,2.9,2.2c2.4,0,4.3-1.7,4.3-4V26.2z"/>
	<path id="XMLID_65_" class="st0" d="M88.8,2.9c2,0,3.6,1.5,3.6,3.4c0,1.9-1.6,3.4-3.6,3.4s-3.5-1.5-3.5-3.4
		C85.3,4.4,86.8,2.9,88.8,2.9z M86.1,13.7h5.5V34h-5.5V13.7z"/>
	<path id="XMLID_68_" class="st0" d="M113.7,34h-5.5V22.2c0-2.3-1.5-3.9-3.8-3.9c-2.3,0-3.9,1.6-3.9,3.9V34H95V13.7h5.1v1.8
		c1.4-1.4,3.5-2.3,5.9-2.3c4.7,0,7.6,3.2,7.6,8.2V34z"/>
	<path id="XMLID_70_" class="st0" d="M117.9,27.2c1.8,1.8,3.7,2.7,5.7,2.7c1.5,0,2.6-0.6,2.6-1.7c0-0.9-0.6-1.2-2.1-1.8l-2.2-0.9
		c-3.7-1.5-5.5-3.2-5.5-6.2c0-3.8,3-6.1,7.5-6.1c3,0,5.5,1,7.3,3l-2.8,3.4c-1.4-1.3-2.9-1.9-4.6-1.9c-1.4,0-2.2,0.5-2.2,1.4
		c0,0.8,0.5,1.1,2.1,1.8l2,0.8c3.9,1.6,5.7,3.2,5.7,6.2c0,2-0.7,3.6-2.3,4.8c-1.5,1.1-3.4,1.7-5.7,1.7c-3.6,0-6.6-1.5-8.4-3.9
		L117.9,27.2z"/>
	<path id="XMLID_72_" class="st0" d="M133.4,13.7h5.5v11.8c0,2.3,1.6,3.9,3.9,3.9c2.1,0,3.8-1.6,3.8-3.9V13.7h5.5v11.4
		c0,5.7-4,9.4-9.3,9.4c-5.4,0-9.4-3.8-9.4-9.4V13.7z"/>
	<path id="XMLID_74_" class="st0" d="M167.8,18.6h-1.5c-3.3,0-5.5,1.8-5.5,5.3V34h-5.5V13.7h5.1v2.4c1.4-1.7,3.3-2.7,5.6-2.7
		c0.7,0,1.3,0.1,1.8,0.2V18.6z"/>
	<path id="XMLID_76_" class="st0" d="M173.2,25.7c0.7,2.6,2.7,4,5.7,4c2,0,3.9-0.7,5.7-2l2.3,3.8c-2.4,2-5.1,3-8.1,3
		c-6.3,0.1-11.2-4.8-11.1-10.6c-0.1-5.9,4.8-10.7,10.6-10.6c5.6,0,9.6,4.1,9.6,9.4c0,1-0.1,2-0.4,3H173.2z M182.4,21.9
		c0-2.5-2-4.1-4.4-4.1c-2.3,0-4.2,1.6-4.8,4.1H182.4z"/>
</g>
</svg>
