<?xml version="1.0" encoding="utf-8"?>
<!-- Generator: Adobe Illustrator 19.2.1, SVG Export Plug-In . SVG Version: 6.00 Build 0)  -->
<svg version="1.1" id="Layer_1" xmlns="http://www.w3.org/2000/svg" xmlns:xlink="http://www.w3.org/1999/xlink" x="0px" y="0px"
	 viewBox="0 0 393.7 281.7" style="enable-background:new 0 0 393.7 281.7;" xml:space="preserve">
<style type="text/css">
	.st0{fill:#1C2343;}
	.st1{fill:#E9E8E8;}
	.st2{fill:#F2F2F2;}
	.st3{fill:#FAFAFB;}
	.st4{fill:#FDFDFE;}
	.st5{fill:#FFFFFF;}
	.st6{fill:#E94655;}
	.st7{opacity:0.7;}
	.st8{opacity:0.5;}
	.st9{opacity:0.3;}
	.st10{opacity:0.1;}
	.st11{opacity:0.2;}
	.st12{fill:#12100B;}
	.st13{opacity:0.4;}
	.st14{fill:#433C6D;}
	.st15{fill:#635990;}
	.st16{fill:#233237;}
	.st17{fill:#3A5965;}
	.st18{fill:#FAC5A5;}
	.st19{opacity:0.6;}
</style>
<g id="XMLID_1860_">
	<rect id="XMLID_2453_" class="st0" width="393.7" height="281.7"/>
	<g id="XMLID_1861_">
		<g id="XMLID_2376_">
			<g id="XMLID_2450_">
				<g id="XMLID_2451_">
					
						<ellipse id="XMLID_2452_" transform="matrix(0.9491 -0.3151 0.3151 0.9491 -21.8423 103.7027)" class="st1" cx="309.8" cy="119.4" rx="3.2" ry="0.1"/>
				</g>
			</g>
			<g id="XMLID_2377_">
				<g id="XMLID_2448_">
					<polygon id="XMLID_2449_" class="st1" points="236.9,227.3 236.9,252.1 240.2,252.1 244.6,227 					"/>
				</g>
				<g id="XMLID_2446_">
					<polygon id="XMLID_2447_" class="st1" points="267.1,227.3 267.1,252.1 270.4,252.1 274.8,227 					"/>
				</g>
				<g id="XMLID_2444_">
					<polygon id="XMLID_2445_" class="st1" points="304.8,227.3 304.8,252.1 301.5,252.1 297,227 					"/>
				</g>
				<g id="XMLID_2442_">
					<polygon id="XMLID_2443_" class="st1" points="326,227.3 326,252.1 322.7,252.1 318.2,227 					"/>
				</g>
				<g id="XMLID_2440_">
					<path id="XMLID_2441_" class="st1" d="M257.6,172.7c0,0-13.1-3.8-16.7,1.3c-3.6,5-4,53.7-4,53.7s23.4,0.4,23.9,0
						C261.1,227.2,257.6,172.7,257.6,172.7z"/>
				</g>
				<g id="XMLID_2438_">
					<path id="XMLID_2439_" class="st2" d="M325.4,218.8l0.6-84.3c0.1-10.9-8.7-19.7-19.6-19.7l-30.9,0c-10.8,0-19.5,8.9-19.3,19.7
						l2,84.2H325.4z"/>
				</g>
				<g id="XMLID_2436_">
					<path id="XMLID_2437_" class="st2" d="M325.4,218.8c0,0-11.9-17.6-25.9-18.2c-14-0.6-44.2,0-44.2,0s-13.4,0.5-14.3,17.1v9.8
						h84.5V218.8z"/>
				</g>
				<g id="XMLID_2433_">
					<g id="XMLID_2434_">
						<path id="XMLID_2435_" class="st1" d="M297.9,201.1c-11.6-0.1-23.1-0.1-34.7-0.2c-3.6,0-7.7-0.5-11.3,0.5
							c-10.3,2.9-11.9,16.2-11,25.3c0,0.4-0.5,0.4-0.6,0c-0.7-7.6,0.1-18.4,6.7-23.5c3.8-2.9,8.2-3,12.7-3
							c12.7,0.1,25.5,0.1,38.2,0.2C298.3,200.5,298.3,201.1,297.9,201.1L297.9,201.1z"/>
					</g>
				</g>
				<g id="XMLID_2430_">
					<g id="XMLID_2431_">
						<path id="XMLID_2432_" class="st1" d="M265.6,117.5c0,0,0.3-0.1,0.9-0.3c0.3-0.1,0.7-0.1,1.1-0.2c0.4,0,1-0.1,1.5-0.2
							c2.3-0.2,5.6-0.3,9.8-0.3c2.1,0,4.3,0,6.8,0c2.4,0.1,5,0,7.7,0.4c1.4,0.2,2.7,0.4,4.1,0.7c1.4,0.3,2.8,0.8,4.1,1.5
							c1.3,0.7,2.5,1.7,3.6,2.7c1.1,1.1,2.1,2.3,2.8,3.7c0.4,0.7,0.7,1.4,0.9,2.2c0.2,0.8,0.3,1.6,0.4,2.3c0.2,1.5,0.3,3,0.5,4.5
							c0.3,3,0.5,5.8,0.7,8.5c0.3,5.4,0.5,10.4,0.6,14.5c0.1,4.1,0.1,7.5,0.2,9.8c0,1.1,0,2,0,2.7c0,0.3,0,0.5,0,0.7
							c0,0.2,0,0.2,0,0.2c0,0,0-0.1,0-0.2c0-0.2,0-0.4,0-0.7c0-0.6,0-1.5-0.1-2.7c-0.1-2.3-0.1-5.7-0.3-9.8c-0.1-4.1-0.3-9-0.7-14.5
							c-0.2-2.7-0.4-5.6-0.7-8.5c-0.1-1.5-0.3-3-0.5-4.5c-0.1-0.8-0.1-1.5-0.3-2.3c-0.2-0.7-0.5-1.5-0.8-2.2
							c-0.7-1.4-1.7-2.6-2.8-3.7c-1.1-1.1-2.3-2-3.6-2.7c-1.3-0.7-2.7-1.1-4.1-1.5c-1.4-0.3-2.8-0.6-4.1-0.7
							c-2.7-0.4-5.3-0.3-7.7-0.4c-2.4,0-4.7-0.1-6.7-0.1c-4.1,0-7.5,0.1-9.8,0.2c-0.6,0-1.1,0.1-1.5,0.1c-0.4,0.1-0.8,0.1-1.1,0.2
							c-0.3,0.1-0.5,0.1-0.7,0.2C265.7,117.5,265.7,117.5,265.6,117.5z"/>
					</g>
				</g>
				<g id="XMLID_2427_">
					<g id="XMLID_2428_">
						
							<ellipse id="XMLID_2429_" transform="matrix(0.9434 -0.3317 0.3317 0.9434 -28.8941 111.6658)" class="st1" cx="312.7" cy="140.5" rx="2.5" ry="0.1"/>
					</g>
				</g>
				<g id="XMLID_2424_">
					<g id="XMLID_2425_">
						
							<ellipse id="XMLID_2426_" transform="matrix(4.455550e-002 -0.999 0.999 4.455550e-002 153.2384 449.0937)" class="st1" cx="311.4" cy="144.4" rx="0.1" ry="1.1"/>
					</g>
				</g>
				<g id="XMLID_2411_">
					<g id="XMLID_2421_">
						<g id="XMLID_2422_">
							<path id="XMLID_2423_" class="st1" d="M292.7,142.9c0,0,0.1-0.1,0.3-0.1c0.2,0,0.6,0.1,0.9,0.3c0.3,0.2,0.6,0.8,0.4,1.3
								c-0.1,0.5-0.6,1-1.3,1.1c-0.7,0-1.2-0.4-1.4-0.9c-0.2-0.5-0.1-1.1,0.1-1.4c0.2-0.3,0.5-0.5,0.7-0.6c0.2-0.1,0.3-0.1,0.3-0.1
								c0,0-0.5,0.1-0.9,0.8c-0.2,0.3-0.2,0.8,0,1.2c0.2,0.4,0.7,0.7,1.2,0.7c0.5,0,0.9-0.4,1.1-0.9c0.1-0.4-0.1-0.9-0.3-1.1
								c-0.3-0.2-0.5-0.3-0.7-0.4C292.8,142.9,292.7,142.9,292.7,142.9z"/>
						</g>
					</g>
					<g id="XMLID_2418_">
						<g id="XMLID_2419_">
							<path id="XMLID_2420_" class="st1" d="M293.8,135.1c0,0-0.4,0.3-0.9,1c-0.5,0.6-1.1,1.6-1.3,2.8c-0.2,1.2,0,2.3,0.2,3
								c0.3,0.8,0.5,1.2,0.5,1.2c0,0-0.4-0.4-0.7-1.1c-0.3-0.8-0.6-1.9-0.3-3.2c0.2-1.3,0.9-2.3,1.4-2.9
								C293.3,135.3,293.8,135,293.8,135.1z"/>
						</g>
					</g>
					<g id="XMLID_2415_">
						<g id="XMLID_2416_">
							<path id="XMLID_2417_" class="st1" d="M293,153.8c0,0-0.4-0.4-0.9-1.2c-0.4-0.8-0.9-2-1-3.3c-0.1-0.7-0.1-1.3,0-1.9
								c0.1-0.6,0.3-1.1,0.6-1.5c0.3-0.4,0.6-0.5,0.9-0.6c0.3-0.1,0.4,0,0.4,0c0,0-0.6,0.1-1.1,0.8c-0.5,0.7-0.6,2-0.5,3.3
								c0.1,1.3,0.6,2.5,0.9,3.3C292.7,153.3,293.1,153.8,293,153.8z"/>
						</g>
					</g>
					<g id="XMLID_2412_">
						<g id="XMLID_2413_">
							<path id="XMLID_2414_" class="st1" d="M288.2,143.9c-0.1-0.1,0.5-0.6,1.5-0.6c0.9,0,1.5,0.5,1.5,0.6c0,0.1-0.6-0.3-1.5-0.3
								C288.9,143.6,288.3,144,288.2,143.9z"/>
						</g>
					</g>
				</g>
				<g id="XMLID_2398_">
					<g id="XMLID_2408_">
						<g id="XMLID_2409_">
							<path id="XMLID_2410_" class="st1" d="M273,142.9c0,0,0.1-0.1,0.3-0.1c0.2,0,0.6,0.1,0.9,0.3c0.3,0.2,0.6,0.8,0.4,1.3
								c-0.1,0.5-0.6,1-1.3,1.1c-0.7,0-1.2-0.4-1.4-0.9c-0.2-0.5-0.1-1.1,0.1-1.4c0.2-0.3,0.5-0.5,0.7-0.6c0.2-0.1,0.3-0.1,0.3-0.1
								c0,0-0.5,0.1-0.9,0.8c-0.2,0.3-0.2,0.8,0,1.2c0.2,0.4,0.7,0.7,1.2,0.7c0.5,0,0.9-0.4,1.1-0.9c0.1-0.4-0.1-0.9-0.3-1.1
								c-0.3-0.2-0.5-0.3-0.7-0.4C273.1,142.9,273,142.9,273,142.9z"/>
						</g>
					</g>
					<g id="XMLID_2405_">
						<g id="XMLID_2406_">
							<path id="XMLID_2407_" class="st1" d="M274.1,135.1c0,0-0.4,0.3-0.9,1c-0.5,0.6-1.1,1.6-1.3,2.8c-0.2,1.2,0,2.3,0.2,3
								c0.3,0.8,0.5,1.2,0.5,1.2c0,0-0.4-0.4-0.7-1.1c-0.3-0.8-0.6-1.9-0.3-3.2c0.2-1.3,0.9-2.3,1.4-2.9
								C273.6,135.3,274.1,135,274.1,135.1z"/>
						</g>
					</g>
					<g id="XMLID_2402_">
						<g id="XMLID_2403_">
							<path id="XMLID_2404_" class="st1" d="M273.3,153.8c0,0-0.4-0.4-0.9-1.2c-0.4-0.8-0.9-2-1-3.3c-0.1-0.7-0.1-1.3,0-1.9
								c0.1-0.6,0.3-1.1,0.6-1.5c0.3-0.4,0.6-0.5,0.9-0.6c0.3-0.1,0.4,0,0.4,0c0,0-0.6,0.1-1.1,0.8c-0.5,0.7-0.6,2-0.5,3.3
								c0.1,1.3,0.6,2.5,0.9,3.3C273.1,153.3,273.4,153.8,273.3,153.8z"/>
						</g>
					</g>
					<g id="XMLID_2399_">
						<g id="XMLID_2400_">
							<path id="XMLID_2401_" class="st1" d="M268.6,143.9c-0.1-0.1,0.5-0.6,1.5-0.6c0.9,0,1.5,0.5,1.5,0.6c0,0.1-0.6-0.3-1.5-0.3
								C269.2,143.6,268.6,144,268.6,143.9z"/>
						</g>
					</g>
				</g>
				<g id="XMLID_2393_">
					<g id="XMLID_2396_">
						<path id="XMLID_2397_" class="st3" d="M325,172.2c0,0-20.1-5.2-23.7,1.6c-3.6,6.8-4.3,53.9-4.3,53.9s29,1.1,29-0.2
							C326.2,226.3,325,172.2,325,172.2z"/>
					</g>
					<g id="XMLID_2394_">
						<path id="XMLID_2395_" class="st2" d="M326.1,172c0,0-13.3-3.4-16.9,1.6c-3.6,5-4.6,54.3-4.6,54.3s21.2,0.6,21.6,0.2
							C326.7,227.7,326.1,172,326.1,172z"/>
					</g>
				</g>
				<g id="XMLID_2390_">
					<g id="XMLID_2391_">
						<path id="XMLID_2392_" class="st1" d="M318.3,196.5c0,0,0.1-0.1,0.2-0.1c0.2,0,0.5,0.1,0.6,0.4c0.1,0.3,0.2,0.7,0.1,1.1
							c0,0.2-0.1,0.5-0.3,0.6c-0.2,0.2-0.5,0.3-0.8,0.2c-0.4-0.1-0.7-0.4-0.8-0.7c-0.1-0.3-0.1-0.6,0-0.9c0.2-0.5,0.6-0.8,0.8-0.9
							l0,0.1c-0.2-0.1-0.3-0.2-0.3-0.2s0.1,0,0.4,0.1l0.1,0l-0.1,0.1c-0.2,0.2-0.5,0.4-0.7,0.9c-0.1,0.2-0.1,0.5,0,0.7
							c0.1,0.2,0.3,0.4,0.6,0.5c0.4,0.1,0.7-0.2,0.8-0.6c0.1-0.4,0-0.7,0-1c-0.1-0.3-0.3-0.4-0.5-0.4
							C318.4,196.5,318.3,196.5,318.3,196.5z"/>
					</g>
				</g>
				<g id="XMLID_2387_">
					<g id="XMLID_2388_">
						<path id="XMLID_2389_" class="st1" d="M314.6,187.6c0,0,0.4,0.4,0.8,1.2c0.5,0.8,1.1,1.9,1.6,3.1c0.5,1.3,0.9,2.4,1.2,3.3
							c0.2,0.9,0.4,1.4,0.3,1.4c0,0-0.2-0.5-0.5-1.4c-0.3-0.8-0.7-2-1.3-3.3c-0.5-1.3-1.1-2.4-1.5-3.1
							C314.8,188.1,314.5,187.6,314.6,187.6z"/>
					</g>
				</g>
				<g id="XMLID_2384_">
					<g id="XMLID_2385_">
						<path id="XMLID_2386_" class="st1" d="M322.5,188.4c0,0-0.2,0.5-0.5,1.2c-0.3,0.7-0.8,1.8-1.3,2.9c-0.5,1.2-0.9,2.2-1.2,3
							c-0.3,0.8-0.5,1.2-0.5,1.2c0,0,0.1-0.5,0.4-1.3c0.3-0.8,0.7-1.9,1.2-3c0.5-1.2,1-2.2,1.4-2.9
							C322.2,188.8,322.4,188.4,322.5,188.4z"/>
					</g>
				</g>
				<g id="XMLID_2381_">
					<g id="XMLID_2382_">
						<path id="XMLID_2383_" class="st1" d="M314.6,212.6c0,0,0-0.2,0-0.6c0-0.4,0.1-0.9,0.2-1.5c0.2-1.3,0.5-3.1,1-5
							c0.4-1.9,0.9-3.7,1.3-5c0.2-0.6,0.3-1.1,0.5-1.5c0.1-0.3,0.2-0.5,0.2-0.5c0,0-0.2,0.8-0.5,2.1c-0.3,1.3-0.8,3-1.2,5
							c-0.4,1.9-0.8,3.7-1.1,5C314.8,211.8,314.7,212.6,314.6,212.6z"/>
					</g>
				</g>
				<g id="XMLID_2378_">
					<g id="XMLID_2379_">
						<path id="XMLID_2380_" class="st1" d="M322.4,207.2c0,0-0.2-0.5-0.5-1.3c-0.3-0.8-0.7-1.9-1.1-3.1c-0.5-1.2-1-2.2-1.3-3
							c-0.4-0.8-0.6-1.2-0.6-1.3c0,0,0.3,0.4,0.7,1.2c0.4,0.7,0.9,1.8,1.4,3c0.5,1.2,0.8,2.3,1.1,3.1
							C322.4,206.6,322.5,207.2,322.4,207.2z"/>
					</g>
				</g>
			</g>
		</g>
		<g id="XMLID_2346_">
			<g id="XMLID_2374_">
				
					<rect id="XMLID_2375_" x="148.1" y="237" transform="matrix(-1 -1.224647e-016 1.224647e-016 -1 300.1143 489.1923)" class="st2" width="3.8" height="15.2"/>
			</g>
			<g id="XMLID_2372_">
				
					<rect id="XMLID_2373_" x="99.7" y="237" transform="matrix(-1 -1.224647e-016 1.224647e-016 -1 203.3102 489.1923)" class="st2" width="3.8" height="15.2"/>
			</g>
			<g id="XMLID_2370_">
				
					<rect id="XMLID_2371_" x="122.6" y="237" transform="matrix(-1 -1.224647e-016 1.224647e-016 -1 249.1038 489.1923)" class="st1" width="3.8" height="15.2"/>
			</g>
			<g id="XMLID_2368_">
				
					<rect id="XMLID_2369_" x="81.5" y="237" transform="matrix(-1 -1.224647e-016 1.224647e-016 -1 166.7914 489.1923)" class="st1" width="3.8" height="15.2"/>
			</g>
			<g id="XMLID_2366_">
				<rect id="XMLID_2367_" x="99.7" y="201.8" class="st2" width="52.3" height="35.2"/>
			</g>
			<g id="XMLID_2364_">
				<rect id="XMLID_2365_" x="80.8" y="201.8" class="st1" width="18.9" height="35.2"/>
			</g>
			<g id="XMLID_2361_">
				<g id="XMLID_2362_">
					<path id="XMLID_2363_" class="st1" d="M104.6,219.4c0,0,0-0.1,0-0.2c0-0.1,0-0.3,0-0.6c0-0.5,0-1.2,0-2.2c0-1.9,0-4.7,0-8.2
						l-0.1,0.1c9.6,0,24.9,0,42.1,0.1c-0.1-0.1,0.1,0.1-0.1-0.1v0v0v0v0v0v0.1v0.2v0.4l0,0.7c0,0.5,0,1,0,1.4c0,0.9,0,1.9,0,2.8
						c0,1.9,0,3.7,0,5.5l0.1-0.1c-12,0-22.5,0-30,0.1c-3.8,0-6.8,0-8.8,0c-1,0-1.8,0-2.4,0c-0.3,0-0.5,0-0.6,0
						C104.7,219.4,104.6,219.4,104.6,219.4c0,0,0.1,0,0.2,0c0.1,0,0.3,0,0.6,0c0.5,0,1.3,0,2.4,0c2.1,0,5.1,0,8.8,0
						c7.5,0,18.1,0,30.1,0.1l0.1,0l0-0.1c0-1.8,0-3.6,0-5.5c0-0.9,0-1.9,0-2.8c0-0.5,0-0.9,0-1.4l0-0.7v-0.4v-0.2v-0.1v0v0v0v0v0
						c-0.3-0.3-0.1-0.1-0.1-0.1c-17.2,0-32.5,0-42.1,0.1l-0.1,0l0,0.1c0,3.5,0,6.3,0,8.3c0,0.9,0,1.7,0,2.2c0,0.2,0,0.4,0,0.6
						C104.6,219.3,104.6,219.4,104.6,219.4z"/>
				</g>
			</g>
			<g id="XMLID_2359_">
				<circle id="XMLID_2360_" class="st1" cx="125.7" cy="213.8" r="1.8"/>
			</g>
			<g id="XMLID_2357_">
				<path id="XMLID_2358_" class="st3" d="M144.1,188.4l-2.1,3c0,0,4.6,1.3,4.6,5.4c0,4.1-2.8,4.9-5.9,4.9c-3.1,0-6.1-0.9-5.9-5
					c0.1-4.1,4-5.7,4-5.7l-1.9-2.6H144.1z"/>
			</g>
			<g id="XMLID_2352_">
				<g id="XMLID_2355_">
					<path id="XMLID_2356_" class="st1" d="M85.9,193.9v7.5h32.5c2.1,0,3.8-1.7,3.8-3.8v0c0-2.1-1.7-3.8-3.8-3.8"/>
				</g>
				<g id="XMLID_2353_">
					<path id="XMLID_2354_" class="st4" d="M85.9,199.8h11.9c0.5,0,1-0.4,1-1v-2.4c0-0.5-0.4-1-1-1H85.9V199.8z"/>
				</g>
			</g>
			<g id="XMLID_2347_">
				<g id="XMLID_2350_">
					<path id="XMLID_2351_" class="st3" d="M85.9,186.6v7.5h32.5c2.1,0,3.8-1.7,3.8-3.8v0c0-2.1-1.7-3.8-3.8-3.8H85.9z"/>
				</g>
				<g id="XMLID_2348_">
					<path id="XMLID_2349_" class="st1" d="M85.9,192.6h11.9c0.5,0,1-0.4,1-1v-2.4c0-0.5-0.4-1-1-1H85.9V192.6z"/>
				</g>
			</g>
		</g>
		<g id="XMLID_2318_">
			<g id="XMLID_2344_">
				
					<rect id="XMLID_2345_" x="346.8" y="67.7" transform="matrix(0.4167 -0.9091 0.9091 0.4167 114.1339 372.6232)" class="st1" width="1.1" height="59.3"/>
			</g>
			<g id="XMLID_2342_">
				<rect id="XMLID_2343_" x="360.9" y="103.8" class="st1" width="1.1" height="148.3"/>
			</g>
			<g id="XMLID_2340_">
				<path id="XMLID_2341_" class="st3" d="M361.4,162.9h0.3c0.7,0,1.3-0.6,1.3-1.3v-17.3c0-0.7-0.6-1.3-1.3-1.3h-0.3
					c-0.7,0-1.3,0.6-1.3,1.3v17.3C360.1,162.3,360.7,162.9,361.4,162.9z"/>
			</g>
			<g id="XMLID_2338_">
				<path id="XMLID_2339_" class="st2" d="M321.7,85l-1.5,2.6l-6.7-3.9l1.7-2.7c1.1-1.7,3.3-2.2,5-1.3l0,0
					C322.1,80.7,322.8,83.1,321.7,85z"/>
			</g>
			<g id="XMLID_2336_">
				<polygon id="XMLID_2337_" class="st3" points="320.4,86.5 324.3,104.6 296.5,88.9 313.5,83.7 				"/>
			</g>
			<g id="XMLID_2334_">
				
					<ellipse id="XMLID_2335_" transform="matrix(0.476 -0.8795 0.8795 0.476 76.56 323.5932)" class="st1" cx="309.8" cy="97.6" rx="5.3" ry="16.6"/>
			</g>
			<g id="XMLID_2332_">
				<path id="XMLID_2333_" class="st1" d="M377.2,252.1h-32c0,0,4.8-4.9,16.2-4.4C372.9,248.2,377.2,252.1,377.2,252.1z"/>
			</g>
			<g id="XMLID_2330_">
				<circle id="XMLID_2331_" class="st3" cx="361.4" cy="103.8" r="2.2"/>
			</g>
			<g id="XMLID_2328_">
				<polygon id="XMLID_2329_" class="st2" points="320.5,80.3 322,77.7 320.7,77.2 319.5,79.9 				"/>
			</g>
			<g id="XMLID_2325_">
				<g id="XMLID_2326_">
					<path id="XMLID_2327_" class="st1" d="M313.5,83.5c0,0.1,1.9,0,4,1c2.1,0.9,3.2,2.5,3.3,2.4c0,0-0.2-0.4-0.8-1
						c-0.5-0.5-1.4-1.2-2.4-1.7c-1.1-0.5-2.1-0.7-2.9-0.7C314,83.4,313.5,83.5,313.5,83.5z"/>
				</g>
			</g>
			<g id="XMLID_2319_">
				<g id="XMLID_2323_">
					<path id="XMLID_2324_" class="st4" d="M314.3,94.1v5.4c0,0.6-0.2,1.3-0.6,1.7c-0.7,0.8-2.1,1.4-5-0.1c-3.4-1.8-3.1-3.8-2.5-4.9
						c0.2-0.5,0.6-0.8,1.1-1.1l4.3-2.5L314.3,94.1z"/>
				</g>
				<g id="XMLID_2320_">
					<g id="XMLID_2321_">
						<path id="XMLID_2322_" class="st1" d="M312.5,93.1c0,0-0.1,0.2-0.3,0.6c-0.2,0.4-0.5,1-0.9,1.7c-0.2,0.3-0.5,0.7-0.7,1.1
							c-0.1,0.2-0.3,0.4-0.5,0.5c-0.2,0.1-0.4,0.2-0.6,0.1c-0.2-0.1-0.4-0.3-0.3-0.5c0-0.2,0.2-0.4,0.4-0.5c0.2,0,0.5,0.1,0.8,0.2
							c0.3,0.1,0.5,0.3,0.8,0.4c0.3,0.2,0.5,0.3,0.8,0.5c0.2,0.2,0.4,0.4,0.4,0.6c0,0.2-0.2,0.5-0.3,0.7c-0.1,0.2-0.4,0.1-0.5-0.1
							c-0.1-0.2-0.1-0.4-0.1-0.6c0.1-0.2,0.2-0.4,0.3-0.6c0.2-0.4,0.4-0.8,0.6-1.2c0.4-0.7,0.7-1.2,0.9-1.7c0.2-0.4,0.3-0.6,0.3-0.6
							c0,0-0.2,0.2-0.4,0.6c-0.3,0.4-0.6,1-1,1.6c-0.2,0.4-0.4,0.7-0.7,1.1c-0.1,0.2-0.3,0.4-0.4,0.7c0,0.1-0.1,0.3-0.1,0.4
							c0,0.2,0.1,0.3,0.2,0.4c0.1,0.1,0.2,0.2,0.4,0.3c0.2,0,0.4-0.1,0.5-0.2c0.1-0.1,0.2-0.3,0.2-0.4c0.1-0.1,0.1-0.3,0.1-0.5
							c0-0.2-0.1-0.4-0.2-0.5c-0.1-0.1-0.2-0.2-0.4-0.3c-0.2-0.2-0.5-0.4-0.8-0.5c-0.3-0.2-0.5-0.3-0.8-0.4
							c-0.3-0.1-0.6-0.3-0.9-0.2c-0.4,0.1-0.6,0.4-0.7,0.7c0,0.4,0.2,0.7,0.5,0.8c0.3,0.1,0.7,0,0.9-0.2c0.2-0.2,0.4-0.4,0.5-0.6
							c0.3-0.4,0.5-0.8,0.7-1.1c0.4-0.7,0.7-1.3,0.9-1.7C312.5,93.3,312.5,93.1,312.5,93.1z"/>
					</g>
				</g>
			</g>
		</g>
		<g id="XMLID_2308_">
			<g id="XMLID_2315_">
				<g id="XMLID_2316_">
					
						<rect id="XMLID_2317_" x="84.2" y="94.7" transform="matrix(6.123234e-017 -1 1 6.123234e-017 -0.1246 229.4811)" class="st1" width="61" height="40.1"/>
				</g>
			</g>
			<g id="XMLID_2312_">
				<g id="XMLID_2313_">
					
						<rect id="XMLID_2314_" x="86.2" y="96.5" transform="matrix(6.123234e-017 -1 1 6.123234e-017 -0.2173 229.4201)" class="st4" width="56.8" height="36.7"/>
				</g>
			</g>
			<g id="XMLID_2309_">
				<g id="XMLID_2310_">
					
						<rect id="XMLID_2311_" x="105.4" y="109.8" transform="matrix(6.123234e-017 -1 1 6.123234e-017 -0.1404 229.497)" class="st1" width="18.5" height="10.1"/>
				</g>
			</g>
		</g>
		<g id="XMLID_2305_">
			<g id="XMLID_2306_">
				<path id="XMLID_2307_" class="st5" d="M358.7,252.2c0,0.1-75.3,0.1-168.2,0.1c-92.9,0-168.3-0.1-168.3-0.1s75.3-0.1,168.3-0.1
					C283.3,252.1,358.7,252.2,358.7,252.2z"/>
			</g>
		</g>
		<g id="XMLID_2157_">
			<g id="XMLID_2206_">
				<g id="XMLID_2303_">
					<path id="XMLID_2304_" class="st6" d="M88.1,58H62.5c-4.2,0-7.5-3.4-7.5-7.5v-0.6c0-4.2,3.4-7.5,7.5-7.5h25.6V58z"/>
				</g>
				<g id="XMLID_2301_" class="st7">
					<path id="XMLID_2302_" class="st5" d="M88.1,58H62.5c-4.2,0-7.5-3.4-7.5-7.5v-0.6c0-4.2,3.4-7.5,7.5-7.5h25.6V58z"/>
				</g>
				<g id="XMLID_2299_">
					<rect id="XMLID_2300_" x="88.1" y="42.4" class="st6" width="33.1" height="15.7"/>
				</g>
				<g id="XMLID_2297_" class="st8">
					<rect id="XMLID_2298_" x="88.1" y="42.4" class="st5" width="33.1" height="15.7"/>
				</g>
				<g id="XMLID_2295_">
					<rect id="XMLID_2296_" x="121.2" y="42.4" class="st6" width="33.1" height="15.7"/>
				</g>
				<g id="XMLID_2293_" class="st9">
					<rect id="XMLID_2294_" x="121.2" y="42.4" class="st5" width="33.1" height="15.7"/>
				</g>
				<g id="XMLID_2291_">
					<rect id="XMLID_2292_" x="154.3" y="42.4" class="st6" width="33.1" height="15.7"/>
				</g>
				<g id="XMLID_2289_" class="st10">
					<rect id="XMLID_2290_" x="154.3" y="42.4" class="st5" width="33.1" height="15.7"/>
				</g>
				<g id="XMLID_2287_">
					<rect id="XMLID_2288_" x="187.3" y="42.4" class="st6" width="33.1" height="15.7"/>
				</g>
				<g id="XMLID_2285_">
					<rect id="XMLID_2286_" x="220.3" y="42.4" class="st6" width="33.1" height="15.7"/>
				</g>
				<g id="XMLID_2283_" class="st11">
					<rect id="XMLID_2284_" x="220.3" y="42.4" class="st12" width="33.1" height="15.7"/>
				</g>
				<g id="XMLID_2281_">
					<rect id="XMLID_2282_" x="253.3" y="42.4" class="st6" width="33.1" height="15.7"/>
				</g>
				<g id="XMLID_2279_">
					<path id="XMLID_2280_" class="st6" d="M311.8,58h-25.6V42.4h25.6c4.2,0,7.5,3.4,7.5,7.5v0.6C319.3,54.7,316,58,311.8,58z"/>
				</g>
				<g id="XMLID_2277_" class="st13">
					<rect id="XMLID_2278_" x="253.3" y="42.4" class="st12" width="33.1" height="15.7"/>
				</g>
				<g id="XMLID_2275_" class="st7">
					<path id="XMLID_2276_" class="st12" d="M311.8,58h-25.6V42.4h25.6c4.2,0,7.5,3.4,7.5,7.5v0.6C319.3,54.7,316,58,311.8,58z"/>
				</g>
				<g id="XMLID_2265_">
					<g id="XMLID_2269_">
						<g id="XMLID_2273_">
							<circle id="XMLID_2274_" class="st14" cx="200.9" cy="50" r="11.4"/>
						</g>
						<g id="XMLID_2270_">
							<g id="XMLID_2271_">
								<circle id="XMLID_2272_" class="st15" cx="203.8" cy="50" r="11.4"/>
							</g>
						</g>
					</g>
					<g id="XMLID_2266_">
						<g id="XMLID_2267_">
							<path id="XMLID_2268_" class="st16" d="M213.8,50c-0.1,0,0-0.9-0.4-2.4c-0.2-0.8-0.5-1.7-1.1-2.6c-0.6-1-1.4-1.9-2.5-2.8
								c-1.1-0.8-2.5-1.5-4.1-1.8c-1.6-0.3-3.4-0.2-5.2,0.4c-0.9,0.3-1.7,0.8-2.5,1.3c-0.4,0.3-0.7,0.6-1.1,0.9
								c-0.3,0.4-0.7,0.7-1,1.1c-1.2,1.6-1.9,3.7-1.9,5.8c0,2.1,0.7,4.2,1.9,5.8c0.3,0.4,0.6,0.8,1,1.1c0.4,0.3,0.7,0.7,1.1,0.9
								c0.8,0.6,1.6,1,2.5,1.3c1.7,0.7,3.5,0.7,5.2,0.4c1.6-0.3,3-1,4.1-1.8c1.1-0.8,1.9-1.8,2.5-2.8c0.6-1,0.9-1.9,1.1-2.6
								C213.8,50.8,213.7,50,213.8,50c0,0,0,0.1,0,0.2c0,0.1,0,0.3,0,0.5c0,0.2,0,0.5-0.1,0.8c0,0.3-0.1,0.7-0.2,1
								c-0.2,0.8-0.5,1.7-1.1,2.7c-0.6,1-1.4,2-2.5,2.9c-1.1,0.9-2.6,1.6-4.2,1.9c-1.6,0.3-3.5,0.2-5.3-0.4
								c-0.9-0.3-1.8-0.8-2.6-1.4c-0.4-0.3-0.8-0.6-1.1-1c-0.3-0.4-0.7-0.7-1-1.2c-1.2-1.7-2-3.8-2-6c0-2.2,0.7-4.3,2-6
								c0.3-0.4,0.7-0.8,1-1.2c0.4-0.3,0.7-0.7,1.1-1c0.8-0.6,1.7-1.1,2.6-1.4c1.8-0.7,3.6-0.7,5.3-0.4c1.7,0.3,3.1,1,4.2,1.9
								c1.1,0.9,2,1.9,2.5,2.9c0.6,1,0.9,1.9,1.1,2.7c0.1,0.4,0.1,0.7,0.2,1c0.1,0.3,0.1,0.6,0.1,0.8c0,0.2,0,0.4,0,0.5
								C213.8,49.9,213.8,50,213.8,50z"/>
						</g>
					</g>
				</g>
				<g id="XMLID_2262_">
					<path id="XMLID_2263_" class="st5" d="M86.8,29v4.5h-0.6v-4h-1V29H86.8z"/>
				</g>
				<g id="XMLID_2259_">
					<path id="XMLID_2260_" class="st5" d="M123.5,33v0.6h-3.2v-0.4l1.8-1.8c0.5-0.5,0.6-0.7,0.6-1c0-0.5-0.3-0.7-1-0.7
						c-0.5,0-0.9,0.2-1.2,0.5l-0.4-0.4c0.3-0.4,0.9-0.7,1.7-0.7c0.9,0,1.5,0.5,1.5,1.3c0,0.4-0.1,0.8-0.7,1.4l-1.4,1.3H123.5z"/>
				</g>
				<g id="XMLID_2256_">
					<path id="XMLID_2257_" class="st5" d="M155.4,32.2c0,0.8-0.6,1.4-1.7,1.4c-0.6,0-1.3-0.2-1.7-0.5l0.3-0.5
						c0.3,0.3,0.8,0.5,1.4,0.5c0.7,0,1.1-0.3,1.1-0.8c0-0.5-0.3-0.8-1.1-0.8h-0.4V31l1.1-1.4h-2.2V29h3v0.4l-1.2,1.5
						C154.9,31,155.4,31.5,155.4,32.2z"/>
				</g>
				<g id="XMLID_2253_">
					<path id="XMLID_2254_" class="st5" d="M189.5,32.4h-0.9v1.1H188v-1.1h-2.5V32l2.3-3h0.7l-2.2,2.9h1.7v-1h0.6v1h0.9V32.4z"/>
				</g>
				<g id="XMLID_2248_">
					<path id="XMLID_2251_" class="st5" d="M220.9,32.2c0,0.8-0.6,1.4-1.7,1.4c-0.6,0-1.3-0.2-1.7-0.5l0.3-0.5
						c0.3,0.3,0.8,0.5,1.4,0.5c0.7,0,1.1-0.3,1.1-0.8c0-0.5-0.3-0.8-1.4-0.8h-1l0.2-2.4h2.5v0.6h-2l-0.1,1.2h0.5
						C220.4,30.8,220.9,31.4,220.9,32.2z"/>
				</g>
				<g id="XMLID_2243_">
					<path id="XMLID_2245_" class="st5" d="M254.8,32.2c0,0.9-0.7,1.4-1.6,1.4c-1.2,0-1.9-0.8-1.9-2.3c0-1.5,0.9-2.4,2.1-2.4
						c0.4,0,0.8,0.1,1.1,0.3l-0.2,0.5c-0.2-0.2-0.5-0.2-0.9-0.2c-0.9,0-1.5,0.6-1.5,1.7c0,0.1,0,0.1,0,0.2c0.3-0.4,0.7-0.6,1.3-0.6
						C254.1,30.8,254.8,31.3,254.8,32.2z M254.1,32.2c0-0.5-0.4-0.9-1-0.9c-0.6,0-1,0.4-1,0.9c0,0.5,0.4,0.9,1.1,0.9
						C253.7,33.1,254.1,32.7,254.1,32.2z"/>
				</g>
				<g id="XMLID_2207_">
					<path id="XMLID_2220_" class="st5" d="M288.9,29v0.4l-1.8,4.1h-0.7l1.8-4h-2.1v0.8h-0.6V29H288.9z"/>
				</g>
			</g>
			<g id="XMLID_2176_">
				<g id="XMLID_2193_">
					<g id="XMLID_2199_">
						<path id="XMLID_2202_" class="st16" d="M201,52.2c-0.1,0.1-1.1-0.8-2.4-1.9l0,0l-0.1-0.1l0.1-0.1c1.3-1,2.4-1.8,2.4-1.8
							c0.1,0.1-0.9,1-2.2,2l0-0.2l0,0C200.1,51.2,201.1,52.1,201,52.2z"/>
					</g>
				</g>
				<g id="XMLID_2188_">
					<g id="XMLID_2190_">
						<path id="XMLID_2191_" class="st16" d="M207.7,48.3c0.1-0.1,1.1,0.8,2.4,1.9l0,0l0.1,0.1l-0.1,0.1c-1.3,1-2.4,1.8-2.4,1.8
							c-0.1-0.1,0.9-1,2.2-2l0,0.2l0,0C208.6,49.3,207.6,48.3,207.7,48.3z"/>
					</g>
				</g>
				<g id="XMLID_2182_">
					<g id="XMLID_2185_">
						<ellipse id="XMLID_2186_" class="st16" cx="204.2" cy="50.2" rx="5.5" ry="0.1"/>
					</g>
				</g>
			</g>
			<g id="XMLID_2169_">
				<g id="XMLID_2173_">
					<g id="XMLID_2174_">
						<path id="XMLID_2175_" class="st5" d="M46.3,51.2c-0.1,0,0-0.8-0.4-2.3c-0.2-0.7-0.5-1.6-1.1-2.5c-0.5-0.9-1.3-1.9-2.4-2.7
							c-1.1-0.8-2.4-1.5-4-1.7c-1.5-0.3-3.3-0.2-4.9,0.4c-0.8,0.3-1.6,0.7-2.4,1.3c-0.4,0.3-0.7,0.6-1.1,0.9
							c-0.3,0.3-0.6,0.7-0.9,1.1c-1.2,1.5-1.8,3.5-1.8,5.5c0,2,0.7,4,1.8,5.5c0.3,0.4,0.6,0.7,0.9,1.1c0.3,0.3,0.7,0.6,1.1,0.9
							c0.7,0.6,1.5,1,2.4,1.3c1.7,0.6,3.4,0.7,4.9,0.4c1.5-0.3,2.9-0.9,4-1.7c1.1-0.8,1.9-1.8,2.4-2.7c0.5-0.9,0.9-1.8,1.1-2.5
							C46.3,52,46.3,51.2,46.3,51.2c0,0,0,0.1,0,0.2c0,0.1,0,0.3,0,0.5c0,0.2,0,0.4-0.1,0.7c0,0.3-0.1,0.6-0.2,1
							c-0.2,0.7-0.5,1.6-1,2.6c-0.5,0.9-1.3,1.9-2.4,2.7c-1.1,0.8-2.4,1.5-4,1.8c-1.6,0.3-3.4,0.2-5.1-0.4c-0.9-0.3-1.7-0.7-2.4-1.3
							c-0.4-0.3-0.7-0.6-1.1-0.9c-0.3-0.4-0.7-0.7-0.9-1.1c-1.2-1.6-1.9-3.6-1.9-5.7c0-2.1,0.7-4.1,1.9-5.7c0.3-0.4,0.6-0.8,0.9-1.1
							c0.4-0.3,0.7-0.7,1.1-0.9c0.8-0.6,1.6-1,2.4-1.3c1.7-0.6,3.5-0.7,5.1-0.4c1.6,0.3,3,1,4,1.8c1.1,0.8,1.9,1.8,2.4,2.7
							c0.5,0.9,0.9,1.8,1,2.6c0.1,0.4,0.1,0.7,0.2,1c0,0.3,0.1,0.5,0.1,0.7c0,0.2,0,0.3,0,0.5C46.3,51.1,46.3,51.2,46.3,51.2z"/>
					</g>
				</g>
				<g id="XMLID_2170_">
					<g id="XMLID_2171_">
						<ellipse id="XMLID_2172_" class="st5" cx="36.5" cy="51.2" rx="4.6" ry="0.1"/>
					</g>
				</g>
			</g>
			<g id="XMLID_2158_">
				<g id="XMLID_2162_">
					<g id="XMLID_2166_">
						<g id="XMLID_2167_">
							<path id="XMLID_2168_" class="st5" d="M342.8,50c-0.1,0,0-0.8-0.4-2.3c-0.2-0.7-0.5-1.6-1.1-2.5c-0.5-0.9-1.3-1.9-2.4-2.7
								c-1.1-0.8-2.4-1.5-4-1.7c-1.5-0.3-3.3-0.2-4.9,0.4c-0.8,0.3-1.6,0.7-2.4,1.3c-0.4,0.3-0.7,0.6-1.1,0.9
								c-0.3,0.3-0.6,0.7-0.9,1.1c-1.2,1.5-1.8,3.5-1.8,5.5c0,2,0.7,4,1.8,5.5c0.3,0.4,0.6,0.7,0.9,1.1c0.3,0.3,0.7,0.6,1.1,0.9
								c0.7,0.6,1.5,1,2.4,1.3c1.7,0.6,3.4,0.7,4.9,0.4c1.5-0.3,2.9-0.9,4-1.7c1.1-0.8,1.9-1.8,2.4-2.7c0.5-0.9,0.9-1.8,1.1-2.5
								C342.8,50.8,342.7,50,342.8,50c0,0,0,0.1,0,0.2c0,0.1,0,0.3,0,0.5c0,0.2,0,0.4-0.1,0.7c0,0.3-0.1,0.6-0.2,1
								c-0.2,0.7-0.5,1.6-1,2.6c-0.5,0.9-1.3,1.9-2.4,2.7c-1.1,0.8-2.4,1.5-4,1.8c-1.6,0.3-3.4,0.2-5.1-0.4
								c-0.9-0.3-1.7-0.7-2.4-1.3c-0.4-0.3-0.7-0.6-1.1-0.9c-0.3-0.4-0.7-0.7-0.9-1.1c-1.2-1.6-1.9-3.6-1.9-5.7
								c0-2.1,0.7-4.1,1.9-5.7c0.3-0.4,0.6-0.8,0.9-1.1c0.4-0.3,0.7-0.7,1.1-0.9c0.8-0.6,1.6-1,2.4-1.3c1.7-0.6,3.5-0.7,5.1-0.4
								c1.6,0.3,3,1,4,1.8c1.1,0.8,1.9,1.8,2.4,2.7c0.5,0.9,0.9,1.8,1,2.6c0.1,0.4,0.1,0.7,0.2,1c0,0.3,0.1,0.5,0.1,0.7
								c0,0.2,0,0.3,0,0.5C342.8,49.9,342.8,50,342.8,50z"/>
						</g>
					</g>
					<g id="XMLID_2163_">
						<g id="XMLID_2164_">
							<ellipse id="XMLID_2165_" class="st5" cx="333" cy="50" rx="4.6" ry="0.1"/>
						</g>
					</g>
				</g>
				<g id="XMLID_2159_">
					<g id="XMLID_2160_">
						<ellipse id="XMLID_2161_" class="st5" cx="333" cy="49.6" rx="0.1" ry="4.4"/>
					</g>
				</g>
			</g>
		</g>
		<g id="XMLID_2084_">
			<g id="XMLID_2123_">
				<g id="XMLID_2153_">
					<g id="XMLID_2154_">
						<g id="XMLID_2155_">
							<path id="XMLID_2156_" class="st6" d="M81.4,217.8c-5.5-4.5-6.2-12.1-5.4-18.8c0.1-1.1,0.1-2.3,0.7-3.3
								c0.6-0.9,1.9-1.5,2.9-1c0.8,0.5,1.1,1.5,1.5,2.3c0.5,1.1,1.4,2.1,2.4,2.7c0.7,0.4,1.6,0.7,2.3,0.4c1-0.5,1.2-1.8,1.3-2.9
								c0.2-2.1,0.3-4.2,0.5-6.3c0.1-1.1,0.2-2.3,0.6-3.3c0.4-1,1.3-2,2.4-2.2c1.1-0.2,2.4,0.5,2.5,1.6c0.1,0.5-0.1,0.9-0.1,1.4
								c0,0.5,0.2,1,0.6,1.2c0.4,0.2,0.9-0.1,1.3-0.4c1.2-1,2.1-2.4,3-3.8c0.8-1.4,1.7-2.8,2.8-4c1.1-1.2,2.7-2,4.3-2
								c1.6,0,3.2,1.2,3.5,2.8c0.3,1.6-0.8,3.1-1.9,4.3c-1.6,1.8-3.5,3.3-5.6,4.6c-0.4,0.2-0.8,0.5-0.9,0.9
								c-0.3,0.7,0.3,1.5,1.1,1.8c0.8,0.3,1.7,0.3,2.6,0.5c0.9,0.2,1.8,0.6,2,1.5c0.4,1.2-0.7,2.3-1.7,3c-2,1.4-4.3,2.5-6.6,3.2
								c-0.8,0.2-1.7,0.4-2.4,1c-0.7,0.5-1.2,1.5-0.9,2.3c0.3,0.8,1.3,1.2,2.2,1.1c0.9-0.1,1.7-0.5,2.5-0.7c1.6-0.5,3.6-0.2,4.4,1.2
								c0.6,0.9,0.5,2.1,0.1,3.2c-0.4,1-1.1,1.9-1.9,2.6c-2.7,2.7-6,4.8-9.7,5.7C88.2,219.3,84.9,219.4,81.4,217.8"/>
						</g>
					</g>
				</g>
				<g id="XMLID_2149_" class="st13">
					<g id="XMLID_2150_">
						<g id="XMLID_2151_">
							<path id="XMLID_2152_" class="st12" d="M81.4,217.8c-5.5-4.5-6.2-12.1-5.4-18.8c0.1-1.1,0.1-2.3,0.7-3.3
								c0.6-0.9,1.9-1.5,2.9-1c0.8,0.5,1.1,1.5,1.5,2.3c0.5,1.1,1.4,2.1,2.4,2.7c0.7,0.4,1.6,0.7,2.3,0.4c1-0.5,1.2-1.8,1.3-2.9
								c0.2-2.1,0.3-4.2,0.5-6.3c0.1-1.1,0.2-2.3,0.6-3.3c0.4-1,1.3-2,2.4-2.2c1.1-0.2,2.4,0.5,2.5,1.6c0.1,0.5-0.1,0.9-0.1,1.4
								c0,0.5,0.2,1,0.6,1.2c0.4,0.2,0.9-0.1,1.3-0.4c1.2-1,2.1-2.4,3-3.8c0.8-1.4,1.7-2.8,2.8-4c1.1-1.2,2.7-2,4.3-2
								c1.6,0,3.2,1.2,3.5,2.8c0.3,1.6-0.8,3.1-1.9,4.3c-1.6,1.8-3.5,3.3-5.6,4.6c-0.4,0.2-0.8,0.5-0.9,0.9
								c-0.3,0.7,0.3,1.5,1.1,1.8c0.8,0.3,1.7,0.3,2.6,0.5c0.9,0.2,1.8,0.6,2,1.5c0.4,1.2-0.7,2.3-1.7,3c-2,1.4-4.3,2.5-6.6,3.2
								c-0.8,0.2-1.7,0.4-2.4,1c-0.7,0.5-1.2,1.5-0.9,2.3c0.3,0.8,1.3,1.2,2.2,1.1c0.9-0.1,1.7-0.5,2.5-0.7c1.6-0.5,3.6-0.2,4.4,1.2
								c0.6,0.9,0.5,2.1,0.1,3.2c-0.4,1-1.1,1.9-1.9,2.6c-2.7,2.7-6,4.8-9.7,5.7C88.2,219.3,84.9,219.4,81.4,217.8"/>
						</g>
					</g>
				</g>
				<g id="XMLID_2144_">
					<g id="XMLID_2145_">
						<g id="XMLID_2146_">
							<g id="XMLID_2147_">
								<path id="XMLID_2148_" class="st16" d="M107,180.6c0,0,0,0-0.1,0.1c-0.1,0.1-0.2,0.2-0.4,0.3c-0.3,0.2-0.8,0.6-1.4,1
									c-1.2,0.9-2.8,2.3-4.6,4.3c-0.9,1-1.9,2.1-2.9,3.3c-1,1.2-2.1,2.5-3.1,3.9c-1.1,1.4-2.1,2.9-3.1,4.6c-0.5,0.8-1,1.7-1.4,2.6
									c-0.5,0.9-0.9,1.8-1.4,2.7c-1.9,3.6-3.6,7.2-4.8,10.5c-1.3,3.3-2.1,6.4-2.6,9c-0.5,2.6-0.6,4.8-0.6,6.3c0,0.8,0,1.3,0,1.7
									c0,0.2,0,0.3,0,0.4c0,0.1,0,0.2,0,0.2c0,0,0-0.1,0-0.2c0-0.1,0-0.3,0-0.4c0-0.4-0.1-1-0.1-1.7c0-1.5,0.1-3.7,0.5-6.3
									c0.5-2.7,1.3-5.8,2.6-9.1c1.3-3.3,2.9-6.9,4.8-10.5c0.5-0.9,0.9-1.8,1.4-2.7c0.5-0.9,0.9-1.8,1.4-2.6c1-1.7,2.1-3.2,3.2-4.6
									c1.1-1.4,2.1-2.7,3.2-3.9c1-1.2,2-2.3,2.9-3.3c1.8-1.9,3.5-3.3,4.7-4.2c0.6-0.5,1.1-0.8,1.4-1c0.2-0.1,0.3-0.2,0.4-0.3
									C106.9,180.6,107,180.6,107,180.6z"/>
							</g>
						</g>
					</g>
				</g>
				<g id="XMLID_2139_">
					<g id="XMLID_2140_">
						<g id="XMLID_2141_">
							<g id="XMLID_2142_">
								<path id="XMLID_2143_" class="st16" d="M91.2,198c0,0,0-0.2-0.1-0.5c0-0.3-0.1-0.8-0.1-1.3c-0.1-1.1-0.1-2.7-0.2-4.4
									c0-1.7-0.1-3.3-0.2-4.4c0-0.6-0.1-1-0.1-1.3c0-0.3,0-0.5,0-0.5c0,0,0.1,0.2,0.1,0.5c0.1,0.3,0.1,0.8,0.2,1.3
									c0.1,1.1,0.2,2.7,0.3,4.4c0,1.7,0.1,3.2,0.1,4.4c0,0.5,0,1,0,1.3C91.2,197.8,91.2,198,91.2,198z"/>
							</g>
						</g>
					</g>
				</g>
				<g id="XMLID_2134_">
					<g id="XMLID_2135_">
						<g id="XMLID_2136_">
							<g id="XMLID_2137_">
								<path id="XMLID_2138_" class="st16" d="M105.8,196.4c0,0-0.2,0-0.6,0c-0.4,0-0.9,0-1.6,0c-1.3,0-3.2,0.2-5.2,0.4
									c-2,0.2-3.8,0.5-5.1,0.7c-0.7,0.1-1.2,0.2-1.5,0.3c-0.4,0.1-0.6,0.1-0.6,0.1c0,0,0.2-0.1,0.6-0.2c0.4-0.1,0.9-0.2,1.5-0.4
									c1.3-0.3,3.1-0.6,5.2-0.8c2-0.2,3.9-0.3,5.2-0.3c0.7,0,1.2,0,1.6,0C105.6,196.4,105.8,196.4,105.8,196.4z"/>
							</g>
						</g>
					</g>
				</g>
				<g id="XMLID_2129_">
					<g id="XMLID_2130_">
						<g id="XMLID_2131_">
							<g id="XMLID_2132_">
								<path id="XMLID_2133_" class="st16" d="M83.7,213.5c0,0,0-0.1-0.1-0.2c-0.1-0.1-0.1-0.3-0.2-0.5c-0.2-0.5-0.4-1.2-0.7-2
									c-0.6-1.7-1.3-4.1-2-6.7c-0.7-2.6-1.4-5-2-6.7c-0.3-0.8-0.5-1.5-0.6-2c-0.1-0.2-0.1-0.4-0.2-0.6c0-0.1-0.1-0.2,0-0.2
									c0,0,0,0.1,0.1,0.2c0.1,0.1,0.1,0.3,0.2,0.5c0.2,0.5,0.4,1.2,0.7,2c0.6,1.7,1.3,4.1,2,6.7c0.7,2.6,1.4,5,2,6.7
									c0.3,0.8,0.5,1.5,0.6,2c0.1,0.2,0.1,0.4,0.2,0.6C83.7,213.4,83.7,213.5,83.7,213.5z"/>
							</g>
						</g>
					</g>
				</g>
				<g id="XMLID_2124_">
					<g id="XMLID_2125_">
						<g id="XMLID_2126_">
							<g id="XMLID_2127_">
								<path id="XMLID_2128_" class="st16" d="M103.3,208.8c0,0-0.1,0-0.2,0.1c-0.2,0-0.3,0.1-0.6,0.1c-0.5,0.1-1.2,0.3-2.1,0.5
									c-1.8,0.4-4.2,1-6.9,1.7c-2.7,0.7-5.2,1.3-6.9,1.7c-0.9,0.2-1.6,0.3-2.1,0.4c-0.2,0-0.4,0.1-0.6,0.1c-0.1,0-0.2,0-0.2,0
									c0,0,0.1,0,0.2-0.1c0.2,0,0.3-0.1,0.6-0.1c0.5-0.1,1.2-0.3,2.1-0.5c1.8-0.4,4.2-1,6.9-1.7c2.7-0.7,5.2-1.3,6.9-1.7
									c0.9-0.2,1.6-0.3,2.1-0.4c0.2,0,0.4-0.1,0.6-0.1C103.2,208.8,103.3,208.8,103.3,208.8z"/>
							</g>
						</g>
					</g>
				</g>
			</g>
			<g id="XMLID_2093_">
				<g id="XMLID_2119_">
					<g id="XMLID_2120_">
						<g id="XMLID_2121_">
							<path id="XMLID_2122_" class="st6" d="M76.4,211.4c8.4-6.9,9.6-18.7,8.4-29.1c-0.2-1.7-0.1-3.6-1.1-5c-0.9-1.5-3-2.4-4.5-1.5
								c-1.2,0.7-1.7,2.3-2.3,3.6c-0.8,1.7-2.2,3.2-3.8,4.2c-1.1,0.7-2.4,1.1-3.5,0.6c-1.6-0.7-1.9-2.8-2-4.5
								c-0.2-3.2-0.5-6.4-0.7-9.7c-0.1-1.7-0.3-3.5-0.9-5.1c-0.7-1.6-2-3-3.7-3.4c-1.7-0.3-3.6,0.8-3.9,2.5
								c-0.1,0.7,0.1,1.4,0.1,2.2c0,0.7-0.3,1.5-0.9,1.8c-0.7,0.3-1.4-0.2-2-0.6c-1.9-1.6-3.3-3.8-4.6-5.9c-1.3-2.1-2.6-4.4-4.4-6.1
								c-1.8-1.8-4.1-3.1-6.6-3.1c-2.5,0.1-5,1.8-5.4,4.3c-0.4,2.5,1.2,4.8,2.9,6.7c2.5,2.7,5.4,5.1,8.6,7c0.6,0.3,1.2,0.7,1.5,1.3
								c0.5,1.1-0.5,2.4-1.6,2.8c-1.3,0.5-2.7,0.5-4,0.8c-1.3,0.3-2.7,1-3.2,2.3c-0.6,1.8,1.1,3.6,2.6,4.7c3.1,2.2,6.6,3.9,10.2,4.9
								c1.3,0.4,2.7,0.7,3.8,1.5c1.1,0.8,1.8,2.3,1.3,3.6c-0.5,1.3-2.1,1.8-3.4,1.6c-1.4-0.1-2.6-0.8-3.9-1.2
								c-2.4-0.7-5.5-0.3-6.9,1.9c-0.9,1.4-0.8,3.3-0.2,4.9c0.6,1.6,1.8,2.9,3,4.1c4.2,4.2,9.3,7.4,15,8.9
								C65.9,213.8,71.1,213.9,76.4,211.4"/>
						</g>
					</g>
				</g>
				<g id="XMLID_2114_">
					<g id="XMLID_2115_">
						<g id="XMLID_2116_">
							<g id="XMLID_2117_">
								<path id="XMLID_2118_" class="st16" d="M37,154c0,0,0.1,0.1,0.2,0.2c0.1,0.1,0.3,0.2,0.5,0.4c0.5,0.4,1.2,0.9,2.1,1.6
									c1.8,1.4,4.3,3.6,7.2,6.6c1.4,1.5,2.9,3.2,4.4,5.1c1.6,1.9,3.2,3.9,4.8,6c1.7,2.2,3.3,4.5,4.8,7.1c0.8,1.3,1.5,2.6,2.2,4
									c0.7,1.4,1.4,2.7,2.2,4.1c2.9,5.6,5.5,11,7.5,16.2c2,5.1,3.3,9.9,4,14c0.7,4.1,0.9,7.4,0.9,9.8c0,1.2,0,2.1-0.1,2.7
									c0,0.3,0,0.5,0,0.7c0,0.2,0,0.2,0,0.2c0,0,0-0.1,0-0.2c0-0.2,0-0.4,0.1-0.7c0.1-0.6,0.1-1.5,0.1-2.7c0-2.3-0.1-5.7-0.8-9.8
									c-0.7-4.1-2-8.9-3.9-14c-1.9-5.1-4.5-10.6-7.5-16.2c-0.7-1.4-1.5-2.8-2.2-4.1c-0.7-1.4-1.4-2.7-2.2-4
									c-1.5-2.6-3.2-4.9-4.9-7.1c-1.7-2.2-3.3-4.2-4.9-6c-1.6-1.9-3.1-3.6-4.5-5.1c-2.8-3-5.4-5.1-7.3-6.6
									c-0.9-0.7-1.6-1.2-2.1-1.6c-0.2-0.2-0.4-0.3-0.6-0.4C37,154,37,154,37,154z"/>
							</g>
						</g>
					</g>
				</g>
				<g id="XMLID_2109_">
					<g id="XMLID_2110_">
						<g id="XMLID_2111_">
							<g id="XMLID_2112_">
								<path id="XMLID_2113_" class="st16" d="M61.3,180.8c0,0,0.1-0.3,0.1-0.8c0.1-0.5,0.1-1.2,0.2-2.1c0.1-1.7,0.2-4.2,0.2-6.8
									c0.1-2.7,0.2-5.1,0.3-6.8c0.1-0.9,0.1-1.6,0.2-2.1c0-0.5,0.1-0.8,0-0.8c0,0-0.1,0.3-0.2,0.7c-0.1,0.5-0.2,1.2-0.3,2
									c-0.2,1.7-0.3,4.1-0.4,6.8c-0.1,2.6-0.1,5-0.2,6.8c0,0.8,0,1.5-0.1,2.1C61.3,180.5,61.3,180.8,61.3,180.8z"/>
							</g>
						</g>
					</g>
				</g>
				<g id="XMLID_2104_">
					<g id="XMLID_2105_">
						<g id="XMLID_2106_">
							<g id="XMLID_2107_">
								<path id="XMLID_2108_" class="st16" d="M38.7,178.4c0,0,0.3,0,0.9,0c0.6,0,1.4,0,2.4,0c2.1,0.1,4.9,0.2,8,0.6
									c3.1,0.3,5.9,0.8,7.9,1.1c1,0.2,1.8,0.3,2.4,0.5c0.6,0.1,0.9,0.2,0.9,0.1c0,0-0.3-0.1-0.9-0.3c-0.6-0.1-1.4-0.3-2.4-0.6
									c-2-0.4-4.8-0.9-8-1.2c-3.1-0.3-6-0.5-8-0.5c-1,0-1.9,0-2.4,0.1C39,178.3,38.7,178.4,38.7,178.4z"/>
							</g>
						</g>
					</g>
				</g>
				<g id="XMLID_2099_">
					<g id="XMLID_2100_">
						<g id="XMLID_2101_">
							<g id="XMLID_2102_">
								<path id="XMLID_2103_" class="st16" d="M72.9,204.7c0,0,0.1-0.1,0.1-0.3c0.1-0.2,0.2-0.5,0.3-0.8c0.3-0.7,0.6-1.8,1.1-3.1
									c0.9-2.6,2-6.3,3.1-10.4c1.1-4.1,2.2-7.7,3-10.4c0.4-1.3,0.7-2.3,1-3.1c0.1-0.3,0.2-0.6,0.3-0.9c0.1-0.2,0.1-0.3,0.1-0.3
									c0,0-0.1,0.1-0.1,0.3c-0.1,0.2-0.2,0.5-0.3,0.8c-0.3,0.7-0.6,1.8-1.1,3.1c-0.9,2.6-2,6.3-3.1,10.4c-1.1,4.1-2.2,7.7-3,10.4
									c-0.4,1.3-0.7,2.3-1,3.1c-0.1,0.3-0.2,0.6-0.3,0.9C72.9,204.6,72.9,204.7,72.9,204.7z"/>
							</g>
						</g>
					</g>
				</g>
				<g id="XMLID_2094_">
					<g id="XMLID_2095_">
						<g id="XMLID_2096_">
							<g id="XMLID_2097_">
								<path id="XMLID_2098_" class="st16" d="M42.6,197.5c0,0,0.1,0,0.3,0.1c0.2,0.1,0.5,0.1,0.9,0.2c0.8,0.2,1.9,0.5,3.2,0.8
									c2.7,0.7,6.5,1.6,10.7,2.7c4.2,1.1,8,2,10.7,2.6c1.4,0.3,2.5,0.5,3.3,0.7c0.4,0.1,0.7,0.1,0.9,0.2c0.2,0,0.3,0,0.3,0
									c0,0-0.1,0-0.3-0.1c-0.2-0.1-0.5-0.1-0.9-0.2c-0.8-0.2-1.9-0.5-3.2-0.8C65.7,203,62,202,57.8,201c-4.2-1.1-8-2-10.7-2.6
									c-1.4-0.3-2.5-0.5-3.3-0.7c-0.4-0.1-0.7-0.1-0.9-0.2C42.7,197.5,42.6,197.5,42.6,197.5z"/>
							</g>
						</g>
					</g>
				</g>
			</g>
			<g id="XMLID_2085_">
				<g id="XMLID_2091_">
					<polygon id="XMLID_2092_" class="st16" points="66,231.4 66.8,252.2 89.2,252.2 91,231.4 					"/>
				</g>
				<g id="XMLID_2089_">
					<rect id="XMLID_2090_" x="63.8" y="224.5" class="st16" width="29.9" height="6.9"/>
				</g>
				<g id="XMLID_2086_">
					<g id="XMLID_2087_">
						<ellipse id="XMLID_2088_" class="st17" cx="78.7" cy="231.2" rx="12.6" ry="0.1"/>
					</g>
				</g>
			</g>
		</g>
		<g id="XMLID_1862_">
			<g id="XMLID_2057_">
				<g id="XMLID_2082_">
					<path id="XMLID_2083_" class="st16" d="M261.2,248.7l-19-98.2l0,0c0-0.1-0.1-0.3-0.1-0.4l0,0l0,0c-2.9-11.5-5.2-14.4-5.2-14.4
						l-28.4,0.8c-2.2,4-2.5,13.6-2.5,13.6c-0.3,1.2,4.1,96.7,4.1,96.7l11.8,0l3.2-90.6l25.4,92.8L261.2,248.7z"/>
				</g>
				<g id="XMLID_2079_">
					<g id="XMLID_2080_">
						
							<ellipse id="XMLID_2081_" transform="matrix(0.9681 -0.2506 0.2506 0.9681 -31.6227 61.4367)" class="st17" cx="225.5" cy="154.9" rx="7.3" ry="0.2"/>
					</g>
				</g>
				<g id="XMLID_2076_">
					<g id="XMLID_2077_">
						<path id="XMLID_2078_" class="st17" d="M212.3,248c-0.1,0-0.8-22.6-1.6-50.4c-0.8-27.8-1.4-50.4-1.3-50.4
							c0.1,0,0.8,22.6,1.6,50.4C211.8,225.4,212.4,248,212.3,248z"/>
					</g>
				</g>
				<g id="XMLID_2073_">
					<g id="XMLID_2074_">
						<path id="XMLID_2075_" class="st17" d="M215.5,246.3c-0.1,0-0.2-22.2-0.3-49.6c-0.1-27.4-0.1-49.6,0-49.6
							c0.1,0,0.2,22.2,0.3,49.6C215.6,224.1,215.6,246.3,215.5,246.3z"/>
					</g>
				</g>
				<g id="XMLID_2070_">
					<g id="XMLID_2071_">
						<path id="XMLID_2072_" class="st17" d="M220.5,145.7c0.1,0-0.2,22.5-0.7,50.3c-0.5,27.8-0.9,50.3-1,50.3
							c-0.1,0,0.2-22.5,0.7-50.3C220,168.2,220.4,145.7,220.5,145.7z"/>
					</g>
				</g>
				<g id="XMLID_2067_">
					<g id="XMLID_2068_">
						
							<ellipse id="XMLID_2069_" transform="matrix(0.9989 -4.593683e-002 4.593683e-002 0.9989 -6.6853 10.4869)" class="st17" cx="224.8" cy="150.7" rx="0.1" ry="5.5"/>
					</g>
				</g>
				<g id="XMLID_2064_">
					<g id="XMLID_2065_">
						<path id="XMLID_2066_" class="st17" d="M253.1,248.6c-0.1,0-5.7-23.1-12.5-51.7c-6.8-28.6-12.3-51.7-12.3-51.7
							c0.1,0,5.7,23.1,12.5,51.7C247.7,225.5,253.2,248.6,253.1,248.6z"/>
					</g>
				</g>
				<g id="XMLID_2061_">
					<g id="XMLID_2062_">
						<path id="XMLID_2063_" class="st17" d="M256.5,248.5c-0.1,0-5.4-23.3-11.9-52.1c-6.5-28.8-11.7-52.2-11.6-52.2
							c0.1,0,5.4,23.3,11.9,52.1C251.4,225.2,256.6,248.5,256.5,248.5z"/>
					</g>
				</g>
				<g id="XMLID_2058_">
					<g id="XMLID_2059_">
						<path id="XMLID_2060_" class="st17" d="M258.7,248c-0.1,0-4.7-23.2-10.3-51.8c-5.6-28.6-10.1-51.9-10.1-51.9
							c0.1,0,4.7,23.2,10.3,51.8C254.2,224.7,258.7,248,258.7,248z"/>
					</g>
				</g>
			</g>
			<g id="XMLID_2055_">
				<path id="XMLID_2056_" class="st18" d="M210.6,96.6l-18.9-16.3l0.4-23.2l0.4-0.5c0.2-0.3,0.4-0.6,0.7-0.9c0.3-0.4,0.7-0.7,1.1-1
					c0.5-0.3,1.2-0.7,1.6-0.8c0.5-0.1,0.7-0.8,0.2-1c-0.5-0.2-1.9,0.1-3.4,1.2c-1.4,1.1-0.7-1.6-0.5-2.6c0.2-1,0.8-4.1,0.6-4.4
					c-0.4-0.4-0.9-0.1-1.1,0.9c-0.2,1-1.1,3.9-1.6,3.8c-0.5-0.1,0.8-5.1,0.8-5.1s0.4-1-0.1-1.2c-1.1-0.3-2,5.1-2.1,5.6
					c-0.1,0.4-0.6,0.2-0.5-0.2c0.1-0.4,1.4-5,0.3-5.3c-0.8-0.3-0.8,4.4-1.6,5.2c-0.8,0.8,0.4-3.6-0.4-3.8c-0.3-0.1-0.5-0.1-0.8,2.5
					c-0.2,1.3-0.5,3.4-0.6,5.4l0,0l-3.3,28l19,21.4L210.6,96.6z"/>
			</g>
			<g id="XMLID_2044_">
				<g id="XMLID_2053_">
					<polygon id="XMLID_2054_" class="st6" points="210.6,247 209.1,252.1 220,252 220.5,246.5 					"/>
				</g>
				<g id="XMLID_2050_">
					<g id="XMLID_2051_">
						<path id="XMLID_2052_" class="st16" d="M220.3,250.9c0,0-0.6,0.1-1.6,0.1c-1,0-2.4,0-3.9,0c-1.4,0-2.7-0.1-3.9-0.1
							c-1,0-1.6-0.1-1.6-0.1c0,0,0.6-0.1,1.6-0.1c1,0,2.4,0,3.9,0c1.4,0,2.7,0.1,3.9,0.1C219.6,250.9,220.3,250.9,220.3,250.9z"/>
					</g>
				</g>
				<g id="XMLID_2047_">
					<g id="XMLID_2048_">
						
							<ellipse id="XMLID_2049_" transform="matrix(5.532056e-002 -0.9985 0.9985 5.532056e-002 -44.7027 449.9248)" class="st16" cx="215.4" cy="248.6" rx="2.3" ry="0.2"/>
					</g>
				</g>
				<g id="XMLID_2045_" class="st19">
					<polyline id="XMLID_2046_" class="st5" points="209.1,252.1 220,252 220.1,250.9 209.2,250.8 209.1,252 					"/>
				</g>
			</g>
			<g id="XMLID_2042_">
				<path id="XMLID_2043_" class="st18" d="M219.6,46.1c-0.7,0.4,1.5,4.3,0.6,3.8c-1-0.6-2.2-5.1-2.9-4.6c-1,0.6,1.5,4.7,1.7,5
					c0.2,0.3-0.3,0.6-0.5,0.3c-0.2-0.5-2.5-5.4-3.5-4.9c-0.5,0.3,0.2,1.2,0.2,1.2s2.5,4.5,2.1,4.8c-0.5,0.3-2-2.3-2.5-3.2
					c-0.5-0.9-1.1-1.1-1.3-0.5c-0.2,0.4,1.2,3.2,1.7,4.1c0.5,0.9,1.9,3.3,0.2,2.6c-1.7-0.7-3.2-0.6-3.6-0.3c-0.4,0.3-0.1,1,0.5,0.9
					c0.4,0,1.2,0.2,1.8,0.4c0.5,0.1,0.9,0.4,1.3,0.6c0.3,0.2,0.6,0.5,0.9,0.7l0.5,0.4l9.5,23.3l-8.6,20l13.3,5l6-26.5L223,53.4l0,0
					c-0.6-2-1.5-3.9-1.9-5.1C220,45.9,219.8,46,219.6,46.1z"/>
			</g>
			<g id="XMLID_1957_">
				<g id="XMLID_1958_">
					<g id="XMLID_2033_">
						<g id="XMLID_2038_">
							<g id="XMLID_2039_">
								<g id="XMLID_2040_">
									<path id="XMLID_2041_" class="st6" d="M261.8,249.7l0-1.1l-11.3,0.3l0.1,3.7l0.7,0c3.1,0.1,15.9,0.2,17.9-0.5
										C271.4,251.4,261.8,249.7,261.8,249.7z"/>
								</g>
							</g>
						</g>
						<g id="XMLID_2034_" class="st19">
							<g id="XMLID_2035_">
								<g id="XMLID_2036_">
									<path id="XMLID_2037_" class="st5" d="M254.6,252.4c-0.2-0.9-0.7-1.7-1.5-2.2c-0.8-0.5-1.7-0.8-2.7-0.7l0.1,2.9
										L254.6,252.4z"/>
								</g>
							</g>
						</g>
					</g>
					<g id="XMLID_2029_" class="st19">
						<g id="XMLID_2030_">
							<g id="XMLID_2031_">
								<path id="XMLID_2032_" class="st5" d="M266.5,250.7c0,0,3.4,0.8,3,1.3c-0.4,0.5-13.3,0.9-19,0.6l0-0.2l15-0.3
									C265.6,252.1,265.9,250.7,266.5,250.7z"/>
							</g>
						</g>
					</g>
					<g id="XMLID_2024_">
						<g id="XMLID_2025_">
							<g id="XMLID_2026_">
								<g id="XMLID_2027_">
									<path id="XMLID_2028_" class="st16" d="M250.3,252.3c0,0,0.1,0,0.2,0c0.2,0,0.4,0,0.6,0c0.6,0,1.2,0,2.1,0
										c1.7,0,4.1,0,6.8-0.1c2.6-0.1,5-0.2,6.8-0.3c0.8-0.1,1.5-0.1,2-0.1c0.2,0,0.4,0,0.6,0c0.1,0,0.2,0,0.2,0s-0.1,0-0.2,0
										c-0.2,0-0.4,0-0.6,0c-0.6,0-1.2,0.1-2.1,0.1c-1.7,0.1-4.1,0.2-6.8,0.2c-2.6,0.1-5,0.1-6.8,0.1c-0.8,0-1.5,0-2.1,0
										c-0.2,0-0.4,0-0.6,0C250.4,252.3,250.3,252.3,250.3,252.3z"/>
								</g>
							</g>
						</g>
					</g>
					<g id="XMLID_2019_">
						<g id="XMLID_2020_">
							<g id="XMLID_2021_">
								<g id="XMLID_2022_">
									<path id="XMLID_2023_" class="st16" d="M265.6,252.2c0,0,0.1-0.5,0.4-0.9c0.3-0.5,0.7-0.7,0.7-0.7c0,0-0.5,0.2-0.8,0.7
										C265.5,251.7,265.5,252.2,265.6,252.2z"/>
								</g>
							</g>
						</g>
					</g>
					<g id="XMLID_2014_">
						<g id="XMLID_2015_">
							<g id="XMLID_2016_">
								<g id="XMLID_2017_">
									<path id="XMLID_2018_" class="st16" d="M262.2,250.7c0,0,0.2-0.2,0.3-0.4c0.2-0.2,0.3-0.5,0.2-0.5c0,0-0.2,0.2-0.3,0.4
										C262.2,250.5,262.1,250.7,262.2,250.7z"/>
								</g>
							</g>
						</g>
					</g>
					<g id="XMLID_2009_">
						<g id="XMLID_2010_">
							<g id="XMLID_2011_">
								<g id="XMLID_2012_">
									<path id="XMLID_2013_" class="st16" d="M261.3,250.3c0,0,0.2-0.1,0.4-0.3c0.2-0.2,0.3-0.3,0.3-0.3c0,0-0.2,0.1-0.4,0.3
										C261.4,250.1,261.2,250.3,261.3,250.3z"/>
								</g>
							</g>
						</g>
					</g>
					<g id="XMLID_2004_">
						<g id="XMLID_2005_">
							<g id="XMLID_2006_">
								<g id="XMLID_2007_">
									
										<ellipse id="XMLID_2008_" transform="matrix(0.9999 -1.584815e-002 1.584815e-002 0.9999 -3.9186 4.1714)" class="st16" cx="261.2" cy="249.3" rx="0.6" ry="0.1"/>
								</g>
							</g>
						</g>
					</g>
					<g id="XMLID_1999_">
						<g id="XMLID_2000_">
							<g id="XMLID_2001_">
								<g id="XMLID_2002_">
									<path id="XMLID_2003_" class="st16" d="M260.4,248.6c0,0,0.3,0.1,0.7,0.2c0.4,0,0.7-0.1,0.7-0.1c0,0-0.3,0-0.7,0
										C260.7,248.7,260.4,248.6,260.4,248.6z"/>
								</g>
							</g>
						</g>
					</g>
					<g id="XMLID_1994_">
						<g id="XMLID_1995_">
							<g id="XMLID_1996_">
								<g id="XMLID_1997_">
									<path id="XMLID_1998_" class="st16" d="M262.5,249.8c0,0,0.3,0,0.7,0c0.2,0,0.5-0.1,0.8-0.2c0.1-0.1,0.3-0.1,0.4-0.2
										c0.1,0,0.1-0.1,0.2-0.2c0-0.1,0-0.2-0.1-0.3c-0.7-0.3-1.4,0.1-1.6,0.4c-0.1,0.2-0.2,0.3-0.2,0.5c0,0.1,0,0.2,0,0.2
										c0,0,0-0.3,0.3-0.6c0.1-0.2,0.3-0.3,0.6-0.4c0.3-0.1,0.6-0.1,0.9,0c0.1,0.1,0.1,0.2,0,0.3c-0.1,0.1-0.3,0.1-0.4,0.2
										c-0.3,0.1-0.5,0.2-0.7,0.2C262.8,249.8,262.5,249.8,262.5,249.8z"/>
								</g>
							</g>
						</g>
					</g>
					<g id="XMLID_1989_">
						<g id="XMLID_1990_">
							<g id="XMLID_1991_">
								<g id="XMLID_1992_">
									<path id="XMLID_1993_" class="st16" d="M262.7,249.8c0,0,0.1-0.2,0.1-0.5c0-0.1-0.1-0.3-0.2-0.5c-0.1-0.1-0.3-0.3-0.6-0.3
										c-0.2,0-0.2,0.2-0.2,0.3c0,0.1,0.1,0.2,0.1,0.3c0.1,0.2,0.2,0.3,0.4,0.4C262.5,249.8,262.7,249.8,262.7,249.8
										c0,0-0.2-0.1-0.4-0.3c-0.1-0.1-0.2-0.2-0.3-0.4c-0.1-0.1-0.2-0.4,0-0.4c0.2,0,0.4,0.1,0.5,0.3c0.1,0.1,0.2,0.3,0.2,0.4
										C262.8,249.7,262.7,249.8,262.7,249.8z"/>
								</g>
							</g>
						</g>
					</g>
					<g id="XMLID_1984_">
						<g id="XMLID_1985_">
							<g id="XMLID_1986_">
								<g id="XMLID_1987_">
									<path id="XMLID_1988_" class="st16" d="M250.5,249.5c0,0,0.3,0,0.8,0c0.5,0,1.2,0.2,1.8,0.6c0.6,0.4,1,1,1.2,1.5
										c0.2,0.4,0.2,0.7,0.2,0.7c0,0,0-0.1,0-0.2c0-0.1-0.1-0.3-0.1-0.6c-0.2-0.5-0.5-1.1-1.2-1.5c-0.7-0.5-1.4-0.6-1.9-0.6
										c-0.3,0-0.5,0-0.6,0C250.6,249.4,250.5,249.4,250.5,249.5z"/>
								</g>
							</g>
						</g>
					</g>
					<g id="XMLID_1979_">
						<g id="XMLID_1980_">
							<g id="XMLID_1981_">
								<g id="XMLID_1982_">
									<path id="XMLID_1983_" class="st16" d="M256,251.3c0,0,0.7,0.1,1.7,0.1c0.9,0,1.7-0.1,1.6-0.2c0,0-0.7,0-1.6,0
										C256.7,251.3,256,251.3,256,251.3z"/>
								</g>
							</g>
						</g>
					</g>
					<g id="XMLID_1974_">
						<g id="XMLID_1975_">
							<g id="XMLID_1976_">
								<g id="XMLID_1977_">
									<path id="XMLID_1978_" class="st16" d="M253.8,251.4c0,0,0.1,0.1,0.1,0.3c0.1,0.2,0.1,0.3,0.2,0.3c0,0,0.1-0.2,0-0.3
										C254,251.4,253.8,251.3,253.8,251.4z"/>
								</g>
							</g>
						</g>
					</g>
					<g id="XMLID_1969_">
						<g id="XMLID_1970_">
							<g id="XMLID_1971_">
								<g id="XMLID_1972_">
									<path id="XMLID_1973_" class="st16" d="M252.9,250.4c0,0,0.1,0.1,0.2,0.2c0.1,0.1,0.2,0.2,0.3,0.1c0,0,0-0.1-0.2-0.2
										C253.1,250.5,252.9,250.4,252.9,250.4z"/>
								</g>
							</g>
						</g>
					</g>
					<g id="XMLID_1964_">
						<g id="XMLID_1965_">
							<g id="XMLID_1966_">
								<g id="XMLID_1967_">
									<path id="XMLID_1968_" class="st16" d="M251.7,250c0,0,0.2,0,0.3,0.1c0.2,0,0.3,0.1,0.3,0.1c0,0-0.1-0.2-0.3-0.2
										C251.9,249.9,251.7,250,251.7,250z"/>
								</g>
							</g>
						</g>
					</g>
					<g id="XMLID_1959_">
						<g id="XMLID_1960_">
							<g id="XMLID_1961_">
								<g id="XMLID_1962_">
									
										<ellipse id="XMLID_1963_" transform="matrix(0.3139 -0.9494 0.9494 0.3139 -65.0336 409.7801)" class="st16" cx="251" cy="249.9" rx="0.1" ry="0.2"/>
								</g>
							</g>
						</g>
					</g>
				</g>
			</g>
			<g id="XMLID_1894_">
				<g id="XMLID_1955_">
					<path id="XMLID_1956_" class="st6" d="M236.7,110.7l-3.1,16c6.4,8.9,7,16.6,7,16.6l-34.6,4c0-6.3,4.6-16.4,4.6-16.4l-5.6-19
						L195,99l10-9c-0.2,0.5,9.4,6,9.4,6l13.7,0.1c0,0,0.8,0.1,2,0.4l6.7-17.4c0,0,5.8,6.9,4.8,16.9
						C240.4,107.1,239.1,104.4,236.7,110.7"/>
				</g>
				<g id="XMLID_1952_">
					<g id="XMLID_1953_">
						<path id="XMLID_1954_" class="st4" d="M217.7,124.8c0,0,0,0.1-0.1,0.3c-0.1,0.2-0.3,0.4-0.5,0.7c-0.3,0.3-0.7,0.5-1.2,0.6
							c-0.3,0-0.6-0.1-0.8-0.2c-0.2-0.1-0.5-0.3-0.7-0.5c-0.4-0.3-0.9-0.4-1.4-0.4c-0.5,0-0.8,0.2-1.1,0.4c-0.6,0.4-0.7,0.9-0.7,0.9
							c0,0,0-0.5,0.6-1c0.3-0.3,0.7-0.5,1.2-0.5c0.5-0.1,1.1,0.1,1.6,0.4c0.5,0.3,0.8,0.7,1.3,0.7c0.4,0,0.8-0.2,1.1-0.5
							C217.4,125.2,217.7,124.8,217.7,124.8z"/>
					</g>
				</g>
				<g id="XMLID_1949_">
					<g id="XMLID_1950_">
						<path id="XMLID_1951_" class="st4" d="M234.8,135.5c0,0,0,0.1-0.1,0.3c-0.1,0.2-0.3,0.4-0.5,0.7c-0.3,0.3-0.7,0.5-1.2,0.6
							c-0.3,0-0.6-0.1-0.8-0.2c-0.2-0.1-0.5-0.3-0.7-0.5c-0.4-0.3-0.9-0.4-1.4-0.4c-0.5,0-0.8,0.2-1.1,0.4c-0.6,0.4-0.7,0.9-0.7,0.9
							c0,0,0-0.5,0.6-1c0.3-0.3,0.7-0.5,1.2-0.5c0.5-0.1,1.1,0.1,1.6,0.4c0.5,0.3,0.8,0.7,1.3,0.7c0.4,0,0.8-0.2,1.1-0.5
							C234.5,135.9,234.8,135.5,234.8,135.5z"/>
					</g>
				</g>
				<g id="XMLID_1946_">
					<g id="XMLID_1947_">
						<path id="XMLID_1948_" class="st4" d="M223.8,118.6c0,0,0.1,0.1,0.2,0.2c0.1,0.2,0.3,0.4,0.5,0.7c0.2,0.3,0.3,0.8,0.1,1.3
							c-0.1,0.3-0.3,0.5-0.5,0.7c-0.2,0.2-0.5,0.3-0.7,0.5c-0.4,0.3-0.7,0.7-0.9,1.2c-0.1,0.4-0.1,0.9,0,1.2c0.2,0.7,0.6,1,0.6,1
							c0,0-0.5-0.2-0.8-0.9c-0.1-0.4-0.2-0.8-0.1-1.3c0.1-0.5,0.5-1,1-1.3c0.5-0.3,0.9-0.6,1.1-1c0.1-0.4,0.1-0.9-0.1-1.2
							C224.1,119,223.8,118.6,223.8,118.6z"/>
					</g>
				</g>
				<g id="XMLID_1943_">
					<g id="XMLID_1944_">
						<path id="XMLID_1945_" class="st4" d="M225.5,133.9c0,0,0-0.1,0-0.3c0-0.2,0.1-0.5,0.2-0.9c0.1-0.3,0.4-0.8,0.9-1
							c0.2-0.1,0.5-0.2,0.8-0.1c0.3,0,0.5,0.1,0.8,0.2c0.5,0.1,1,0.1,1.4-0.1c0.4-0.2,0.7-0.5,0.9-0.8c0.3-0.6,0.3-1.1,0.3-1.1
							c0,0,0.2,0.5-0.2,1.2c-0.2,0.3-0.5,0.7-0.9,1c-0.5,0.2-1.1,0.3-1.6,0.2c-0.6-0.1-1-0.3-1.5-0.1c-0.4,0.2-0.7,0.5-0.8,0.8
							C225.6,133.4,225.6,133.9,225.5,133.9z"/>
					</g>
				</g>
				<g id="XMLID_1940_">
					<g id="XMLID_1941_">
						<path id="XMLID_1942_" class="st4" d="M227.7,142.1c0,0,0-0.1,0.2-0.3c0.1-0.2,0.3-0.4,0.7-0.6c0.3-0.2,0.8-0.4,1.3-0.3
							c0.3,0,0.5,0.2,0.7,0.4c0.2,0.2,0.4,0.4,0.6,0.6c0.4,0.4,0.8,0.6,1.3,0.7c0.5,0.1,0.9,0,1.2-0.2c0.6-0.3,0.9-0.8,0.9-0.7
							c0,0-0.1,0.5-0.8,0.9c-0.3,0.2-0.8,0.3-1.3,0.3c-0.5,0-1.1-0.3-1.5-0.7c-0.4-0.4-0.7-0.8-1.1-0.9c-0.4-0.1-0.9,0.1-1.2,0.2
							C228,141.8,227.7,142.1,227.7,142.1z"/>
					</g>
				</g>
				<g id="XMLID_1937_">
					<g id="XMLID_1938_">
						<path id="XMLID_1939_" class="st4" d="M209.1,142.7c0,0,0.1-0.1,0.2-0.2c0.2-0.1,0.4-0.3,0.8-0.4c0.4-0.1,0.9-0.2,1.3,0
							c0.2,0.1,0.5,0.3,0.6,0.5c0.2,0.2,0.3,0.5,0.4,0.7c0.2,0.5,0.6,0.8,1.1,1c0.4,0.2,0.9,0.2,1.2,0.1c0.7-0.2,1-0.5,1-0.5
							c0,0-0.2,0.4-1,0.7c-0.4,0.1-0.9,0.1-1.3-0.1c-0.5-0.2-1-0.6-1.2-1.1c-0.3-0.5-0.5-1-0.9-1.2c-0.4-0.2-0.8-0.2-1.2-0.1
							C209.5,142.4,209.1,142.7,209.1,142.7z"/>
					</g>
				</g>
				<g id="XMLID_1934_">
					<g id="XMLID_1935_">
						<path id="XMLID_1936_" class="st4" d="M228.3,114.4c0,0,0.1-0.1,0.3-0.1c0.2,0,0.5-0.1,0.9-0.1c0.4,0,0.9,0.2,1.2,0.5
							c0.2,0.2,0.3,0.5,0.4,0.7c0.1,0.3,0.1,0.6,0.1,0.8c0,0.5,0.3,1,0.6,1.3c0.3,0.3,0.7,0.5,1.1,0.6c0.7,0.1,1.1-0.1,1.1,0
							c0,0-0.4,0.3-1.2,0.2c-0.4,0-0.8-0.2-1.2-0.6c-0.4-0.4-0.7-0.9-0.7-1.5c0-0.6,0-1.1-0.3-1.4c-0.3-0.3-0.7-0.5-1.1-0.5
							C228.8,114.4,228.3,114.5,228.3,114.4z"/>
					</g>
				</g>
				<g id="XMLID_1931_">
					<g id="XMLID_1932_">
						<path id="XMLID_1933_" class="st4" d="M238.6,88.6c0,0,0.1,0.1,0.3,0.2c0.1,0.2,0.3,0.4,0.5,0.7c0.2,0.3,0.3,0.8,0.2,1.3
							c-0.1,0.3-0.2,0.5-0.4,0.7c-0.2,0.2-0.4,0.3-0.7,0.5c-0.4,0.3-0.7,0.8-0.8,1.2c-0.1,0.4-0.1,0.9,0.1,1.2
							c0.3,0.7,0.7,0.9,0.6,1c0,0-0.5-0.2-0.8-0.9c-0.2-0.3-0.3-0.8-0.1-1.3c0.1-0.5,0.4-1,0.9-1.4c0.5-0.3,0.9-0.6,1-1
							c0.1-0.4,0-0.9-0.1-1.2C238.8,89,238.5,88.7,238.6,88.6z"/>
					</g>
				</g>
				<g id="XMLID_1928_">
					<g id="XMLID_1929_">
						<path id="XMLID_1930_" class="st4" d="M221.8,111c0,0,0.1-0.1,0.3-0.1c0.2,0,0.5-0.1,0.9-0.1c0.4,0,0.9,0.2,1.2,0.5
							c0.2,0.2,0.3,0.5,0.4,0.7c0.1,0.3,0.1,0.6,0.1,0.8c0,0.5,0.3,1,0.6,1.3c0.3,0.3,0.7,0.5,1.1,0.6c0.7,0.1,1.1-0.1,1.1,0
							c0,0-0.4,0.3-1.2,0.2c-0.4,0-0.8-0.2-1.2-0.6c-0.4-0.4-0.7-0.9-0.7-1.5c0-0.6,0-1.1-0.3-1.4c-0.3-0.3-0.7-0.5-1.1-0.5
							C222.2,111,221.8,111.1,221.8,111z"/>
					</g>
				</g>
				<g id="XMLID_1925_">
					<g id="XMLID_1926_">
						<path id="XMLID_1927_" class="st4" d="M234.1,96.2c0,0,0.1-0.1,0.3-0.1c0.2,0,0.5-0.1,0.9-0.1c0.4,0,0.9,0.2,1.2,0.5
							c0.2,0.2,0.3,0.5,0.4,0.7c0.1,0.3,0.1,0.6,0.1,0.8c0,0.5,0.3,1,0.6,1.3c0.3,0.3,0.7,0.5,1.1,0.6c0.7,0.1,1.1-0.1,1.1,0
							c0,0-0.4,0.3-1.2,0.2c-0.4,0-0.8-0.2-1.2-0.6c-0.4-0.4-0.7-0.9-0.7-1.5c0-0.6,0-1.1-0.3-1.4c-0.3-0.3-0.7-0.5-1.1-0.5
							C234.6,96.2,234.1,96.3,234.1,96.2z"/>
					</g>
				</g>
				<g id="XMLID_1922_">
					<g id="XMLID_1923_">
						<path id="XMLID_1924_" class="st4" d="M209,114.6c0,0,0.1,0,0.3,0.1c0.2,0.1,0.5,0.2,0.7,0.5c0.3,0.3,0.6,0.6,0.6,1.2
							c0,0.3,0,0.6-0.2,0.8c-0.1,0.3-0.3,0.5-0.4,0.7c-0.3,0.4-0.4,1-0.3,1.4c0.1,0.5,0.3,0.8,0.5,1.1c0.5,0.5,0.9,0.6,0.9,0.7
							c0,0-0.5,0-1.1-0.5c-0.3-0.3-0.5-0.7-0.6-1.2c-0.1-0.5,0-1.1,0.4-1.6c0.3-0.5,0.6-0.9,0.6-1.3c0-0.4-0.3-0.8-0.5-1.1
							C209.4,114.8,209,114.6,209,114.6z"/>
					</g>
				</g>
				<g id="XMLID_1919_">
					<g id="XMLID_1920_">
						<path id="XMLID_1921_" class="st4" d="M202.9,99c0,0,0.1-0.1,0.3-0.1c0.2-0.1,0.5-0.1,0.9-0.1c0.4,0,0.9,0.1,1.3,0.5
							c0.2,0.2,0.3,0.5,0.4,0.7c0.1,0.3,0.1,0.6,0.1,0.8c0.1,0.5,0.3,1,0.6,1.3c0.3,0.3,0.7,0.5,1.1,0.5c0.7,0.1,1.1-0.1,1.1-0.1
							c0,0-0.4,0.3-1.2,0.3c-0.4,0-0.8-0.2-1.2-0.5c-0.4-0.3-0.7-0.9-0.8-1.5c-0.1-0.6-0.1-1.1-0.4-1.4c-0.3-0.3-0.7-0.4-1.1-0.5
							C203.4,98.9,202.9,99,202.9,99z"/>
					</g>
				</g>
				<g id="XMLID_1916_">
					<g id="XMLID_1917_">
						<path id="XMLID_1918_" class="st4" d="M203.8,92.4c0,0,0.1-0.1,0.3-0.1c0.2-0.1,0.5-0.1,0.9-0.1c0.4,0,0.9,0.1,1.3,0.5
							c0.2,0.2,0.3,0.5,0.4,0.7c0.1,0.3,0.1,0.6,0.1,0.8c0.1,0.5,0.3,1,0.6,1.3c0.3,0.3,0.7,0.5,1.1,0.5c0.7,0.1,1.1-0.1,1.1-0.1
							c0,0-0.4,0.3-1.2,0.3c-0.4,0-0.8-0.2-1.2-0.5c-0.4-0.3-0.7-0.9-0.8-1.5c-0.1-0.6-0.1-1.1-0.4-1.4c-0.3-0.3-0.7-0.4-1.1-0.5
							C204.3,92.4,203.8,92.5,203.8,92.4z"/>
					</g>
				</g>
				<g id="XMLID_1913_">
					<g id="XMLID_1914_">
						<path id="XMLID_1915_" class="st4" d="M203.7,107.8c0,0,0.1-0.1,0.3-0.1c0.2-0.1,0.5-0.1,0.9-0.1c0.4,0,0.9,0.1,1.3,0.5
							c0.2,0.2,0.3,0.5,0.4,0.7c0.1,0.3,0.1,0.6,0.1,0.8c0.1,0.5,0.3,1,0.6,1.3c0.3,0.3,0.7,0.5,1.1,0.5c0.7,0.1,1.1-0.1,1.1-0.1
							c0,0-0.4,0.3-1.2,0.3c-0.4,0-0.8-0.2-1.2-0.5c-0.4-0.3-0.7-0.9-0.8-1.5c-0.1-0.6-0.1-1.1-0.4-1.4c-0.3-0.3-0.7-0.4-1.1-0.5
							C204.1,107.7,203.7,107.8,203.7,107.8z"/>
					</g>
				</g>
				<g id="XMLID_1910_">
					<g id="XMLID_1911_">
						<path id="XMLID_1912_" class="st4" d="M199.3,97.7c0,0,0.1,0,0.3,0.1c0.2,0.1,0.5,0.2,0.7,0.5c0.3,0.3,0.6,0.6,0.6,1.2
							c0,0.3,0,0.6-0.2,0.8c-0.1,0.3-0.3,0.5-0.4,0.7c-0.3,0.4-0.4,1-0.3,1.4c0.1,0.5,0.3,0.8,0.5,1.1c0.5,0.5,0.9,0.6,0.9,0.7
							c0,0-0.5,0-1.1-0.5c-0.3-0.3-0.5-0.7-0.6-1.2c-0.1-0.5,0-1.1,0.4-1.6c0.3-0.5,0.6-0.9,0.6-1.3c0-0.4-0.3-0.8-0.5-1.1
							C199.7,98,199.3,97.8,199.3,97.7z"/>
					</g>
				</g>
				<g id="XMLID_1907_">
					<g id="XMLID_1908_">
						<path id="XMLID_1909_" class="st4" d="M227.4,122.9c0,0,0.1-0.1,0.3-0.1c0.2,0,0.5-0.1,0.9-0.1c0.4,0,0.9,0.2,1.2,0.5
							c0.2,0.2,0.3,0.5,0.4,0.7c0.1,0.3,0.1,0.6,0.1,0.8c0,0.5,0.3,1,0.6,1.3c0.3,0.3,0.7,0.5,1.1,0.6c0.7,0.1,1.1-0.1,1.1,0
							c0,0-0.4,0.3-1.2,0.2c-0.4,0-0.8-0.2-1.2-0.6c-0.4-0.4-0.7-0.9-0.7-1.5c0-0.6,0-1.1-0.3-1.4c-0.3-0.3-0.7-0.5-1.1-0.5
							C227.8,122.8,227.4,122.9,227.4,122.9z"/>
					</g>
				</g>
				<g id="XMLID_1904_">
					<g id="XMLID_1905_">
						<path id="XMLID_1906_" class="st4" d="M211.2,137.7c0,0,0-0.1,0.1-0.3c0.1-0.2,0.2-0.5,0.5-0.8c0.2-0.3,0.6-0.6,1.2-0.7
							c0.3,0,0.6,0,0.8,0.1c0.3,0.1,0.5,0.3,0.7,0.4c0.5,0.3,1,0.4,1.4,0.3c0.5-0.1,0.8-0.3,1.1-0.5c0.5-0.5,0.6-1,0.6-0.9
							c0,0,0,0.5-0.5,1.1c-0.3,0.3-0.7,0.6-1.2,0.6c-0.5,0.1-1.1,0-1.6-0.3c-0.5-0.3-0.9-0.6-1.4-0.5c-0.4,0-0.8,0.3-1,0.6
							C211.5,137.3,211.3,137.7,211.2,137.7z"/>
					</g>
				</g>
				<g id="XMLID_1901_">
					<g id="XMLID_1902_">
						<path id="XMLID_1903_" class="st4" d="M221.5,142.6c0,0-0.1-0.1-0.2-0.3c-0.1-0.2-0.2-0.5-0.2-0.9c0-0.4,0-0.9,0.3-1.3
							c0.2-0.2,0.4-0.4,0.7-0.5c0.3-0.1,0.5-0.1,0.8-0.2c0.5-0.1,0.9-0.4,1.2-0.8c0.3-0.4,0.4-0.8,0.4-1.1c0-0.7-0.3-1.1-0.2-1.1
							c0,0,0.4,0.3,0.4,1.1c0,0.4-0.1,0.9-0.4,1.3c-0.3,0.4-0.8,0.8-1.4,0.9c-0.6,0.1-1.1,0.2-1.3,0.6c-0.3,0.3-0.4,0.8-0.3,1.1
							C221.3,142.1,221.5,142.6,221.5,142.6z"/>
					</g>
				</g>
				<g id="XMLID_1898_">
					<g id="XMLID_1899_">
						<path id="XMLID_1900_" class="st4" d="M215.4,131c0,0,0.1-0.1,0.2-0.2c0.2-0.1,0.4-0.3,0.7-0.5c0.3-0.2,0.8-0.3,1.3-0.2
							c0.3,0.1,0.5,0.2,0.7,0.5c0.2,0.2,0.3,0.5,0.5,0.7c0.3,0.4,0.7,0.7,1.2,0.8c0.4,0.1,0.9,0.1,1.2,0c0.7-0.2,0.9-0.6,1-0.6
							c0,0-0.2,0.5-0.9,0.8c-0.3,0.2-0.8,0.2-1.3,0.1c-0.5-0.1-1-0.4-1.4-0.9c-0.3-0.5-0.6-0.9-1-1c-0.4-0.1-0.9,0-1.2,0.1
							C215.8,130.7,215.5,131,215.4,131z"/>
					</g>
				</g>
				<g id="XMLID_1895_">
					<g id="XMLID_1896_">
						<path id="XMLID_1897_" class="st4" d="M213.4,118c0,0,0.1-0.1,0.2-0.3c0.1-0.1,0.4-0.3,0.7-0.5c0.3-0.2,0.8-0.3,1.3-0.2
							c0.3,0.1,0.5,0.2,0.7,0.4c0.2,0.2,0.3,0.4,0.5,0.7c0.3,0.4,0.8,0.7,1.2,0.8c0.4,0.1,0.9,0,1.2-0.1c0.7-0.3,0.9-0.7,1-0.6
							c0,0-0.2,0.5-0.9,0.8c-0.3,0.2-0.8,0.3-1.3,0.2c-0.5-0.1-1-0.4-1.4-0.9c-0.3-0.5-0.6-0.9-1-1c-0.4-0.1-0.9,0-1.2,0.1
							C213.8,117.7,213.5,118.1,213.4,118z"/>
					</g>
				</g>
			</g>
			<g id="XMLID_1863_">
				<g id="XMLID_1889_">
					<g id="XMLID_1892_">
						<path id="XMLID_1893_" class="st16" d="M215,69.2c-2.9,1.3-4,4.5-4.3,7.4c-0.3,2.9,0,6-1.1,8.7c-0.9,2.3-2.9,4.4-2.7,6.9
							c0.2,1.8,1.5,3.5,1.8,5.3c0.5,3.5-3.3,6.7-2.6,10.2c0.3,1.6,1.5,3,3,3.9c1.5,1,3.2,1.5,4.9,2.1c2.3,0.8,4.8,1.5,7.1,0.7
							c2-0.7,3.4-2.5,5.4-3.1c2-0.5,4.1,0.3,6.2,0.4c1.9,0,3.8-0.6,5.1-1.9c1.2-1.3,1.7-3.2,1.1-4.8c-0.9-2.3-3.8-3.7-4.2-6.1
							c-0.4-2.2,1.4-4.3,0.8-6.4c-0.6-2.4-3.8-3.6-4.6-6c-0.9-2.8,2-5.8,0.9-8.5c-0.7-1.6-2.6-2.6-3.1-4.3c-0.4-1.1,0-2.4-0.2-3.5
							c-0.4-2-2.7-3.3-4.9-3.7c-2.7-0.6-5.6-0.2-7.9,1.1c-2.3,1.3-3.9,3.6-4.1,6.1"/>
					</g>
					<g id="XMLID_1890_">
						<path id="XMLID_1891_" class="st16" d="M219.3,67.2c2.6-1,5.7-0.8,8.1,0.6c2.5,1.4,4.3,3.8,4.8,6.6c0.4,2.2,0.1,4.6,1.1,6.7
							c1,2.2,3.5,3.8,3.9,6.2c0.4,2.3-1.4,4.5-1.8,6.8c-0.4,2.4,0.8,4.9,0.5,7.4c-0.3,2.4-2.1,4.6-4.4,5.4c-2.3,0.7-5.1,0-6.7-1.8"
							/>
					</g>
				</g>
				<g id="XMLID_1887_">
					<path id="XMLID_1888_" class="st16" d="M226.9,72.2c0.2-1.7,1.3-3.3,2.8-4.2c1.5-0.9,3.4-1,5-0.4c0.9,0.4,1.8,1,2.2,1.9
						c0.6,1.1,0.5,2.3,0.2,3.5c-0.5,1.8-1.8,3.4-3.5,4.1c-1.7,0.7-3.8,0.5-5.2-0.6c-1.4-1.2-2-3.3-1.2-5"/>
				</g>
				<g id="XMLID_1884_">
					<g id="XMLID_1885_">
						<path id="XMLID_1886_" class="st6" d="M231.2,77.2c0,0-0.2,0-0.5,0.1c-0.3,0-0.8,0.1-1.4,0c-0.6,0-1.3-0.1-2.1-0.5
							c-0.7-0.3-1.5-1-1.8-1.8c-0.4-0.9-0.4-1.8-0.2-2.6c0.2-0.8,0.6-1.4,1-1.9c0.4-0.5,0.8-0.8,1-1c0.3-0.2,0.4-0.3,0.5-0.3
							c0,0-0.6,0.4-1.3,1.4c-0.3,0.5-0.7,1.1-0.9,1.8c-0.2,0.7-0.1,1.6,0.2,2.4c0.3,0.8,1,1.4,1.7,1.7c0.7,0.3,1.4,0.4,2,0.5
							C230.4,77.2,231.2,77.1,231.2,77.2z"/>
					</g>
				</g>
				<g id="XMLID_1881_">
					<g id="XMLID_1882_">
						<path id="XMLID_1883_" class="st17" d="M231.8,76.6c0,0-0.4,0.4-0.6,1.4c-0.1,0.5-0.2,1.1-0.1,1.8c0.1,0.7,0.3,1.5,0.6,2.3
							c0.3,0.8,0.8,1.7,1.3,2.6c0.5,0.9,1,2,1.2,3.2c0.2,1.2,0.1,2.6-0.6,3.7c-0.7,1.1-1.9,2.1-3.4,2.3l-0.2,0l0-0.2
							c0-0.7,0.1-1.5,0.1-2.2l0.3,0.1c-0.2,0.4-0.5,0.8-0.8,1.1c-0.7,0.6-1.7,0.9-2.6,0.7l-0.2,0l0.1-0.2c0.7-1.3,1.3-2.6,1.5-3.9
							c0.1-0.7,0.1-1.3-0.1-1.9c-0.1-0.6-0.4-1.2-0.8-1.7c-0.7-1-1.6-1.8-2.2-2.7c-0.6-0.9-1-1.9-1.2-2.8c-0.4-1.9-0.1-3.4,0.3-4.4
							c0.4-1,0.7-1.4,0.7-1.4c0,0-0.3,0.5-0.6,1.5c-0.3,1-0.6,2.5-0.2,4.3c0.2,0.9,0.6,1.9,1.2,2.7c0.6,0.9,1.5,1.7,2.2,2.7
							c0.4,0.5,0.7,1.1,0.9,1.8c0.2,0.7,0.2,1.4,0.1,2c-0.2,1.4-0.8,2.7-1.5,4L227,93c0.8,0.2,1.7,0,2.4-0.6c0.3-0.3,0.6-0.6,0.7-1
							l0.3-0.8l-0.1,0.9c0,0.8-0.1,1.5-0.1,2.2l-0.2-0.2c1.3-0.3,2.5-1.1,3.2-2.2c0.7-1.1,0.8-2.4,0.6-3.5c-0.2-1.2-0.7-2.2-1.2-3.1
							c-0.5-0.9-0.9-1.8-1.2-2.7c-0.3-0.8-0.5-1.6-0.6-2.3c-0.1-0.7,0-1.3,0.2-1.8c0.1-0.5,0.3-0.8,0.5-1
							C231.7,76.7,231.8,76.6,231.8,76.6z"/>
					</g>
				</g>
				<g id="XMLID_1878_">
					<g id="XMLID_1879_">
						<path id="XMLID_1880_" class="st17" d="M233.8,67.6c0,0,0.1,0.1,0.2,0.4c0.1,0.3,0.1,0.7,0.2,1.3c0.1,1.1-0.2,2.6-1,4
							c-0.8,1.4-2.1,2.4-3,2.9c-0.5,0.2-0.9,0.4-1.2,0.5c-0.3,0.1-0.5,0.1-0.5,0.1c0-0.1,0.6-0.2,1.5-0.7c0.9-0.5,2.1-1.5,2.9-2.8
							c0.8-1.4,1-2.9,1-3.9C233.9,68.2,233.8,67.6,233.8,67.6z"/>
					</g>
				</g>
				<g id="XMLID_1875_">
					<g id="XMLID_1876_">
						<path id="XMLID_1877_" class="st17" d="M232.2,74.7c0,0-0.4,0.1-1.2,0c-0.7-0.1-1.7-0.4-2.6-1.1c-0.9-0.7-1.4-1.7-1.6-2.4
							c-0.2-0.7-0.2-1.2-0.2-1.2c0,0,0.1,0.4,0.4,1.1c0.3,0.7,0.8,1.5,1.6,2.2c0.8,0.7,1.8,1,2.4,1.2
							C231.8,74.6,232.2,74.6,232.2,74.7z"/>
					</g>
				</g>
				<g id="XMLID_1872_">
					<g id="XMLID_1873_">
						<path id="XMLID_1874_" class="st17" d="M220.3,114.5c0,0,0.8-0.2,1.8-1.1c1-0.9,2.3-2.5,2.7-4.9c0.4-2.4-0.1-5.4-1.7-8.2
							c-0.8-1.4-1.9-2.7-2.9-4.1c-0.5-0.7-1-1.5-1.4-2.3c-0.4-0.8-0.6-1.8-0.7-2.7c-0.1-1.9,0.4-3.7,1.1-5.4
							c0.7-1.6,1.5-3.1,2.3-4.6c0.7-1.4,1.3-2.9,1.5-4.3c0.3-1.4,0.2-2.7-0.1-3.9c-0.5-2.4-1.7-4.1-2.6-5c-1-1-1.7-1.3-1.6-1.3
							c0,0,0,0,0.1,0.1c0.1,0.1,0.2,0.1,0.4,0.2c0.3,0.2,0.7,0.5,1.2,1c1,1,2.2,2.7,2.7,5.1c0.3,1.2,0.4,2.6,0.1,4
							c-0.2,1.4-0.8,2.9-1.5,4.4c-0.7,1.5-1.6,2.9-2.2,4.5c-0.7,1.6-1.2,3.4-1.1,5.2c0.1,1.8,1,3.5,2,4.9c1,1.4,2.1,2.7,2.9,4.2
							c1.6,2.8,2.1,5.9,1.6,8.4c-0.5,2.4-1.8,4.1-2.8,5c-0.5,0.4-1,0.7-1.4,0.8c-0.2,0.1-0.3,0.1-0.4,0.1
							C220.4,114.5,220.3,114.5,220.3,114.5z"/>
					</g>
				</g>
				<g id="XMLID_1869_">
					<g id="XMLID_1870_">
						<path id="XMLID_1871_" class="st17" d="M215.5,114.2C215.5,114.2,215.5,114.2,215.5,114.2c-0.2-0.1-0.2-0.2-0.4-0.3
							c-0.2-0.3-0.5-0.6-0.7-1.2c-0.2-0.6-0.4-1.3-0.3-2.2c0.1-0.9,0.5-1.9,1.3-2.7c0.8-0.8,2-1.2,3.1-1.9c0.5-0.3,1-0.8,1.4-1.3
							c0.3-0.6,0.4-1.3,0.3-2c-0.2-1.4-1-2.8-2-3.9c-1.1-1.1-2.4-2.2-3.3-3.6c-0.5-0.7-0.8-1.5-1-2.3c-0.1-0.8-0.1-1.7,0-2.4
							c0.2-1.6,0.8-3,1.3-4.4c0.5-1.3,1-2.6,1.2-3.9c0.2-1.3,0.1-2.5-0.3-3.5c-0.2-0.5-0.5-0.9-0.8-1.3c-0.3-0.4-0.7-0.7-1-0.9
							c-0.7-0.5-1.3-1-1.7-1.4c-0.4-0.5-0.6-0.9-0.7-1.2c-0.1-0.3,0-0.5,0-0.5c0,0,0,0.2,0.1,0.5c0.1,0.3,0.3,0.7,0.7,1.2
							c0.4,0.4,1,0.9,1.7,1.4c0.3,0.3,0.7,0.6,1.1,0.9c0.3,0.4,0.6,0.8,0.8,1.4c0.4,1,0.6,2.3,0.4,3.6c-0.2,1.3-0.6,2.6-1.2,4
							c-0.5,1.4-1.1,2.8-1.3,4.3c-0.1,0.8-0.1,1.6,0,2.4c0.1,0.8,0.5,1.5,0.9,2.2c0.9,1.4,2.2,2.4,3.3,3.6c1.1,1.2,1.9,2.6,2.1,4.1
							c0.1,0.7,0,1.5-0.4,2.1c-0.3,0.6-0.9,1.1-1.5,1.4c-1.1,0.7-2.3,1-3.1,1.8c-0.8,0.8-1.1,1.7-1.2,2.6c-0.1,0.9,0,1.6,0.2,2.2
							C215,113.8,215.6,114.2,215.5,114.2z"/>
					</g>
				</g>
				<g id="XMLID_1864_">
					<g id="XMLID_1865_">
						<path id="XMLID_1866_" class="st17" d="M231.6,110.2c0,0-0.1-0.1-0.2-0.3c-0.1-0.2-0.2-0.5-0.3-0.8c-0.1-0.4-0.1-0.8-0.1-1.4
							c0-0.5,0.1-1.1,0.3-1.8c0.1-0.7,0.3-1.4,0.4-2.1c0.1-0.4,0.1-0.8,0.1-1.2c0-0.4-0.1-0.8-0.2-1.2c-0.2-0.8-0.7-1.6-1.3-2.4
							c-0.6-0.7-1.3-1.4-2.1-2.1c-0.7-0.7-1.5-1.4-2.1-2.1c-0.6-0.7-1.1-1.6-1.5-2.4c-0.6-1.7-0.5-3.4-0.2-4.7
							c0.3-1.3,0.6-2.4,0.9-3.1c0.1-0.4,0.2-0.6,0.3-0.8c0.1-0.2,0.1-0.3,0.1-0.3c0,0,0,0.1-0.1,0.3c-0.1,0.2-0.1,0.5-0.2,0.8
							c-0.2,0.7-0.5,1.8-0.8,3.1c-0.2,1.3-0.3,2.9,0.3,4.6c0.6,1.6,2,3,3.5,4.4c0.7,0.7,1.5,1.4,2.1,2.1c0.6,0.8,1.1,1.6,1.3,2.5
							c0.1,0.4,0.2,0.9,0.2,1.3c0,0.4,0,0.8-0.1,1.2c-0.1,0.8-0.3,1.5-0.5,2.2c-0.1,0.7-0.3,1.2-0.3,1.8c0,0.5,0,1,0,1.3
							C231.4,109.9,231.7,110.2,231.6,110.2z"/>
					</g>
				</g>
			</g>
		</g>
	</g>
</g>
</svg>
