<?xml version="1.0" encoding="utf-8"?>
<!-- Generator: Adobe Illustrator 19.2.1, SVG Export Plug-In . SVG Version: 6.00 Build 0)  -->
<svg version="1.1" id="Layer_1" xmlns="http://www.w3.org/2000/svg" xmlns:xlink="http://www.w3.org/1999/xlink" x="0px" y="0px"
	 viewBox="0 0 393.7 281.7" style="enable-background:new 0 0 393.7 281.7;" xml:space="preserve">
<style type="text/css">
	.st0{fill:#C9152C;}
	.st1{fill:#E9E8E8;}
	.st2{fill:#F2F2F2;}
	.st3{fill:#FAFAFB;}
	.st4{fill:#FDFDFE;}
	.st5{fill:#FFFFFF;}
	.st6{fill:#E94655;}
	.st7{opacity:0.7;}
	.st8{opacity:0.5;}
	.st9{opacity:0.3;}
	.st10{opacity:0.1;}
	.st11{opacity:0.2;}
	.st12{fill:#12100B;}
	.st13{opacity:0.4;}
	.st14{fill:#433C6D;}
	.st15{fill:#635990;}
	.st16{fill:#233237;}
	.st17{fill:#3A5965;}
	.st18{fill:#FAC5A5;}
	.st19{opacity:0.6;}
</style>
<g id="XMLID_668_">
	<rect id="XMLID_1303_" class="st0" width="393.7" height="281.7"/>
	<g id="XMLID_669_">
		<g id="XMLID_1226_">
			<g id="XMLID_1300_">
				<g id="XMLID_1301_">
					
						<ellipse id="XMLID_1302_" transform="matrix(0.9491 -0.3151 0.3151 0.9491 -21.8423 103.7027)" class="st1" cx="309.8" cy="119.4" rx="3.2" ry="0.1"/>
				</g>
			</g>
			<g id="XMLID_1227_">
				<g id="XMLID_1298_">
					<polygon id="XMLID_1299_" class="st1" points="236.9,227.3 236.9,252.1 240.2,252.1 244.6,227 					"/>
				</g>
				<g id="XMLID_1296_">
					<polygon id="XMLID_1297_" class="st1" points="267.1,227.3 267.1,252.1 270.4,252.1 274.8,227 					"/>
				</g>
				<g id="XMLID_1294_">
					<polygon id="XMLID_1295_" class="st1" points="304.8,227.3 304.8,252.1 301.5,252.1 297,227 					"/>
				</g>
				<g id="XMLID_1292_">
					<polygon id="XMLID_1293_" class="st1" points="326,227.3 326,252.1 322.7,252.1 318.2,227 					"/>
				</g>
				<g id="XMLID_1290_">
					<path id="XMLID_1291_" class="st1" d="M257.6,172.7c0,0-13.1-3.8-16.7,1.3c-3.6,5-4,53.7-4,53.7s23.4,0.4,23.9,0
						C261.1,227.2,257.6,172.7,257.6,172.7z"/>
				</g>
				<g id="XMLID_1288_">
					<path id="XMLID_1289_" class="st2" d="M325.4,218.8l0.6-84.3c0.1-10.9-8.7-19.7-19.6-19.7l-30.9,0c-10.8,0-19.5,8.9-19.3,19.7
						l2,84.2H325.4z"/>
				</g>
				<g id="XMLID_1286_">
					<path id="XMLID_1287_" class="st2" d="M325.4,218.8c0,0-11.9-17.6-25.9-18.2c-14-0.6-44.2,0-44.2,0s-13.4,0.5-14.3,17.1v9.8
						h84.5V218.8z"/>
				</g>
				<g id="XMLID_1283_">
					<g id="XMLID_1284_">
						<path id="XMLID_1285_" class="st1" d="M297.9,201.1c-11.6-0.1-23.1-0.1-34.7-0.2c-3.6,0-7.7-0.5-11.3,0.5
							c-10.3,2.9-11.9,16.2-11,25.3c0,0.4-0.5,0.4-0.6,0c-0.7-7.6,0.1-18.4,6.7-23.5c3.8-2.9,8.2-3,12.7-3
							c12.7,0.1,25.5,0.1,38.2,0.2C298.3,200.5,298.3,201.1,297.9,201.1L297.9,201.1z"/>
					</g>
				</g>
				<g id="XMLID_1280_">
					<g id="XMLID_1281_">
						<path id="XMLID_1282_" class="st1" d="M265.6,117.5c0,0,0.3-0.1,0.9-0.3c0.3-0.1,0.7-0.1,1.1-0.2c0.4,0,1-0.1,1.5-0.2
							c2.3-0.2,5.6-0.3,9.8-0.3c2.1,0,4.3,0,6.8,0c2.4,0.1,5,0,7.7,0.4c1.4,0.2,2.7,0.4,4.1,0.7c1.4,0.3,2.8,0.8,4.1,1.5
							c1.3,0.7,2.5,1.7,3.6,2.7c1.1,1.1,2.1,2.3,2.8,3.7c0.4,0.7,0.7,1.4,0.9,2.2c0.2,0.8,0.3,1.6,0.4,2.3c0.2,1.5,0.3,3,0.5,4.5
							c0.3,3,0.5,5.8,0.7,8.5c0.3,5.4,0.5,10.4,0.6,14.5c0.1,4.1,0.1,7.5,0.2,9.8c0,1.1,0,2,0,2.7c0,0.3,0,0.5,0,0.7
							c0,0.2,0,0.2,0,0.2c0,0,0-0.1,0-0.2c0-0.2,0-0.4,0-0.7c0-0.6,0-1.5-0.1-2.7c-0.1-2.3-0.1-5.7-0.3-9.8c-0.1-4.1-0.3-9-0.7-14.5
							c-0.2-2.7-0.4-5.6-0.7-8.5c-0.1-1.5-0.3-3-0.5-4.5c-0.1-0.8-0.1-1.5-0.3-2.3c-0.2-0.7-0.5-1.5-0.8-2.2
							c-0.7-1.4-1.7-2.6-2.8-3.7c-1.1-1.1-2.3-2-3.6-2.7c-1.3-0.7-2.7-1.1-4.1-1.5c-1.4-0.3-2.8-0.6-4.1-0.7
							c-2.7-0.4-5.3-0.3-7.7-0.4c-2.4,0-4.7-0.1-6.7-0.1c-4.1,0-7.5,0.1-9.8,0.2c-0.6,0-1.1,0.1-1.5,0.1c-0.4,0.1-0.8,0.1-1.1,0.2
							c-0.3,0.1-0.5,0.1-0.7,0.2C265.7,117.5,265.7,117.5,265.6,117.5z"/>
					</g>
				</g>
				<g id="XMLID_1277_">
					<g id="XMLID_1278_">
						
							<ellipse id="XMLID_1279_" transform="matrix(0.9434 -0.3317 0.3317 0.9434 -28.8941 111.6658)" class="st1" cx="312.7" cy="140.5" rx="2.5" ry="0.1"/>
					</g>
				</g>
				<g id="XMLID_1274_">
					<g id="XMLID_1275_">
						
							<ellipse id="XMLID_1276_" transform="matrix(4.455550e-002 -0.999 0.999 4.455550e-002 153.2384 449.0937)" class="st1" cx="311.4" cy="144.4" rx="0.1" ry="1.1"/>
					</g>
				</g>
				<g id="XMLID_1261_">
					<g id="XMLID_1271_">
						<g id="XMLID_1272_">
							<path id="XMLID_1273_" class="st1" d="M292.7,142.9c0,0,0.1-0.1,0.3-0.1c0.2,0,0.6,0.1,0.9,0.3c0.3,0.2,0.6,0.8,0.4,1.3
								c-0.1,0.5-0.6,1-1.3,1.1c-0.7,0-1.2-0.4-1.4-0.9c-0.2-0.5-0.1-1.1,0.1-1.4c0.2-0.3,0.5-0.5,0.7-0.6c0.2-0.1,0.3-0.1,0.3-0.1
								c0,0-0.5,0.1-0.9,0.8c-0.2,0.3-0.2,0.8,0,1.2c0.2,0.4,0.7,0.7,1.2,0.7c0.5,0,0.9-0.4,1.1-0.9c0.1-0.4-0.1-0.9-0.3-1.1
								c-0.3-0.2-0.5-0.3-0.7-0.4C292.8,142.9,292.7,142.9,292.7,142.9z"/>
						</g>
					</g>
					<g id="XMLID_1268_">
						<g id="XMLID_1269_">
							<path id="XMLID_1270_" class="st1" d="M293.8,135.1c0,0-0.4,0.3-0.9,1c-0.5,0.6-1.1,1.6-1.3,2.8c-0.2,1.2,0,2.3,0.2,3
								c0.3,0.8,0.5,1.2,0.5,1.2c0,0-0.4-0.4-0.7-1.1c-0.3-0.8-0.6-1.9-0.3-3.2c0.2-1.3,0.9-2.3,1.4-2.9
								C293.3,135.3,293.8,135,293.8,135.1z"/>
						</g>
					</g>
					<g id="XMLID_1265_">
						<g id="XMLID_1266_">
							<path id="XMLID_1267_" class="st1" d="M293,153.8c0,0-0.4-0.4-0.9-1.2c-0.4-0.8-0.9-2-1-3.3c-0.1-0.7-0.1-1.3,0-1.9
								c0.1-0.6,0.3-1.1,0.6-1.5c0.3-0.4,0.6-0.5,0.9-0.6c0.3-0.1,0.4,0,0.4,0c0,0-0.6,0.1-1.1,0.8c-0.5,0.7-0.6,2-0.5,3.3
								c0.1,1.3,0.6,2.5,0.9,3.3C292.7,153.3,293.1,153.8,293,153.8z"/>
						</g>
					</g>
					<g id="XMLID_1262_">
						<g id="XMLID_1263_">
							<path id="XMLID_1264_" class="st1" d="M288.2,143.9c-0.1-0.1,0.5-0.6,1.5-0.6c0.9,0,1.5,0.5,1.5,0.6c0,0.1-0.6-0.3-1.5-0.3
								C288.9,143.6,288.3,144,288.2,143.9z"/>
						</g>
					</g>
				</g>
				<g id="XMLID_1248_">
					<g id="XMLID_1258_">
						<g id="XMLID_1259_">
							<path id="XMLID_1260_" class="st1" d="M273,142.9c0,0,0.1-0.1,0.3-0.1c0.2,0,0.6,0.1,0.9,0.3c0.3,0.2,0.6,0.8,0.4,1.3
								c-0.1,0.5-0.6,1-1.3,1.1c-0.7,0-1.2-0.4-1.4-0.9c-0.2-0.5-0.1-1.1,0.1-1.4c0.2-0.3,0.5-0.5,0.7-0.6c0.2-0.1,0.3-0.1,0.3-0.1
								c0,0-0.5,0.1-0.9,0.8c-0.2,0.3-0.2,0.8,0,1.2c0.2,0.4,0.7,0.7,1.2,0.7c0.5,0,0.9-0.4,1.1-0.9c0.1-0.4-0.1-0.9-0.3-1.1
								c-0.3-0.2-0.5-0.3-0.7-0.4C273.1,142.9,273,142.9,273,142.9z"/>
						</g>
					</g>
					<g id="XMLID_1255_">
						<g id="XMLID_1256_">
							<path id="XMLID_1257_" class="st1" d="M274.1,135.1c0,0-0.4,0.3-0.9,1c-0.5,0.6-1.1,1.6-1.3,2.8c-0.2,1.2,0,2.3,0.2,3
								c0.3,0.8,0.5,1.2,0.5,1.2c0,0-0.4-0.4-0.7-1.1c-0.3-0.8-0.6-1.9-0.3-3.2c0.2-1.3,0.9-2.3,1.4-2.9
								C273.6,135.3,274.1,135,274.1,135.1z"/>
						</g>
					</g>
					<g id="XMLID_1252_">
						<g id="XMLID_1253_">
							<path id="XMLID_1254_" class="st1" d="M273.3,153.8c0,0-0.4-0.4-0.9-1.2c-0.4-0.8-0.9-2-1-3.3c-0.1-0.7-0.1-1.3,0-1.9
								c0.1-0.6,0.3-1.1,0.6-1.5c0.3-0.4,0.6-0.5,0.9-0.6c0.3-0.1,0.4,0,0.4,0c0,0-0.6,0.1-1.1,0.8c-0.5,0.7-0.6,2-0.5,3.3
								c0.1,1.3,0.6,2.5,0.9,3.3C273.1,153.3,273.4,153.8,273.3,153.8z"/>
						</g>
					</g>
					<g id="XMLID_1249_">
						<g id="XMLID_1250_">
							<path id="XMLID_1251_" class="st1" d="M268.6,143.9c-0.1-0.1,0.5-0.6,1.5-0.6c0.9,0,1.5,0.5,1.5,0.6c0,0.1-0.6-0.3-1.5-0.3
								C269.2,143.6,268.6,144,268.6,143.9z"/>
						</g>
					</g>
				</g>
				<g id="XMLID_1243_">
					<g id="XMLID_1246_">
						<path id="XMLID_1247_" class="st3" d="M325,172.2c0,0-20.1-5.2-23.7,1.6c-3.6,6.8-4.3,53.9-4.3,53.9s29,1.1,29-0.2
							C326.2,226.3,325,172.2,325,172.2z"/>
					</g>
					<g id="XMLID_1244_">
						<path id="XMLID_1245_" class="st2" d="M326.1,172c0,0-13.3-3.4-16.9,1.6c-3.6,5-4.6,54.3-4.6,54.3s21.2,0.6,21.6,0.2
							C326.7,227.7,326.1,172,326.1,172z"/>
					</g>
				</g>
				<g id="XMLID_1240_">
					<g id="XMLID_1241_">
						<path id="XMLID_1242_" class="st1" d="M318.3,196.5c0,0,0.1-0.1,0.2-0.1c0.2,0,0.5,0.1,0.6,0.4c0.1,0.3,0.2,0.7,0.1,1.1
							c0,0.2-0.1,0.5-0.3,0.6c-0.2,0.2-0.5,0.3-0.8,0.2c-0.4-0.1-0.7-0.4-0.8-0.7c-0.1-0.3-0.1-0.6,0-0.9c0.2-0.5,0.6-0.8,0.8-0.9
							l0,0.1c-0.2-0.1-0.3-0.2-0.3-0.2s0.1,0,0.4,0.1l0.1,0l-0.1,0.1c-0.2,0.2-0.5,0.4-0.7,0.9c-0.1,0.2-0.1,0.5,0,0.7
							c0.1,0.2,0.3,0.4,0.6,0.5c0.4,0.1,0.7-0.2,0.8-0.6c0.1-0.4,0-0.7,0-1c-0.1-0.3-0.3-0.4-0.5-0.4
							C318.4,196.5,318.3,196.5,318.3,196.5z"/>
					</g>
				</g>
				<g id="XMLID_1237_">
					<g id="XMLID_1238_">
						<path id="XMLID_1239_" class="st1" d="M314.6,187.6c0,0,0.4,0.4,0.8,1.2c0.5,0.8,1.1,1.9,1.6,3.1c0.5,1.3,0.9,2.4,1.2,3.3
							c0.2,0.9,0.4,1.4,0.3,1.4c0,0-0.2-0.5-0.5-1.4c-0.3-0.8-0.7-2-1.3-3.3c-0.5-1.3-1.1-2.4-1.5-3.1
							C314.8,188.1,314.5,187.6,314.6,187.6z"/>
					</g>
				</g>
				<g id="XMLID_1234_">
					<g id="XMLID_1235_">
						<path id="XMLID_1236_" class="st1" d="M322.5,188.4c0,0-0.2,0.5-0.5,1.2c-0.3,0.7-0.8,1.8-1.3,2.9c-0.5,1.2-0.9,2.2-1.2,3
							c-0.3,0.8-0.5,1.2-0.5,1.2c0,0,0.1-0.5,0.4-1.3c0.3-0.8,0.7-1.9,1.2-3c0.5-1.2,1-2.2,1.4-2.9
							C322.2,188.8,322.4,188.4,322.5,188.4z"/>
					</g>
				</g>
				<g id="XMLID_1231_">
					<g id="XMLID_1232_">
						<path id="XMLID_1233_" class="st1" d="M314.6,212.6c0,0,0-0.2,0-0.6c0-0.4,0.1-0.9,0.2-1.5c0.2-1.3,0.5-3.1,1-5
							c0.4-1.9,0.9-3.7,1.3-5c0.2-0.6,0.3-1.1,0.5-1.5c0.1-0.3,0.2-0.5,0.2-0.5c0,0-0.2,0.8-0.5,2.1c-0.3,1.3-0.8,3-1.2,5
							c-0.4,1.9-0.8,3.7-1.1,5C314.8,211.8,314.7,212.6,314.6,212.6z"/>
					</g>
				</g>
				<g id="XMLID_1228_">
					<g id="XMLID_1229_">
						<path id="XMLID_1230_" class="st1" d="M322.4,207.2c0,0-0.2-0.5-0.5-1.3c-0.3-0.8-0.7-1.9-1.1-3.1c-0.5-1.2-1-2.2-1.3-3
							c-0.4-0.8-0.6-1.2-0.6-1.3c0,0,0.3,0.4,0.7,1.2c0.4,0.7,0.9,1.8,1.4,3c0.5,1.2,0.8,2.3,1.1,3.1
							C322.4,206.6,322.5,207.2,322.4,207.2z"/>
					</g>
				</g>
			</g>
		</g>
		<g id="XMLID_1196_">
			<g id="XMLID_1224_">
				
					<rect id="XMLID_1225_" x="148.1" y="237" transform="matrix(-1 -1.224647e-016 1.224647e-016 -1 300.1143 489.1923)" class="st2" width="3.8" height="15.2"/>
			</g>
			<g id="XMLID_1222_">
				
					<rect id="XMLID_1223_" x="99.7" y="237" transform="matrix(-1 -1.224647e-016 1.224647e-016 -1 203.3102 489.1923)" class="st2" width="3.8" height="15.2"/>
			</g>
			<g id="XMLID_1220_">
				
					<rect id="XMLID_1221_" x="122.6" y="237" transform="matrix(-1 -1.224647e-016 1.224647e-016 -1 249.1038 489.1923)" class="st1" width="3.8" height="15.2"/>
			</g>
			<g id="XMLID_1218_">
				
					<rect id="XMLID_1219_" x="81.5" y="237" transform="matrix(-1 -1.224647e-016 1.224647e-016 -1 166.7914 489.1923)" class="st1" width="3.8" height="15.2"/>
			</g>
			<g id="XMLID_1216_">
				<rect id="XMLID_1217_" x="99.7" y="201.8" class="st2" width="52.3" height="35.2"/>
			</g>
			<g id="XMLID_1214_">
				<rect id="XMLID_1215_" x="80.8" y="201.8" class="st1" width="18.9" height="35.2"/>
			</g>
			<g id="XMLID_1211_">
				<g id="XMLID_1212_">
					<path id="XMLID_1213_" class="st1" d="M104.6,219.4c0,0,0-0.1,0-0.2c0-0.1,0-0.3,0-0.6c0-0.5,0-1.2,0-2.2c0-1.9,0-4.7,0-8.2
						l-0.1,0.1c9.6,0,24.9,0,42.1,0.1c-0.1-0.1,0.1,0.1-0.1-0.1v0v0v0v0v0v0.1v0.2v0.4l0,0.7c0,0.5,0,1,0,1.4c0,0.9,0,1.9,0,2.8
						c0,1.9,0,3.7,0,5.5l0.1-0.1c-12,0-22.5,0-30,0.1c-3.8,0-6.8,0-8.8,0c-1,0-1.8,0-2.4,0c-0.3,0-0.5,0-0.6,0
						C104.7,219.4,104.6,219.4,104.6,219.4c0,0,0.1,0,0.2,0c0.1,0,0.3,0,0.6,0c0.5,0,1.3,0,2.4,0c2.1,0,5.1,0,8.8,0
						c7.5,0,18.1,0,30.1,0.1l0.1,0l0-0.1c0-1.8,0-3.6,0-5.5c0-0.9,0-1.9,0-2.8c0-0.5,0-0.9,0-1.4l0-0.7v-0.4v-0.2v-0.1v0v0v0v0v0
						c-0.3-0.3-0.1-0.1-0.1-0.1c-17.2,0-32.5,0-42.1,0.1l-0.1,0l0,0.1c0,3.5,0,6.3,0,8.3c0,0.9,0,1.7,0,2.2c0,0.2,0,0.4,0,0.6
						C104.6,219.3,104.6,219.4,104.6,219.4z"/>
				</g>
			</g>
			<g id="XMLID_1209_">
				<circle id="XMLID_1210_" class="st1" cx="125.7" cy="213.8" r="1.8"/>
			</g>
			<g id="XMLID_1207_">
				<path id="XMLID_1208_" class="st3" d="M144.1,188.4l-2.1,3c0,0,4.6,1.3,4.6,5.4c0,4.1-2.8,4.9-5.9,4.9c-3.1,0-6.1-0.9-5.9-5
					c0.1-4.1,4-5.7,4-5.7l-1.9-2.6H144.1z"/>
			</g>
			<g id="XMLID_1202_">
				<g id="XMLID_1205_">
					<path id="XMLID_1206_" class="st1" d="M85.9,193.9v7.5h32.5c2.1,0,3.8-1.7,3.8-3.8v0c0-2.1-1.7-3.8-3.8-3.8"/>
				</g>
				<g id="XMLID_1203_">
					<path id="XMLID_1204_" class="st4" d="M85.9,199.8h11.9c0.5,0,1-0.4,1-1v-2.4c0-0.5-0.4-1-1-1H85.9V199.8z"/>
				</g>
			</g>
			<g id="XMLID_1197_">
				<g id="XMLID_1200_">
					<path id="XMLID_1201_" class="st3" d="M85.9,186.6v7.5h32.5c2.1,0,3.8-1.7,3.8-3.8v0c0-2.1-1.7-3.8-3.8-3.8H85.9z"/>
				</g>
				<g id="XMLID_1198_">
					<path id="XMLID_1199_" class="st1" d="M85.9,192.6h11.9c0.5,0,1-0.4,1-1v-2.4c0-0.5-0.4-1-1-1H85.9V192.6z"/>
				</g>
			</g>
		</g>
		<g id="XMLID_1168_">
			<g id="XMLID_1194_">
				
					<rect id="XMLID_1195_" x="346.8" y="67.7" transform="matrix(0.4167 -0.9091 0.9091 0.4167 114.1339 372.6232)" class="st1" width="1.1" height="59.3"/>
			</g>
			<g id="XMLID_1192_">
				<rect id="XMLID_1193_" x="360.9" y="103.8" class="st1" width="1.1" height="148.3"/>
			</g>
			<g id="XMLID_1190_">
				<path id="XMLID_1191_" class="st3" d="M361.4,162.9h0.3c0.7,0,1.3-0.6,1.3-1.3v-17.3c0-0.7-0.6-1.3-1.3-1.3h-0.3
					c-0.7,0-1.3,0.6-1.3,1.3v17.3C360.1,162.3,360.7,162.9,361.4,162.9z"/>
			</g>
			<g id="XMLID_1188_">
				<path id="XMLID_1189_" class="st2" d="M321.7,85l-1.5,2.6l-6.7-3.9l1.7-2.7c1.1-1.7,3.3-2.2,5-1.3l0,0
					C322.1,80.7,322.8,83.1,321.7,85z"/>
			</g>
			<g id="XMLID_1186_">
				<polygon id="XMLID_1187_" class="st3" points="320.4,86.5 324.3,104.6 296.5,88.9 313.5,83.7 				"/>
			</g>
			<g id="XMLID_1184_">
				
					<ellipse id="XMLID_1185_" transform="matrix(0.476 -0.8795 0.8795 0.476 76.56 323.5932)" class="st1" cx="309.8" cy="97.6" rx="5.3" ry="16.6"/>
			</g>
			<g id="XMLID_1182_">
				<path id="XMLID_1183_" class="st1" d="M377.2,252.1h-32c0,0,4.8-4.9,16.2-4.4C372.9,248.2,377.2,252.1,377.2,252.1z"/>
			</g>
			<g id="XMLID_1180_">
				<circle id="XMLID_1181_" class="st3" cx="361.4" cy="103.8" r="2.2"/>
			</g>
			<g id="XMLID_1178_">
				<polygon id="XMLID_1179_" class="st2" points="320.5,80.3 322,77.7 320.7,77.2 319.5,79.9 				"/>
			</g>
			<g id="XMLID_1175_">
				<g id="XMLID_1176_">
					<path id="XMLID_1177_" class="st1" d="M313.5,83.5c0,0.1,1.9,0,4,1c2.1,0.9,3.2,2.5,3.3,2.4c0,0-0.2-0.4-0.8-1
						c-0.5-0.5-1.4-1.2-2.4-1.7c-1.1-0.5-2.1-0.7-2.9-0.7C314,83.4,313.5,83.5,313.5,83.5z"/>
				</g>
			</g>
			<g id="XMLID_1169_">
				<g id="XMLID_1173_">
					<path id="XMLID_1174_" class="st4" d="M314.3,94.1v5.4c0,0.6-0.2,1.3-0.6,1.7c-0.7,0.8-2.1,1.4-5-0.1c-3.4-1.8-3.1-3.8-2.5-4.9
						c0.2-0.5,0.6-0.8,1.1-1.1l4.3-2.5L314.3,94.1z"/>
				</g>
				<g id="XMLID_1170_">
					<g id="XMLID_1171_">
						<path id="XMLID_1172_" class="st1" d="M312.5,93.1c0,0-0.1,0.2-0.3,0.6c-0.2,0.4-0.5,1-0.9,1.7c-0.2,0.3-0.5,0.7-0.7,1.1
							c-0.1,0.2-0.3,0.4-0.5,0.5c-0.2,0.1-0.4,0.2-0.6,0.1c-0.2-0.1-0.4-0.3-0.3-0.5c0-0.2,0.2-0.4,0.4-0.5c0.2,0,0.5,0.1,0.8,0.2
							c0.3,0.1,0.5,0.3,0.8,0.4c0.3,0.2,0.5,0.3,0.8,0.5c0.2,0.2,0.4,0.4,0.4,0.6c0,0.2-0.2,0.5-0.3,0.7c-0.1,0.2-0.4,0.1-0.5-0.1
							c-0.1-0.2-0.1-0.4-0.1-0.6c0.1-0.2,0.2-0.4,0.3-0.6c0.2-0.4,0.4-0.8,0.6-1.2c0.4-0.7,0.7-1.2,0.9-1.7c0.2-0.4,0.3-0.6,0.3-0.6
							c0,0-0.2,0.2-0.4,0.6c-0.3,0.4-0.6,1-1,1.6c-0.2,0.4-0.4,0.7-0.7,1.1c-0.1,0.2-0.3,0.4-0.4,0.7c0,0.1-0.1,0.3-0.1,0.4
							c0,0.2,0.1,0.3,0.2,0.4c0.1,0.1,0.2,0.2,0.4,0.3c0.2,0,0.4-0.1,0.5-0.2c0.1-0.1,0.2-0.3,0.2-0.4c0.1-0.1,0.1-0.3,0.1-0.5
							c0-0.2-0.1-0.4-0.2-0.5c-0.1-0.1-0.2-0.2-0.4-0.3c-0.2-0.2-0.5-0.4-0.8-0.5c-0.3-0.2-0.5-0.3-0.8-0.4
							c-0.3-0.1-0.6-0.3-0.9-0.2c-0.4,0.1-0.6,0.4-0.7,0.7c0,0.4,0.2,0.7,0.5,0.8c0.3,0.1,0.7,0,0.9-0.2c0.2-0.2,0.4-0.4,0.5-0.6
							c0.3-0.4,0.5-0.8,0.7-1.1c0.4-0.7,0.7-1.3,0.9-1.7C312.5,93.3,312.5,93.1,312.5,93.1z"/>
					</g>
				</g>
			</g>
		</g>
		<g id="XMLID_1158_">
			<g id="XMLID_1165_">
				<g id="XMLID_1166_">
					
						<rect id="XMLID_1167_" x="84.2" y="94.7" transform="matrix(6.123234e-017 -1 1 6.123234e-017 -0.1246 229.4811)" class="st1" width="61" height="40.1"/>
				</g>
			</g>
			<g id="XMLID_1162_">
				<g id="XMLID_1163_">
					
						<rect id="XMLID_1164_" x="86.2" y="96.5" transform="matrix(6.123234e-017 -1 1 6.123234e-017 -0.2173 229.4201)" class="st4" width="56.8" height="36.7"/>
				</g>
			</g>
			<g id="XMLID_1159_">
				<g id="XMLID_1160_">
					
						<rect id="XMLID_1161_" x="105.4" y="109.8" transform="matrix(6.123234e-017 -1 1 6.123234e-017 -0.1404 229.497)" class="st1" width="18.5" height="10.1"/>
				</g>
			</g>
		</g>
		<g id="XMLID_1155_">
			<g id="XMLID_1156_">
				<path id="XMLID_1157_" class="st5" d="M358.7,252.2c0,0.1-75.3,0.1-168.2,0.1c-92.9,0-168.3-0.1-168.3-0.1s75.3-0.1,168.3-0.1
					C283.3,252.1,358.7,252.2,358.7,252.2z"/>
			</g>
		</g>
		<g id="XMLID_1063_">
			<g id="XMLID_1092_">
				<g id="XMLID_1153_">
					<path id="XMLID_1154_" class="st6" d="M88.1,58H62.5c-4.2,0-7.5-3.4-7.5-7.5v-0.6c0-4.2,3.4-7.5,7.5-7.5h25.6V58z"/>
				</g>
				<g id="XMLID_1151_" class="st7">
					<path id="XMLID_1152_" class="st5" d="M88.1,58H62.5c-4.2,0-7.5-3.4-7.5-7.5v-0.6c0-4.2,3.4-7.5,7.5-7.5h25.6V58z"/>
				</g>
				<g id="XMLID_1149_">
					<rect id="XMLID_1150_" x="88.1" y="42.4" class="st6" width="33.1" height="15.7"/>
				</g>
				<g id="XMLID_1147_" class="st8">
					<rect id="XMLID_1148_" x="88.1" y="42.4" class="st5" width="33.1" height="15.7"/>
				</g>
				<g id="XMLID_1145_">
					<rect id="XMLID_1146_" x="121.2" y="42.4" class="st6" width="33.1" height="15.7"/>
				</g>
				<g id="XMLID_1143_" class="st9">
					<rect id="XMLID_1144_" x="121.2" y="42.4" class="st5" width="33.1" height="15.7"/>
				</g>
				<g id="XMLID_1141_">
					<rect id="XMLID_1142_" x="154.3" y="42.4" class="st6" width="33.1" height="15.7"/>
				</g>
				<g id="XMLID_1139_" class="st10">
					<rect id="XMLID_1140_" x="154.3" y="42.4" class="st5" width="33.1" height="15.7"/>
				</g>
				<g id="XMLID_1137_">
					<rect id="XMLID_1138_" x="187.3" y="42.4" class="st6" width="33.1" height="15.7"/>
				</g>
				<g id="XMLID_1135_">
					<rect id="XMLID_1136_" x="220.3" y="42.4" class="st6" width="33.1" height="15.7"/>
				</g>
				<g id="XMLID_1133_" class="st11">
					<rect id="XMLID_1134_" x="220.3" y="42.4" class="st12" width="33.1" height="15.7"/>
				</g>
				<g id="XMLID_1131_">
					<rect id="XMLID_1132_" x="253.3" y="42.4" class="st6" width="33.1" height="15.7"/>
				</g>
				<g id="XMLID_1129_">
					<path id="XMLID_1130_" class="st6" d="M311.8,58h-25.6V42.4h25.6c4.2,0,7.5,3.4,7.5,7.5v0.6C319.3,54.7,316,58,311.8,58z"/>
				</g>
				<g id="XMLID_1127_" class="st13">
					<rect id="XMLID_1128_" x="253.3" y="42.4" class="st12" width="33.1" height="15.7"/>
				</g>
				<g id="XMLID_1125_" class="st7">
					<path id="XMLID_1126_" class="st12" d="M311.8,58h-25.6V42.4h25.6c4.2,0,7.5,3.4,7.5,7.5v0.6C319.3,54.7,316,58,311.8,58z"/>
				</g>
				<g id="XMLID_1115_">
					<g id="XMLID_1119_">
						<g id="XMLID_1123_">
							<circle id="XMLID_1124_" class="st14" cx="200.9" cy="50" r="11.4"/>
						</g>
						<g id="XMLID_1120_">
							<g id="XMLID_1121_">
								<circle id="XMLID_1122_" class="st15" cx="203.8" cy="50" r="11.4"/>
							</g>
						</g>
					</g>
					<g id="XMLID_1116_">
						<g id="XMLID_1117_">
							<path id="XMLID_1118_" class="st16" d="M213.8,50c-0.1,0,0-0.9-0.4-2.4c-0.2-0.8-0.5-1.7-1.1-2.6c-0.6-1-1.4-1.9-2.5-2.8
								c-1.1-0.8-2.5-1.5-4.1-1.8c-1.6-0.3-3.4-0.2-5.2,0.4c-0.9,0.3-1.7,0.8-2.5,1.3c-0.4,0.3-0.7,0.6-1.1,0.9
								c-0.3,0.4-0.7,0.7-1,1.1c-1.2,1.6-1.9,3.7-1.9,5.8c0,2.1,0.7,4.2,1.9,5.8c0.3,0.4,0.6,0.8,1,1.1c0.4,0.3,0.7,0.7,1.1,0.9
								c0.8,0.6,1.6,1,2.5,1.3c1.7,0.7,3.5,0.7,5.2,0.4c1.6-0.3,3-1,4.1-1.8c1.1-0.8,1.9-1.8,2.5-2.8c0.6-1,0.9-1.9,1.1-2.6
								C213.8,50.8,213.7,50,213.8,50c0,0,0,0.1,0,0.2c0,0.1,0,0.3,0,0.5c0,0.2,0,0.5-0.1,0.8c0,0.3-0.1,0.7-0.2,1
								c-0.2,0.8-0.5,1.7-1.1,2.7c-0.6,1-1.4,2-2.5,2.9c-1.1,0.9-2.6,1.6-4.2,1.9c-1.6,0.3-3.5,0.2-5.3-0.4
								c-0.9-0.3-1.8-0.8-2.6-1.4c-0.4-0.3-0.8-0.6-1.1-1c-0.3-0.4-0.7-0.7-1-1.2c-1.2-1.7-2-3.8-2-6c0-2.2,0.7-4.3,2-6
								c0.3-0.4,0.7-0.8,1-1.2c0.4-0.3,0.7-0.7,1.1-1c0.8-0.6,1.7-1.1,2.6-1.4c1.8-0.7,3.6-0.7,5.3-0.4c1.7,0.3,3.1,1,4.2,1.9
								c1.1,0.9,2,1.9,2.5,2.9c0.6,1,0.9,1.9,1.1,2.7c0.1,0.4,0.1,0.7,0.2,1c0.1,0.3,0.1,0.6,0.1,0.8c0,0.2,0,0.4,0,0.5
								C213.8,49.9,213.8,50,213.8,50z"/>
						</g>
					</g>
				</g>
				<g id="XMLID_1112_">
					<path id="XMLID_1113_" class="st5" d="M86.8,29v4.5h-0.6v-4h-1V29H86.8z"/>
				</g>
				<g id="XMLID_1109_">
					<path id="XMLID_1110_" class="st5" d="M123.5,33v0.6h-3.2v-0.4l1.8-1.8c0.5-0.5,0.6-0.7,0.6-1c0-0.5-0.3-0.7-1-0.7
						c-0.5,0-0.9,0.2-1.2,0.5l-0.4-0.4c0.3-0.4,0.9-0.7,1.7-0.7c0.9,0,1.5,0.5,1.5,1.3c0,0.4-0.1,0.8-0.7,1.4l-1.4,1.3H123.5z"/>
				</g>
				<g id="XMLID_1106_">
					<path id="XMLID_1107_" class="st5" d="M155.4,32.2c0,0.8-0.6,1.4-1.7,1.4c-0.6,0-1.3-0.2-1.7-0.5l0.3-0.5
						c0.3,0.3,0.8,0.5,1.4,0.5c0.7,0,1.1-0.3,1.1-0.8c0-0.5-0.3-0.8-1.1-0.8h-0.4V31l1.1-1.4h-2.2V29h3v0.4l-1.2,1.5
						C154.9,31,155.4,31.5,155.4,32.2z"/>
				</g>
				<g id="XMLID_1103_">
					<path id="XMLID_1104_" class="st5" d="M189.5,32.4h-0.9v1.1H188v-1.1h-2.5V32l2.3-3h0.7l-2.2,2.9h1.7v-1h0.6v1h0.9V32.4z"/>
				</g>
				<g id="XMLID_1100_">
					<path id="XMLID_1101_" class="st5" d="M220.9,32.2c0,0.8-0.6,1.4-1.7,1.4c-0.6,0-1.3-0.2-1.7-0.5l0.3-0.5
						c0.3,0.3,0.8,0.5,1.4,0.5c0.7,0,1.1-0.3,1.1-0.8c0-0.5-0.3-0.8-1.4-0.8h-1l0.2-2.4h2.5v0.6h-2l-0.1,1.2h0.5
						C220.4,30.8,220.9,31.4,220.9,32.2z"/>
				</g>
				<g id="XMLID_1096_">
					<path id="XMLID_1097_" class="st5" d="M254.8,32.2c0,0.9-0.7,1.4-1.6,1.4c-1.2,0-1.9-0.8-1.9-2.3c0-1.5,0.9-2.4,2.1-2.4
						c0.4,0,0.8,0.1,1.1,0.3l-0.2,0.5c-0.2-0.2-0.5-0.2-0.9-0.2c-0.9,0-1.5,0.6-1.5,1.7c0,0.1,0,0.1,0,0.2c0.3-0.4,0.7-0.6,1.3-0.6
						C254.1,30.8,254.8,31.3,254.8,32.2z M254.1,32.2c0-0.5-0.4-0.9-1-0.9c-0.6,0-1,0.4-1,0.9c0,0.5,0.4,0.9,1.1,0.9
						C253.7,33.1,254.1,32.7,254.1,32.2z"/>
				</g>
				<g id="XMLID_1093_">
					<path id="XMLID_1094_" class="st5" d="M288.9,29v0.4l-1.8,4.1h-0.7l1.8-4h-2.1v0.8h-0.6V29H288.9z"/>
				</g>
			</g>
			<g id="XMLID_1082_">
				<g id="XMLID_1089_">
					<g id="XMLID_1090_">
						<path id="XMLID_1091_" class="st16" d="M201,52.2c-0.1,0.1-1.1-0.8-2.4-1.9l0,0l-0.1-0.1l0.1-0.1c1.3-1,2.4-1.8,2.4-1.8
							c0.1,0.1-0.9,1-2.2,2l0-0.2l0,0C200.1,51.2,201.1,52.1,201,52.2z"/>
					</g>
				</g>
				<g id="XMLID_1086_">
					<g id="XMLID_1087_">
						<path id="XMLID_1088_" class="st16" d="M207.7,48.3c0.1-0.1,1.1,0.8,2.4,1.9l0,0l0.1,0.1l-0.1,0.1c-1.3,1-2.4,1.8-2.4,1.8
							c-0.1-0.1,0.9-1,2.2-2l0,0.2l0,0C208.6,49.3,207.6,48.3,207.7,48.3z"/>
					</g>
				</g>
				<g id="XMLID_1083_">
					<g id="XMLID_1084_">
						<ellipse id="XMLID_1085_" class="st16" cx="204.2" cy="50.2" rx="5.5" ry="0.1"/>
					</g>
				</g>
			</g>
			<g id="XMLID_1075_">
				<g id="XMLID_1079_">
					<g id="XMLID_1080_">
						<path id="XMLID_1081_" class="st5" d="M46.3,51.2c-0.1,0,0-0.8-0.4-2.3c-0.2-0.7-0.5-1.6-1.1-2.5c-0.5-0.9-1.3-1.9-2.4-2.7
							c-1.1-0.8-2.4-1.5-4-1.7c-1.5-0.3-3.3-0.2-4.9,0.4c-0.8,0.3-1.6,0.7-2.4,1.3c-0.4,0.3-0.7,0.6-1.1,0.9
							c-0.3,0.3-0.6,0.7-0.9,1.1c-1.2,1.5-1.8,3.5-1.8,5.5c0,2,0.7,4,1.8,5.5c0.3,0.4,0.6,0.7,0.9,1.1c0.3,0.3,0.7,0.6,1.1,0.9
							c0.7,0.6,1.5,1,2.4,1.3c1.7,0.6,3.4,0.7,4.9,0.4c1.5-0.3,2.9-0.9,4-1.7c1.1-0.8,1.9-1.8,2.4-2.7c0.5-0.9,0.9-1.8,1.1-2.5
							C46.3,52,46.3,51.2,46.3,51.2c0,0,0,0.1,0,0.2c0,0.1,0,0.3,0,0.5c0,0.2,0,0.4-0.1,0.7c0,0.3-0.1,0.6-0.2,1
							c-0.2,0.7-0.5,1.6-1,2.6c-0.5,0.9-1.3,1.9-2.4,2.7c-1.1,0.8-2.4,1.5-4,1.8c-1.6,0.3-3.4,0.2-5.1-0.4c-0.9-0.3-1.7-0.7-2.4-1.3
							c-0.4-0.3-0.7-0.6-1.1-0.9c-0.3-0.4-0.7-0.7-0.9-1.1c-1.2-1.6-1.9-3.6-1.9-5.7c0-2.1,0.7-4.1,1.9-5.7c0.3-0.4,0.6-0.8,0.9-1.1
							c0.4-0.3,0.7-0.7,1.1-0.9c0.8-0.6,1.6-1,2.4-1.3c1.7-0.6,3.5-0.7,5.1-0.4c1.6,0.3,3,1,4,1.8c1.1,0.8,1.9,1.8,2.4,2.7
							c0.5,0.9,0.9,1.8,1,2.6c0.1,0.4,0.1,0.7,0.2,1c0,0.3,0.1,0.5,0.1,0.7c0,0.2,0,0.3,0,0.5C46.3,51.1,46.3,51.2,46.3,51.2z"/>
					</g>
				</g>
				<g id="XMLID_1076_">
					<g id="XMLID_1077_">
						<ellipse id="XMLID_1078_" class="st5" cx="36.5" cy="51.2" rx="4.6" ry="0.1"/>
					</g>
				</g>
			</g>
			<g id="XMLID_1064_">
				<g id="XMLID_1068_">
					<g id="XMLID_1072_">
						<g id="XMLID_1073_">
							<path id="XMLID_1074_" class="st5" d="M342.8,50c-0.1,0,0-0.8-0.4-2.3c-0.2-0.7-0.5-1.6-1.1-2.5c-0.5-0.9-1.3-1.9-2.4-2.7
								c-1.1-0.8-2.4-1.5-4-1.7c-1.5-0.3-3.3-0.2-4.9,0.4c-0.8,0.3-1.6,0.7-2.4,1.3c-0.4,0.3-0.7,0.6-1.1,0.9
								c-0.3,0.3-0.6,0.7-0.9,1.1c-1.2,1.5-1.8,3.5-1.8,5.5c0,2,0.7,4,1.8,5.5c0.3,0.4,0.6,0.7,0.9,1.1c0.3,0.3,0.7,0.6,1.1,0.9
								c0.7,0.6,1.5,1,2.4,1.3c1.7,0.6,3.4,0.7,4.9,0.4c1.5-0.3,2.9-0.9,4-1.7c1.1-0.8,1.9-1.8,2.4-2.7c0.5-0.9,0.9-1.8,1.1-2.5
								C342.8,50.8,342.7,50,342.8,50c0,0,0,0.1,0,0.2c0,0.1,0,0.3,0,0.5c0,0.2,0,0.4-0.1,0.7c0,0.3-0.1,0.6-0.2,1
								c-0.2,0.7-0.5,1.6-1,2.6c-0.5,0.9-1.3,1.9-2.4,2.7c-1.1,0.8-2.4,1.5-4,1.8c-1.6,0.3-3.4,0.2-5.1-0.4
								c-0.9-0.3-1.7-0.7-2.4-1.3c-0.4-0.3-0.7-0.6-1.1-0.9c-0.3-0.4-0.7-0.7-0.9-1.1c-1.2-1.6-1.9-3.6-1.9-5.7
								c0-2.1,0.7-4.1,1.9-5.7c0.3-0.4,0.6-0.8,0.9-1.1c0.4-0.3,0.7-0.7,1.1-0.9c0.8-0.6,1.6-1,2.4-1.3c1.7-0.6,3.5-0.7,5.1-0.4
								c1.6,0.3,3,1,4,1.8c1.1,0.8,1.9,1.8,2.4,2.7c0.5,0.9,0.9,1.8,1,2.6c0.1,0.4,0.1,0.7,0.2,1c0,0.3,0.1,0.5,0.1,0.7
								c0,0.2,0,0.3,0,0.5C342.8,49.9,342.8,50,342.8,50z"/>
						</g>
					</g>
					<g id="XMLID_1069_">
						<g id="XMLID_1070_">
							<ellipse id="XMLID_1071_" class="st5" cx="333" cy="50" rx="4.6" ry="0.1"/>
						</g>
					</g>
				</g>
				<g id="XMLID_1065_">
					<g id="XMLID_1066_">
						<ellipse id="XMLID_1067_" class="st5" cx="333" cy="49.6" rx="0.1" ry="4.4"/>
					</g>
				</g>
			</g>
		</g>
		<g id="XMLID_990_">
			<g id="XMLID_1029_">
				<g id="XMLID_1059_">
					<g id="XMLID_1060_">
						<g id="XMLID_1061_">
							<path id="XMLID_1062_" class="st6" d="M81.4,217.8c-5.5-4.5-6.2-12.1-5.4-18.8c0.1-1.1,0.1-2.3,0.7-3.3
								c0.6-0.9,1.9-1.5,2.9-1c0.8,0.5,1.1,1.5,1.5,2.3c0.5,1.1,1.4,2.1,2.4,2.7c0.7,0.4,1.6,0.7,2.3,0.4c1-0.5,1.2-1.8,1.3-2.9
								c0.2-2.1,0.3-4.2,0.5-6.3c0.1-1.1,0.2-2.3,0.6-3.3c0.4-1,1.3-2,2.4-2.2c1.1-0.2,2.4,0.5,2.5,1.6c0.1,0.5-0.1,0.9-0.1,1.4
								c0,0.5,0.2,1,0.6,1.2c0.4,0.2,0.9-0.1,1.3-0.4c1.2-1,2.1-2.4,3-3.8c0.8-1.4,1.7-2.8,2.8-4c1.1-1.2,2.7-2,4.3-2
								c1.6,0,3.2,1.2,3.5,2.8c0.3,1.6-0.8,3.1-1.9,4.3c-1.6,1.8-3.5,3.3-5.6,4.6c-0.4,0.2-0.8,0.5-0.9,0.9
								c-0.3,0.7,0.3,1.5,1.1,1.8c0.8,0.3,1.7,0.3,2.6,0.5c0.9,0.2,1.8,0.6,2,1.5c0.4,1.2-0.7,2.3-1.7,3c-2,1.4-4.3,2.5-6.6,3.2
								c-0.8,0.2-1.7,0.4-2.4,1c-0.7,0.5-1.2,1.5-0.9,2.3c0.3,0.8,1.3,1.2,2.2,1.1c0.9-0.1,1.7-0.5,2.5-0.7c1.6-0.5,3.6-0.2,4.4,1.2
								c0.6,0.9,0.5,2.1,0.1,3.2c-0.4,1-1.1,1.9-1.9,2.6c-2.7,2.7-6,4.8-9.7,5.7C88.2,219.3,84.9,219.4,81.4,217.8"/>
						</g>
					</g>
				</g>
				<g id="XMLID_1055_" class="st13">
					<g id="XMLID_1056_">
						<g id="XMLID_1057_">
							<path id="XMLID_1058_" class="st12" d="M81.4,217.8c-5.5-4.5-6.2-12.1-5.4-18.8c0.1-1.1,0.1-2.3,0.7-3.3
								c0.6-0.9,1.9-1.5,2.9-1c0.8,0.5,1.1,1.5,1.5,2.3c0.5,1.1,1.4,2.1,2.4,2.7c0.7,0.4,1.6,0.7,2.3,0.4c1-0.5,1.2-1.8,1.3-2.9
								c0.2-2.1,0.3-4.2,0.5-6.3c0.1-1.1,0.2-2.3,0.6-3.3c0.4-1,1.3-2,2.4-2.2c1.1-0.2,2.4,0.5,2.5,1.6c0.1,0.5-0.1,0.9-0.1,1.4
								c0,0.5,0.2,1,0.6,1.2c0.4,0.2,0.9-0.1,1.3-0.4c1.2-1,2.1-2.4,3-3.8c0.8-1.4,1.7-2.8,2.8-4c1.1-1.2,2.7-2,4.3-2
								c1.6,0,3.2,1.2,3.5,2.8c0.3,1.6-0.8,3.1-1.9,4.3c-1.6,1.8-3.5,3.3-5.6,4.6c-0.4,0.2-0.8,0.5-0.9,0.9
								c-0.3,0.7,0.3,1.5,1.1,1.8c0.8,0.3,1.7,0.3,2.6,0.5c0.9,0.2,1.8,0.6,2,1.5c0.4,1.2-0.7,2.3-1.7,3c-2,1.4-4.3,2.5-6.6,3.2
								c-0.8,0.2-1.7,0.4-2.4,1c-0.7,0.5-1.2,1.5-0.9,2.3c0.3,0.8,1.3,1.2,2.2,1.1c0.9-0.1,1.7-0.5,2.5-0.7c1.6-0.5,3.6-0.2,4.4,1.2
								c0.6,0.9,0.5,2.1,0.1,3.2c-0.4,1-1.1,1.9-1.9,2.6c-2.7,2.7-6,4.8-9.7,5.7C88.2,219.3,84.9,219.4,81.4,217.8"/>
						</g>
					</g>
				</g>
				<g id="XMLID_1050_">
					<g id="XMLID_1051_">
						<g id="XMLID_1052_">
							<g id="XMLID_1053_">
								<path id="XMLID_1054_" class="st16" d="M107,180.6c0,0,0,0-0.1,0.1c-0.1,0.1-0.2,0.2-0.4,0.3c-0.3,0.2-0.8,0.6-1.4,1
									c-1.2,0.9-2.8,2.3-4.6,4.3c-0.9,1-1.9,2.1-2.9,3.3c-1,1.2-2.1,2.5-3.1,3.9c-1.1,1.4-2.1,2.9-3.1,4.6c-0.5,0.8-1,1.7-1.4,2.6
									c-0.5,0.9-0.9,1.8-1.4,2.7c-1.9,3.6-3.6,7.2-4.8,10.5c-1.3,3.3-2.1,6.4-2.6,9c-0.5,2.6-0.6,4.8-0.6,6.3c0,0.8,0,1.3,0,1.7
									c0,0.2,0,0.3,0,0.4c0,0.1,0,0.2,0,0.2c0,0,0-0.1,0-0.2c0-0.1,0-0.3,0-0.4c0-0.4-0.1-1-0.1-1.7c0-1.5,0.1-3.7,0.5-6.3
									c0.5-2.7,1.3-5.8,2.6-9.1c1.3-3.3,2.9-6.9,4.8-10.5c0.5-0.9,0.9-1.8,1.4-2.7c0.5-0.9,0.9-1.8,1.4-2.6c1-1.7,2.1-3.2,3.2-4.6
									c1.1-1.4,2.1-2.7,3.2-3.9c1-1.2,2-2.3,2.9-3.3c1.8-1.9,3.5-3.3,4.7-4.2c0.6-0.5,1.1-0.8,1.4-1c0.2-0.1,0.3-0.2,0.4-0.3
									C106.9,180.6,107,180.6,107,180.6z"/>
							</g>
						</g>
					</g>
				</g>
				<g id="XMLID_1045_">
					<g id="XMLID_1046_">
						<g id="XMLID_1047_">
							<g id="XMLID_1048_">
								<path id="XMLID_1049_" class="st16" d="M91.2,198c0,0,0-0.2-0.1-0.5c0-0.3-0.1-0.8-0.1-1.3c-0.1-1.1-0.1-2.7-0.2-4.4
									c0-1.7-0.1-3.3-0.2-4.4c0-0.6-0.1-1-0.1-1.3c0-0.3,0-0.5,0-0.5c0,0,0.1,0.2,0.1,0.5c0.1,0.3,0.1,0.8,0.2,1.3
									c0.1,1.1,0.2,2.7,0.3,4.4c0,1.7,0.1,3.2,0.1,4.4c0,0.5,0,1,0,1.3C91.2,197.8,91.2,198,91.2,198z"/>
							</g>
						</g>
					</g>
				</g>
				<g id="XMLID_1040_">
					<g id="XMLID_1041_">
						<g id="XMLID_1042_">
							<g id="XMLID_1043_">
								<path id="XMLID_1044_" class="st16" d="M105.8,196.4c0,0-0.2,0-0.6,0c-0.4,0-0.9,0-1.6,0c-1.3,0-3.2,0.2-5.2,0.4
									c-2,0.2-3.8,0.5-5.1,0.7c-0.7,0.1-1.2,0.2-1.5,0.3c-0.4,0.1-0.6,0.1-0.6,0.1c0,0,0.2-0.1,0.6-0.2c0.4-0.1,0.9-0.2,1.5-0.4
									c1.3-0.3,3.1-0.6,5.2-0.8c2-0.2,3.9-0.3,5.2-0.3c0.7,0,1.2,0,1.6,0C105.6,196.4,105.8,196.4,105.8,196.4z"/>
							</g>
						</g>
					</g>
				</g>
				<g id="XMLID_1035_">
					<g id="XMLID_1036_">
						<g id="XMLID_1037_">
							<g id="XMLID_1038_">
								<path id="XMLID_1039_" class="st16" d="M83.7,213.5c0,0,0-0.1-0.1-0.2c-0.1-0.1-0.1-0.3-0.2-0.5c-0.2-0.5-0.4-1.2-0.7-2
									c-0.6-1.7-1.3-4.1-2-6.7c-0.7-2.6-1.4-5-2-6.7c-0.3-0.8-0.5-1.5-0.6-2c-0.1-0.2-0.1-0.4-0.2-0.6c0-0.1-0.1-0.2,0-0.2
									c0,0,0,0.1,0.1,0.2c0.1,0.1,0.1,0.3,0.2,0.5c0.2,0.5,0.4,1.2,0.7,2c0.6,1.7,1.3,4.1,2,6.7c0.7,2.6,1.4,5,2,6.7
									c0.3,0.8,0.5,1.5,0.6,2c0.1,0.2,0.1,0.4,0.2,0.6C83.7,213.4,83.7,213.5,83.7,213.5z"/>
							</g>
						</g>
					</g>
				</g>
				<g id="XMLID_1030_">
					<g id="XMLID_1031_">
						<g id="XMLID_1032_">
							<g id="XMLID_1033_">
								<path id="XMLID_1034_" class="st16" d="M103.3,208.8c0,0-0.1,0-0.2,0.1c-0.2,0-0.3,0.1-0.6,0.1c-0.5,0.1-1.2,0.3-2.1,0.5
									c-1.8,0.4-4.2,1-6.9,1.7c-2.7,0.7-5.2,1.3-6.9,1.7c-0.9,0.2-1.6,0.3-2.1,0.4c-0.2,0-0.4,0.1-0.6,0.1c-0.1,0-0.2,0-0.2,0
									c0,0,0.1,0,0.2-0.1c0.2,0,0.3-0.1,0.6-0.1c0.5-0.1,1.2-0.3,2.1-0.5c1.8-0.4,4.2-1,6.9-1.7c2.7-0.7,5.2-1.3,6.9-1.7
									c0.9-0.2,1.6-0.3,2.1-0.4c0.2,0,0.4-0.1,0.6-0.1C103.2,208.8,103.3,208.8,103.3,208.8z"/>
							</g>
						</g>
					</g>
				</g>
			</g>
			<g id="XMLID_999_">
				<g id="XMLID_1025_">
					<g id="XMLID_1026_">
						<g id="XMLID_1027_">
							<path id="XMLID_1028_" class="st6" d="M76.4,211.4c8.4-6.9,9.6-18.7,8.4-29.1c-0.2-1.7-0.1-3.6-1.1-5c-0.9-1.5-3-2.4-4.5-1.5
								c-1.2,0.7-1.7,2.3-2.3,3.6c-0.8,1.7-2.2,3.2-3.8,4.2c-1.1,0.7-2.4,1.1-3.5,0.6c-1.6-0.7-1.9-2.8-2-4.5
								c-0.2-3.2-0.5-6.4-0.7-9.7c-0.1-1.7-0.3-3.5-0.9-5.1c-0.7-1.6-2-3-3.7-3.4c-1.7-0.3-3.6,0.8-3.9,2.5
								c-0.1,0.7,0.1,1.4,0.1,2.2c0,0.7-0.3,1.5-0.9,1.8c-0.7,0.3-1.4-0.2-2-0.6c-1.9-1.6-3.3-3.8-4.6-5.9c-1.3-2.1-2.6-4.4-4.4-6.1
								c-1.8-1.8-4.1-3.1-6.6-3.1c-2.5,0.1-5,1.8-5.4,4.3c-0.4,2.5,1.2,4.8,2.9,6.7c2.5,2.7,5.4,5.1,8.6,7c0.6,0.3,1.2,0.7,1.5,1.3
								c0.5,1.1-0.5,2.4-1.6,2.8c-1.3,0.5-2.7,0.5-4,0.8c-1.3,0.3-2.7,1-3.2,2.3c-0.6,1.8,1.1,3.6,2.6,4.7c3.1,2.2,6.6,3.9,10.2,4.9
								c1.3,0.4,2.7,0.7,3.8,1.5c1.1,0.8,1.8,2.3,1.3,3.6c-0.5,1.3-2.1,1.8-3.4,1.6c-1.4-0.1-2.6-0.8-3.9-1.2
								c-2.4-0.7-5.5-0.3-6.9,1.9c-0.9,1.4-0.8,3.3-0.2,4.9c0.6,1.6,1.8,2.9,3,4.1c4.2,4.2,9.3,7.4,15,8.9
								C65.9,213.8,71.1,213.9,76.4,211.4"/>
						</g>
					</g>
				</g>
				<g id="XMLID_1020_">
					<g id="XMLID_1021_">
						<g id="XMLID_1022_">
							<g id="XMLID_1023_">
								<path id="XMLID_1024_" class="st16" d="M37,154c0,0,0.1,0.1,0.2,0.2c0.1,0.1,0.3,0.2,0.5,0.4c0.5,0.4,1.2,0.9,2.1,1.6
									c1.8,1.4,4.3,3.6,7.2,6.6c1.4,1.5,2.9,3.2,4.4,5.1c1.6,1.9,3.2,3.9,4.8,6c1.7,2.2,3.3,4.5,4.8,7.1c0.8,1.3,1.5,2.6,2.2,4
									c0.7,1.4,1.4,2.7,2.2,4.1c2.9,5.6,5.5,11,7.5,16.2c2,5.1,3.3,9.9,4,14c0.7,4.1,0.9,7.4,0.9,9.8c0,1.2,0,2.1-0.1,2.7
									c0,0.3,0,0.5,0,0.7c0,0.2,0,0.2,0,0.2c0,0,0-0.1,0-0.2c0-0.2,0-0.4,0.1-0.7c0.1-0.6,0.1-1.5,0.1-2.7c0-2.3-0.1-5.7-0.8-9.8
									c-0.7-4.1-2-8.9-3.9-14c-1.9-5.1-4.5-10.6-7.5-16.2c-0.7-1.4-1.5-2.8-2.2-4.1c-0.7-1.4-1.4-2.7-2.2-4
									c-1.5-2.6-3.2-4.9-4.9-7.1c-1.7-2.2-3.3-4.2-4.9-6c-1.6-1.9-3.1-3.6-4.5-5.1c-2.8-3-5.4-5.1-7.3-6.6
									c-0.9-0.7-1.6-1.2-2.1-1.6c-0.2-0.2-0.4-0.3-0.6-0.4C37,154,37,154,37,154z"/>
							</g>
						</g>
					</g>
				</g>
				<g id="XMLID_1015_">
					<g id="XMLID_1016_">
						<g id="XMLID_1017_">
							<g id="XMLID_1018_">
								<path id="XMLID_1019_" class="st16" d="M61.3,180.8c0,0,0.1-0.3,0.1-0.8c0.1-0.5,0.1-1.2,0.2-2.1c0.1-1.7,0.2-4.2,0.2-6.8
									c0.1-2.7,0.2-5.1,0.3-6.8c0.1-0.9,0.1-1.6,0.2-2.1c0-0.5,0.1-0.8,0-0.8c0,0-0.1,0.3-0.2,0.7c-0.1,0.5-0.2,1.2-0.3,2
									c-0.2,1.7-0.3,4.1-0.4,6.8c-0.1,2.6-0.1,5-0.2,6.8c0,0.8,0,1.5-0.1,2.1C61.3,180.5,61.3,180.8,61.3,180.8z"/>
							</g>
						</g>
					</g>
				</g>
				<g id="XMLID_1010_">
					<g id="XMLID_1011_">
						<g id="XMLID_1012_">
							<g id="XMLID_1013_">
								<path id="XMLID_1014_" class="st16" d="M38.7,178.4c0,0,0.3,0,0.9,0c0.6,0,1.4,0,2.4,0c2.1,0.1,4.9,0.2,8,0.6
									c3.1,0.3,5.9,0.8,7.9,1.1c1,0.2,1.8,0.3,2.4,0.5c0.6,0.1,0.9,0.2,0.9,0.1c0,0-0.3-0.1-0.9-0.3c-0.6-0.1-1.4-0.3-2.4-0.6
									c-2-0.4-4.8-0.9-8-1.2c-3.1-0.3-6-0.5-8-0.5c-1,0-1.9,0-2.4,0.1C39,178.3,38.7,178.4,38.7,178.4z"/>
							</g>
						</g>
					</g>
				</g>
				<g id="XMLID_1005_">
					<g id="XMLID_1006_">
						<g id="XMLID_1007_">
							<g id="XMLID_1008_">
								<path id="XMLID_1009_" class="st16" d="M72.9,204.7c0,0,0.1-0.1,0.1-0.3c0.1-0.2,0.2-0.5,0.3-0.8c0.3-0.7,0.6-1.8,1.1-3.1
									c0.9-2.6,2-6.3,3.1-10.4c1.1-4.1,2.2-7.7,3-10.4c0.4-1.3,0.7-2.3,1-3.1c0.1-0.3,0.2-0.6,0.3-0.9c0.1-0.2,0.1-0.3,0.1-0.3
									c0,0-0.1,0.1-0.1,0.3c-0.1,0.2-0.2,0.5-0.3,0.8c-0.3,0.7-0.6,1.8-1.1,3.1c-0.9,2.6-2,6.3-3.1,10.4c-1.1,4.1-2.2,7.7-3,10.4
									c-0.4,1.3-0.7,2.3-1,3.1c-0.1,0.3-0.2,0.6-0.3,0.9C72.9,204.6,72.9,204.7,72.9,204.7z"/>
							</g>
						</g>
					</g>
				</g>
				<g id="XMLID_1000_">
					<g id="XMLID_1001_">
						<g id="XMLID_1002_">
							<g id="XMLID_1003_">
								<path id="XMLID_1004_" class="st16" d="M42.6,197.5c0,0,0.1,0,0.3,0.1c0.2,0.1,0.5,0.1,0.9,0.2c0.8,0.2,1.9,0.5,3.2,0.8
									c2.7,0.7,6.5,1.6,10.7,2.7c4.2,1.1,8,2,10.7,2.6c1.4,0.3,2.5,0.5,3.3,0.7c0.4,0.1,0.7,0.1,0.9,0.2c0.2,0,0.3,0,0.3,0
									c0,0-0.1,0-0.3-0.1c-0.2-0.1-0.5-0.1-0.9-0.2c-0.8-0.2-1.9-0.5-3.2-0.8C65.7,203,62,202,57.8,201c-4.2-1.1-8-2-10.7-2.6
									c-1.4-0.3-2.5-0.5-3.3-0.7c-0.4-0.1-0.7-0.1-0.9-0.2C42.7,197.5,42.6,197.5,42.6,197.5z"/>
							</g>
						</g>
					</g>
				</g>
			</g>
			<g id="XMLID_991_">
				<g id="XMLID_997_">
					<polygon id="XMLID_998_" class="st16" points="66,231.4 66.8,252.2 89.2,252.2 91,231.4 					"/>
				</g>
				<g id="XMLID_995_">
					<rect id="XMLID_996_" x="63.8" y="224.5" class="st16" width="29.9" height="6.9"/>
				</g>
				<g id="XMLID_992_">
					<g id="XMLID_993_">
						<ellipse id="XMLID_994_" class="st17" cx="78.7" cy="231.2" rx="12.6" ry="0.1"/>
					</g>
				</g>
			</g>
		</g>
		<g id="XMLID_670_">
			<g id="XMLID_963_">
				<g id="XMLID_988_">
					<path id="XMLID_989_" class="st16" d="M261.2,248.7l-19-98.2l0,0c0-0.1-0.1-0.3-0.1-0.4l0,0l0,0c-2.9-11.5-5.2-14.4-5.2-14.4
						l-28.4,0.8c-2.2,4-2.5,13.6-2.5,13.6c-0.3,1.2,4.1,96.7,4.1,96.7l11.8,0l3.2-90.6l25.4,92.8L261.2,248.7z"/>
				</g>
				<g id="XMLID_985_">
					<g id="XMLID_986_">
						
							<ellipse id="XMLID_987_" transform="matrix(0.9681 -0.2506 0.2506 0.9681 -31.6227 61.4367)" class="st17" cx="225.5" cy="154.9" rx="7.3" ry="0.2"/>
					</g>
				</g>
				<g id="XMLID_982_">
					<g id="XMLID_983_">
						<path id="XMLID_984_" class="st17" d="M212.3,248c-0.1,0-0.8-22.6-1.6-50.4c-0.8-27.8-1.4-50.4-1.3-50.4
							c0.1,0,0.8,22.6,1.6,50.4C211.8,225.4,212.4,248,212.3,248z"/>
					</g>
				</g>
				<g id="XMLID_979_">
					<g id="XMLID_980_">
						<path id="XMLID_981_" class="st17" d="M215.5,246.3c-0.1,0-0.2-22.2-0.3-49.6c-0.1-27.4-0.1-49.6,0-49.6
							c0.1,0,0.2,22.2,0.3,49.6C215.6,224.1,215.6,246.3,215.5,246.3z"/>
					</g>
				</g>
				<g id="XMLID_976_">
					<g id="XMLID_977_">
						<path id="XMLID_978_" class="st17" d="M220.5,145.7c0.1,0-0.2,22.5-0.7,50.3c-0.5,27.8-0.9,50.3-1,50.3
							c-0.1,0,0.2-22.5,0.7-50.3C220,168.2,220.4,145.7,220.5,145.7z"/>
					</g>
				</g>
				<g id="XMLID_973_">
					<g id="XMLID_974_">
						
							<ellipse id="XMLID_975_" transform="matrix(0.9989 -4.593683e-002 4.593683e-002 0.9989 -6.6853 10.4869)" class="st17" cx="224.8" cy="150.7" rx="0.1" ry="5.5"/>
					</g>
				</g>
				<g id="XMLID_970_">
					<g id="XMLID_971_">
						<path id="XMLID_972_" class="st17" d="M253.1,248.6c-0.1,0-5.7-23.1-12.5-51.7c-6.8-28.6-12.3-51.7-12.3-51.7
							c0.1,0,5.7,23.1,12.5,51.7C247.7,225.5,253.2,248.6,253.1,248.6z"/>
					</g>
				</g>
				<g id="XMLID_967_">
					<g id="XMLID_968_">
						<path id="XMLID_969_" class="st17" d="M256.5,248.5c-0.1,0-5.4-23.3-11.9-52.1c-6.5-28.8-11.7-52.2-11.6-52.2
							c0.1,0,5.4,23.3,11.9,52.1C251.4,225.2,256.6,248.5,256.5,248.5z"/>
					</g>
				</g>
				<g id="XMLID_964_">
					<g id="XMLID_965_">
						<path id="XMLID_966_" class="st17" d="M258.7,248c-0.1,0-4.7-23.2-10.3-51.8c-5.6-28.6-10.1-51.9-10.1-51.9
							c0.1,0,4.7,23.2,10.3,51.8C254.2,224.7,258.7,248,258.7,248z"/>
					</g>
				</g>
			</g>
			<g id="XMLID_961_">
				<path id="XMLID_962_" class="st18" d="M210.6,96.6l-18.9-16.3l0.4-23.2l0.4-0.5c0.2-0.3,0.4-0.6,0.7-0.9c0.3-0.4,0.7-0.7,1.1-1
					c0.5-0.3,1.2-0.7,1.6-0.8c0.5-0.1,0.7-0.8,0.2-1c-0.5-0.2-1.9,0.1-3.4,1.2c-1.4,1.1-0.7-1.6-0.5-2.6c0.2-1,0.8-4.1,0.6-4.4
					c-0.4-0.4-0.9-0.1-1.1,0.9c-0.2,1-1.1,3.9-1.6,3.8c-0.5-0.1,0.8-5.1,0.8-5.1s0.4-1-0.1-1.2c-1.1-0.3-2,5.1-2.1,5.6
					c-0.1,0.4-0.6,0.2-0.5-0.2c0.1-0.4,1.4-5,0.3-5.3c-0.8-0.3-0.8,4.4-1.6,5.2c-0.8,0.8,0.4-3.6-0.4-3.8c-0.3-0.1-0.5-0.1-0.8,2.5
					c-0.2,1.3-0.5,3.4-0.6,5.4l0,0l-3.3,28l19,21.4L210.6,96.6z"/>
			</g>
			<g id="XMLID_950_">
				<g id="XMLID_959_">
					<polygon id="XMLID_960_" class="st6" points="210.6,247 209.1,252.1 220,252 220.5,246.5 					"/>
				</g>
				<g id="XMLID_956_">
					<g id="XMLID_957_">
						<path id="XMLID_958_" class="st16" d="M220.3,250.9c0,0-0.6,0.1-1.6,0.1c-1,0-2.4,0-3.9,0c-1.4,0-2.7-0.1-3.9-0.1
							c-1,0-1.6-0.1-1.6-0.1c0,0,0.6-0.1,1.6-0.1c1,0,2.4,0,3.9,0c1.4,0,2.7,0.1,3.9,0.1C219.6,250.9,220.3,250.9,220.3,250.9z"/>
					</g>
				</g>
				<g id="XMLID_953_">
					<g id="XMLID_954_">
						
							<ellipse id="XMLID_955_" transform="matrix(5.532056e-002 -0.9985 0.9985 5.532056e-002 -44.7027 449.9248)" class="st16" cx="215.4" cy="248.6" rx="2.3" ry="0.2"/>
					</g>
				</g>
				<g id="XMLID_951_" class="st19">
					<polyline id="XMLID_952_" class="st5" points="209.1,252.1 220,252 220.1,250.9 209.2,250.8 209.1,252 					"/>
				</g>
			</g>
			<g id="XMLID_948_">
				<path id="XMLID_949_" class="st18" d="M219.6,46.1c-0.7,0.4,1.5,4.3,0.6,3.8c-1-0.6-2.2-5.1-2.9-4.6c-1,0.6,1.5,4.7,1.7,5
					c0.2,0.3-0.3,0.6-0.5,0.3c-0.2-0.5-2.5-5.4-3.5-4.9c-0.5,0.3,0.2,1.2,0.2,1.2s2.5,4.5,2.1,4.8c-0.5,0.3-2-2.3-2.5-3.2
					c-0.5-0.9-1.1-1.1-1.3-0.5c-0.2,0.4,1.2,3.2,1.7,4.1c0.5,0.9,1.9,3.3,0.2,2.6c-1.7-0.7-3.2-0.6-3.6-0.3c-0.4,0.3-0.1,1,0.5,0.9
					c0.4,0,1.2,0.2,1.8,0.4c0.5,0.1,0.9,0.4,1.3,0.6c0.3,0.2,0.6,0.5,0.9,0.7l0.5,0.4l9.5,23.3l-8.6,20l13.3,5l6-26.5L223,53.4l0,0
					c-0.6-2-1.5-3.9-1.9-5.1C220,45.9,219.8,46,219.6,46.1z"/>
			</g>
			<g id="XMLID_863_">
				<g id="XMLID_864_">
					<g id="XMLID_939_">
						<g id="XMLID_944_">
							<g id="XMLID_945_">
								<g id="XMLID_946_">
									<path id="XMLID_947_" class="st6" d="M261.8,249.7l0-1.1l-11.3,0.3l0.1,3.7l0.7,0c3.1,0.1,15.9,0.2,17.9-0.5
										C271.4,251.4,261.8,249.7,261.8,249.7z"/>
								</g>
							</g>
						</g>
						<g id="XMLID_940_" class="st19">
							<g id="XMLID_941_">
								<g id="XMLID_942_">
									<path id="XMLID_943_" class="st5" d="M254.6,252.4c-0.2-0.9-0.7-1.7-1.5-2.2c-0.8-0.5-1.7-0.8-2.7-0.7l0.1,2.9L254.6,252.4
										z"/>
								</g>
							</g>
						</g>
					</g>
					<g id="XMLID_935_" class="st19">
						<g id="XMLID_936_">
							<g id="XMLID_937_">
								<path id="XMLID_938_" class="st5" d="M266.5,250.7c0,0,3.4,0.8,3,1.3c-0.4,0.5-13.3,0.9-19,0.6l0-0.2l15-0.3
									C265.6,252.1,265.9,250.7,266.5,250.7z"/>
							</g>
						</g>
					</g>
					<g id="XMLID_930_">
						<g id="XMLID_931_">
							<g id="XMLID_932_">
								<g id="XMLID_933_">
									<path id="XMLID_934_" class="st16" d="M250.3,252.3c0,0,0.1,0,0.2,0c0.2,0,0.4,0,0.6,0c0.6,0,1.2,0,2.1,0
										c1.7,0,4.1,0,6.8-0.1c2.6-0.1,5-0.2,6.8-0.3c0.8-0.1,1.5-0.1,2-0.1c0.2,0,0.4,0,0.6,0c0.1,0,0.2,0,0.2,0s-0.1,0-0.2,0
										c-0.2,0-0.4,0-0.6,0c-0.6,0-1.2,0.1-2.1,0.1c-1.7,0.1-4.1,0.2-6.8,0.2c-2.6,0.1-5,0.1-6.8,0.1c-0.8,0-1.5,0-2.1,0
										c-0.2,0-0.4,0-0.6,0C250.4,252.3,250.3,252.3,250.3,252.3z"/>
								</g>
							</g>
						</g>
					</g>
					<g id="XMLID_925_">
						<g id="XMLID_926_">
							<g id="XMLID_927_">
								<g id="XMLID_928_">
									<path id="XMLID_929_" class="st16" d="M265.6,252.2c0,0,0.1-0.5,0.4-0.9c0.3-0.5,0.7-0.7,0.7-0.7c0,0-0.5,0.2-0.8,0.7
										C265.5,251.7,265.5,252.2,265.6,252.2z"/>
								</g>
							</g>
						</g>
					</g>
					<g id="XMLID_920_">
						<g id="XMLID_921_">
							<g id="XMLID_922_">
								<g id="XMLID_923_">
									<path id="XMLID_924_" class="st16" d="M262.2,250.7c0,0,0.2-0.2,0.3-0.4c0.2-0.2,0.3-0.5,0.2-0.5c0,0-0.2,0.2-0.3,0.4
										C262.2,250.5,262.1,250.7,262.2,250.7z"/>
								</g>
							</g>
						</g>
					</g>
					<g id="XMLID_915_">
						<g id="XMLID_916_">
							<g id="XMLID_917_">
								<g id="XMLID_918_">
									<path id="XMLID_919_" class="st16" d="M261.3,250.3c0,0,0.2-0.1,0.4-0.3c0.2-0.2,0.3-0.3,0.3-0.3c0,0-0.2,0.1-0.4,0.3
										C261.4,250.1,261.2,250.3,261.3,250.3z"/>
								</g>
							</g>
						</g>
					</g>
					<g id="XMLID_910_">
						<g id="XMLID_911_">
							<g id="XMLID_912_">
								<g id="XMLID_913_">
									
										<ellipse id="XMLID_914_" transform="matrix(0.9999 -1.584815e-002 1.584815e-002 0.9999 -3.9186 4.1714)" class="st16" cx="261.2" cy="249.3" rx="0.6" ry="0.1"/>
								</g>
							</g>
						</g>
					</g>
					<g id="XMLID_905_">
						<g id="XMLID_906_">
							<g id="XMLID_907_">
								<g id="XMLID_908_">
									<path id="XMLID_909_" class="st16" d="M260.4,248.6c0,0,0.3,0.1,0.7,0.2c0.4,0,0.7-0.1,0.7-0.1c0,0-0.3,0-0.7,0
										C260.7,248.7,260.4,248.6,260.4,248.6z"/>
								</g>
							</g>
						</g>
					</g>
					<g id="XMLID_900_">
						<g id="XMLID_901_">
							<g id="XMLID_902_">
								<g id="XMLID_903_">
									<path id="XMLID_904_" class="st16" d="M262.5,249.8c0,0,0.3,0,0.7,0c0.2,0,0.5-0.1,0.8-0.2c0.1-0.1,0.3-0.1,0.4-0.2
										c0.1,0,0.1-0.1,0.2-0.2c0-0.1,0-0.2-0.1-0.3c-0.7-0.3-1.4,0.1-1.6,0.4c-0.1,0.2-0.2,0.3-0.2,0.5c0,0.1,0,0.2,0,0.2
										c0,0,0-0.3,0.3-0.6c0.1-0.2,0.3-0.3,0.6-0.4c0.3-0.1,0.6-0.1,0.9,0c0.1,0.1,0.1,0.2,0,0.3c-0.1,0.1-0.3,0.1-0.4,0.2
										c-0.3,0.1-0.5,0.2-0.7,0.2C262.8,249.8,262.5,249.8,262.5,249.8z"/>
								</g>
							</g>
						</g>
					</g>
					<g id="XMLID_895_">
						<g id="XMLID_896_">
							<g id="XMLID_897_">
								<g id="XMLID_898_">
									<path id="XMLID_899_" class="st16" d="M262.7,249.8c0,0,0.1-0.2,0.1-0.5c0-0.1-0.1-0.3-0.2-0.5c-0.1-0.1-0.3-0.3-0.6-0.3
										c-0.2,0-0.2,0.2-0.2,0.3c0,0.1,0.1,0.2,0.1,0.3c0.1,0.2,0.2,0.3,0.4,0.4C262.5,249.8,262.7,249.8,262.7,249.8
										c0,0-0.2-0.1-0.4-0.3c-0.1-0.1-0.2-0.2-0.3-0.4c-0.1-0.1-0.2-0.4,0-0.4c0.2,0,0.4,0.1,0.5,0.3c0.1,0.1,0.2,0.3,0.2,0.4
										C262.8,249.7,262.7,249.8,262.7,249.8z"/>
								</g>
							</g>
						</g>
					</g>
					<g id="XMLID_890_">
						<g id="XMLID_891_">
							<g id="XMLID_892_">
								<g id="XMLID_893_">
									<path id="XMLID_894_" class="st16" d="M250.5,249.5c0,0,0.3,0,0.8,0c0.5,0,1.2,0.2,1.8,0.6c0.6,0.4,1,1,1.2,1.5
										c0.2,0.4,0.2,0.7,0.2,0.7c0,0,0-0.1,0-0.2c0-0.1-0.1-0.3-0.1-0.6c-0.2-0.5-0.5-1.1-1.2-1.5c-0.7-0.5-1.4-0.6-1.9-0.6
										c-0.3,0-0.5,0-0.6,0C250.6,249.4,250.5,249.4,250.5,249.5z"/>
								</g>
							</g>
						</g>
					</g>
					<g id="XMLID_885_">
						<g id="XMLID_886_">
							<g id="XMLID_887_">
								<g id="XMLID_888_">
									<path id="XMLID_889_" class="st16" d="M256,251.3c0,0,0.7,0.1,1.7,0.1c0.9,0,1.7-0.1,1.6-0.2c0,0-0.7,0-1.6,0
										C256.7,251.3,256,251.3,256,251.3z"/>
								</g>
							</g>
						</g>
					</g>
					<g id="XMLID_880_">
						<g id="XMLID_881_">
							<g id="XMLID_882_">
								<g id="XMLID_883_">
									<path id="XMLID_884_" class="st16" d="M253.8,251.4c0,0,0.1,0.1,0.1,0.3c0.1,0.2,0.1,0.3,0.2,0.3c0,0,0.1-0.2,0-0.3
										C254,251.4,253.8,251.3,253.8,251.4z"/>
								</g>
							</g>
						</g>
					</g>
					<g id="XMLID_875_">
						<g id="XMLID_876_">
							<g id="XMLID_877_">
								<g id="XMLID_878_">
									<path id="XMLID_879_" class="st16" d="M252.9,250.4c0,0,0.1,0.1,0.2,0.2c0.1,0.1,0.2,0.2,0.3,0.1c0,0,0-0.1-0.2-0.2
										C253.1,250.5,252.9,250.4,252.9,250.4z"/>
								</g>
							</g>
						</g>
					</g>
					<g id="XMLID_870_">
						<g id="XMLID_871_">
							<g id="XMLID_872_">
								<g id="XMLID_873_">
									<path id="XMLID_874_" class="st16" d="M251.7,250c0,0,0.2,0,0.3,0.1c0.2,0,0.3,0.1,0.3,0.1c0,0-0.1-0.2-0.3-0.2
										C251.9,249.9,251.7,250,251.7,250z"/>
								</g>
							</g>
						</g>
					</g>
					<g id="XMLID_865_">
						<g id="XMLID_866_">
							<g id="XMLID_867_">
								<g id="XMLID_868_">
									
										<ellipse id="XMLID_869_" transform="matrix(0.3139 -0.9494 0.9494 0.3139 -65.0336 409.7801)" class="st16" cx="251" cy="249.9" rx="0.1" ry="0.2"/>
								</g>
							</g>
						</g>
					</g>
				</g>
			</g>
			<g id="XMLID_702_">
				<g id="XMLID_861_">
					<path id="XMLID_862_" class="st6" d="M236.7,110.7l-3.1,16c6.4,8.9,7,16.6,7,16.6l-34.6,4c0-6.3,4.6-16.4,4.6-16.4l-5.6-19
						L195,99l10-9c-0.2,0.5,9.4,6,9.4,6l13.7,0.1c0,0,0.8,0.1,2,0.4l6.7-17.4c0,0,5.8,6.9,4.8,16.9
						C240.4,107.1,239.1,104.4,236.7,110.7"/>
				</g>
				<g id="XMLID_858_">
					<g id="XMLID_859_">
						<path id="XMLID_860_" class="st4" d="M217.7,124.8c0,0,0,0.1-0.1,0.3c-0.1,0.2-0.3,0.4-0.5,0.7c-0.3,0.3-0.7,0.5-1.2,0.6
							c-0.3,0-0.6-0.1-0.8-0.2c-0.2-0.1-0.5-0.3-0.7-0.5c-0.4-0.3-0.9-0.4-1.4-0.4c-0.5,0-0.8,0.2-1.1,0.4c-0.6,0.4-0.7,0.9-0.7,0.9
							c0,0,0-0.5,0.6-1c0.3-0.3,0.7-0.5,1.2-0.5c0.5-0.1,1.1,0.1,1.6,0.4c0.5,0.3,0.8,0.7,1.3,0.7c0.4,0,0.8-0.2,1.1-0.5
							C217.4,125.2,217.7,124.8,217.7,124.8z"/>
					</g>
				</g>
				<g id="XMLID_855_">
					<g id="XMLID_856_">
						<path id="XMLID_857_" class="st4" d="M234.8,135.5c0,0,0,0.1-0.1,0.3c-0.1,0.2-0.3,0.4-0.5,0.7c-0.3,0.3-0.7,0.5-1.2,0.6
							c-0.3,0-0.6-0.1-0.8-0.2c-0.2-0.1-0.5-0.3-0.7-0.5c-0.4-0.3-0.9-0.4-1.4-0.4c-0.5,0-0.8,0.2-1.1,0.4c-0.6,0.4-0.7,0.9-0.7,0.9
							c0,0,0-0.5,0.6-1c0.3-0.3,0.7-0.5,1.2-0.5c0.5-0.1,1.1,0.1,1.6,0.4c0.5,0.3,0.8,0.7,1.3,0.7c0.4,0,0.8-0.2,1.1-0.5
							C234.5,135.9,234.8,135.5,234.8,135.5z"/>
					</g>
				</g>
				<g id="XMLID_852_">
					<g id="XMLID_853_">
						<path id="XMLID_854_" class="st4" d="M223.8,118.6c0,0,0.1,0.1,0.2,0.2c0.1,0.2,0.3,0.4,0.5,0.7c0.2,0.3,0.3,0.8,0.1,1.3
							c-0.1,0.3-0.3,0.5-0.5,0.7c-0.2,0.2-0.5,0.3-0.7,0.5c-0.4,0.3-0.7,0.7-0.9,1.2c-0.1,0.4-0.1,0.9,0,1.2c0.2,0.7,0.6,1,0.6,1
							c0,0-0.5-0.2-0.8-0.9c-0.1-0.4-0.2-0.8-0.1-1.3c0.1-0.5,0.5-1,1-1.3c0.5-0.3,0.9-0.6,1.1-1c0.1-0.4,0.1-0.9-0.1-1.2
							C224.1,119,223.8,118.6,223.8,118.6z"/>
					</g>
				</g>
				<g id="XMLID_849_">
					<g id="XMLID_850_">
						<path id="XMLID_851_" class="st4" d="M225.5,133.9c0,0,0-0.1,0-0.3c0-0.2,0.1-0.5,0.2-0.9c0.1-0.3,0.4-0.8,0.9-1
							c0.2-0.1,0.5-0.2,0.8-0.1c0.3,0,0.5,0.1,0.8,0.2c0.5,0.1,1,0.1,1.4-0.1c0.4-0.2,0.7-0.5,0.9-0.8c0.3-0.6,0.3-1.1,0.3-1.1
							c0,0,0.2,0.5-0.2,1.2c-0.2,0.3-0.5,0.7-0.9,1c-0.5,0.2-1.1,0.3-1.6,0.2c-0.6-0.1-1-0.3-1.5-0.1c-0.4,0.2-0.7,0.5-0.8,0.8
							C225.6,133.4,225.6,133.9,225.5,133.9z"/>
					</g>
				</g>
				<g id="XMLID_846_">
					<g id="XMLID_847_">
						<path id="XMLID_848_" class="st4" d="M227.7,142.1c0,0,0-0.1,0.2-0.3c0.1-0.2,0.3-0.4,0.7-0.6c0.3-0.2,0.8-0.4,1.3-0.3
							c0.3,0,0.5,0.2,0.7,0.4c0.2,0.2,0.4,0.4,0.6,0.6c0.4,0.4,0.8,0.6,1.3,0.7c0.5,0.1,0.9,0,1.2-0.2c0.6-0.3,0.9-0.8,0.9-0.7
							c0,0-0.1,0.5-0.8,0.9c-0.3,0.2-0.8,0.3-1.3,0.3c-0.5,0-1.1-0.3-1.5-0.7c-0.4-0.4-0.7-0.8-1.1-0.9c-0.4-0.1-0.9,0.1-1.2,0.2
							C228,141.8,227.7,142.1,227.7,142.1z"/>
					</g>
				</g>
				<g id="XMLID_843_">
					<g id="XMLID_844_">
						<path id="XMLID_845_" class="st4" d="M209.1,142.7c0,0,0.1-0.1,0.2-0.2c0.2-0.1,0.4-0.3,0.8-0.4c0.4-0.1,0.9-0.2,1.3,0
							c0.2,0.1,0.5,0.3,0.6,0.5c0.2,0.2,0.3,0.5,0.4,0.7c0.2,0.5,0.6,0.8,1.1,1c0.4,0.2,0.9,0.2,1.2,0.1c0.7-0.2,1-0.5,1-0.5
							c0,0-0.2,0.4-1,0.7c-0.4,0.1-0.9,0.1-1.3-0.1c-0.5-0.2-1-0.6-1.2-1.1c-0.3-0.5-0.5-1-0.9-1.2c-0.4-0.2-0.8-0.2-1.2-0.1
							C209.5,142.4,209.1,142.7,209.1,142.7z"/>
					</g>
				</g>
				<g id="XMLID_840_">
					<g id="XMLID_841_">
						<path id="XMLID_842_" class="st4" d="M228.3,114.4c0,0,0.1-0.1,0.3-0.1c0.2,0,0.5-0.1,0.9-0.1c0.4,0,0.9,0.2,1.2,0.5
							c0.2,0.2,0.3,0.5,0.4,0.7c0.1,0.3,0.1,0.6,0.1,0.8c0,0.5,0.3,1,0.6,1.3c0.3,0.3,0.7,0.5,1.1,0.6c0.7,0.1,1.1-0.1,1.1,0
							c0,0-0.4,0.3-1.2,0.2c-0.4,0-0.8-0.2-1.2-0.6c-0.4-0.4-0.7-0.9-0.7-1.5c0-0.6,0-1.1-0.3-1.4c-0.3-0.3-0.7-0.5-1.1-0.5
							C228.8,114.4,228.3,114.5,228.3,114.4z"/>
					</g>
				</g>
				<g id="XMLID_837_">
					<g id="XMLID_838_">
						<path id="XMLID_839_" class="st4" d="M238.6,88.6c0,0,0.1,0.1,0.3,0.2c0.1,0.2,0.3,0.4,0.5,0.7c0.2,0.3,0.3,0.8,0.2,1.3
							c-0.1,0.3-0.2,0.5-0.4,0.7c-0.2,0.2-0.4,0.3-0.7,0.5c-0.4,0.3-0.7,0.8-0.8,1.2c-0.1,0.4-0.1,0.9,0.1,1.2
							c0.3,0.7,0.7,0.9,0.6,1c0,0-0.5-0.2-0.8-0.9c-0.2-0.3-0.3-0.8-0.1-1.3c0.1-0.5,0.4-1,0.9-1.4c0.5-0.3,0.9-0.6,1-1
							c0.1-0.4,0-0.9-0.1-1.2C238.8,89,238.5,88.7,238.6,88.6z"/>
					</g>
				</g>
				<g id="XMLID_834_">
					<g id="XMLID_835_">
						<path id="XMLID_836_" class="st4" d="M221.8,111c0,0,0.1-0.1,0.3-0.1c0.2,0,0.5-0.1,0.9-0.1c0.4,0,0.9,0.2,1.2,0.5
							c0.2,0.2,0.3,0.5,0.4,0.7c0.1,0.3,0.1,0.6,0.1,0.8c0,0.5,0.3,1,0.6,1.3c0.3,0.3,0.7,0.5,1.1,0.6c0.7,0.1,1.1-0.1,1.1,0
							c0,0-0.4,0.3-1.2,0.2c-0.4,0-0.8-0.2-1.2-0.6c-0.4-0.4-0.7-0.9-0.7-1.5c0-0.6,0-1.1-0.3-1.4c-0.3-0.3-0.7-0.5-1.1-0.5
							C222.2,111,221.8,111.1,221.8,111z"/>
					</g>
				</g>
				<g id="XMLID_831_">
					<g id="XMLID_832_">
						<path id="XMLID_833_" class="st4" d="M234.1,96.2c0,0,0.1-0.1,0.3-0.1c0.2,0,0.5-0.1,0.9-0.1c0.4,0,0.9,0.2,1.2,0.5
							c0.2,0.2,0.3,0.5,0.4,0.7c0.1,0.3,0.1,0.6,0.1,0.8c0,0.5,0.3,1,0.6,1.3c0.3,0.3,0.7,0.5,1.1,0.6c0.7,0.1,1.1-0.1,1.1,0
							c0,0-0.4,0.3-1.2,0.2c-0.4,0-0.8-0.2-1.2-0.6c-0.4-0.4-0.7-0.9-0.7-1.5c0-0.6,0-1.1-0.3-1.4c-0.3-0.3-0.7-0.5-1.1-0.5
							C234.6,96.2,234.1,96.3,234.1,96.2z"/>
					</g>
				</g>
				<g id="XMLID_828_">
					<g id="XMLID_829_">
						<path id="XMLID_830_" class="st4" d="M209,114.6c0,0,0.1,0,0.3,0.1c0.2,0.1,0.5,0.2,0.7,0.5c0.3,0.3,0.6,0.6,0.6,1.2
							c0,0.3,0,0.6-0.2,0.8c-0.1,0.3-0.3,0.5-0.4,0.7c-0.3,0.4-0.4,1-0.3,1.4c0.1,0.5,0.3,0.8,0.5,1.1c0.5,0.5,0.9,0.6,0.9,0.7
							c0,0-0.5,0-1.1-0.5c-0.3-0.3-0.5-0.7-0.6-1.2c-0.1-0.5,0-1.1,0.4-1.6c0.3-0.5,0.6-0.9,0.6-1.3c0-0.4-0.3-0.8-0.5-1.1
							C209.4,114.8,209,114.6,209,114.6z"/>
					</g>
				</g>
				<g id="XMLID_825_">
					<g id="XMLID_826_">
						<path id="XMLID_827_" class="st4" d="M202.9,99c0,0,0.1-0.1,0.3-0.1c0.2-0.1,0.5-0.1,0.9-0.1c0.4,0,0.9,0.1,1.3,0.5
							c0.2,0.2,0.3,0.5,0.4,0.7c0.1,0.3,0.1,0.6,0.1,0.8c0.1,0.5,0.3,1,0.6,1.3c0.3,0.3,0.7,0.5,1.1,0.5c0.7,0.1,1.1-0.1,1.1-0.1
							c0,0-0.4,0.3-1.2,0.3c-0.4,0-0.8-0.2-1.2-0.5c-0.4-0.3-0.7-0.9-0.8-1.5c-0.1-0.6-0.1-1.1-0.4-1.4c-0.3-0.3-0.7-0.4-1.1-0.5
							C203.4,98.9,202.9,99,202.9,99z"/>
					</g>
				</g>
				<g id="XMLID_822_">
					<g id="XMLID_823_">
						<path id="XMLID_824_" class="st4" d="M203.8,92.4c0,0,0.1-0.1,0.3-0.1c0.2-0.1,0.5-0.1,0.9-0.1c0.4,0,0.9,0.1,1.3,0.5
							c0.2,0.2,0.3,0.5,0.4,0.7c0.1,0.3,0.1,0.6,0.1,0.8c0.1,0.5,0.3,1,0.6,1.3c0.3,0.3,0.7,0.5,1.1,0.5c0.7,0.1,1.1-0.1,1.1-0.1
							c0,0-0.4,0.3-1.2,0.3c-0.4,0-0.8-0.2-1.2-0.5c-0.4-0.3-0.7-0.9-0.8-1.5c-0.1-0.6-0.1-1.1-0.4-1.4c-0.3-0.3-0.7-0.4-1.1-0.5
							C204.3,92.4,203.8,92.5,203.8,92.4z"/>
					</g>
				</g>
				<g id="XMLID_721_">
					<g id="XMLID_820_">
						<path id="XMLID_821_" class="st4" d="M203.7,107.8c0,0,0.1-0.1,0.3-0.1c0.2-0.1,0.5-0.1,0.9-0.1c0.4,0,0.9,0.1,1.3,0.5
							c0.2,0.2,0.3,0.5,0.4,0.7c0.1,0.3,0.1,0.6,0.1,0.8c0.1,0.5,0.3,1,0.6,1.3c0.3,0.3,0.7,0.5,1.1,0.5c0.7,0.1,1.1-0.1,1.1-0.1
							c0,0-0.4,0.3-1.2,0.3c-0.4,0-0.8-0.2-1.2-0.5c-0.4-0.3-0.7-0.9-0.8-1.5c-0.1-0.6-0.1-1.1-0.4-1.4c-0.3-0.3-0.7-0.4-1.1-0.5
							C204.1,107.7,203.7,107.8,203.7,107.8z"/>
					</g>
				</g>
				<g id="XMLID_718_">
					<g id="XMLID_719_">
						<path id="XMLID_720_" class="st4" d="M199.3,97.7c0,0,0.1,0,0.3,0.1c0.2,0.1,0.5,0.2,0.7,0.5c0.3,0.3,0.6,0.6,0.6,1.2
							c0,0.3,0,0.6-0.2,0.8c-0.1,0.3-0.3,0.5-0.4,0.7c-0.3,0.4-0.4,1-0.3,1.4c0.1,0.5,0.3,0.8,0.5,1.1c0.5,0.5,0.9,0.6,0.9,0.7
							c0,0-0.5,0-1.1-0.5c-0.3-0.3-0.5-0.7-0.6-1.2c-0.1-0.5,0-1.1,0.4-1.6c0.3-0.5,0.6-0.9,0.6-1.3c0-0.4-0.3-0.8-0.5-1.1
							C199.7,98,199.3,97.8,199.3,97.7z"/>
					</g>
				</g>
				<g id="XMLID_715_">
					<g id="XMLID_716_">
						<path id="XMLID_717_" class="st4" d="M227.4,122.9c0,0,0.1-0.1,0.3-0.1c0.2,0,0.5-0.1,0.9-0.1c0.4,0,0.9,0.2,1.2,0.5
							c0.2,0.2,0.3,0.5,0.4,0.7c0.1,0.3,0.1,0.6,0.1,0.8c0,0.5,0.3,1,0.6,1.3c0.3,0.3,0.7,0.5,1.1,0.6c0.7,0.1,1.1-0.1,1.1,0
							c0,0-0.4,0.3-1.2,0.2c-0.4,0-0.8-0.2-1.2-0.6c-0.4-0.4-0.7-0.9-0.7-1.5c0-0.6,0-1.1-0.3-1.4c-0.3-0.3-0.7-0.5-1.1-0.5
							C227.8,122.8,227.4,122.9,227.4,122.9z"/>
					</g>
				</g>
				<g id="XMLID_712_">
					<g id="XMLID_713_">
						<path id="XMLID_714_" class="st4" d="M211.2,137.7c0,0,0-0.1,0.1-0.3c0.1-0.2,0.2-0.5,0.5-0.8c0.2-0.3,0.6-0.6,1.2-0.7
							c0.3,0,0.6,0,0.8,0.1c0.3,0.1,0.5,0.3,0.7,0.4c0.5,0.3,1,0.4,1.4,0.3c0.5-0.1,0.8-0.3,1.1-0.5c0.5-0.5,0.6-1,0.6-0.9
							c0,0,0,0.5-0.5,1.1c-0.3,0.3-0.7,0.6-1.2,0.6c-0.5,0.1-1.1,0-1.6-0.3c-0.5-0.3-0.9-0.6-1.4-0.5c-0.4,0-0.8,0.3-1,0.6
							C211.5,137.3,211.3,137.7,211.2,137.7z"/>
					</g>
				</g>
				<g id="XMLID_709_">
					<g id="XMLID_710_">
						<path id="XMLID_711_" class="st4" d="M221.5,142.6c0,0-0.1-0.1-0.2-0.3c-0.1-0.2-0.2-0.5-0.2-0.9c0-0.4,0-0.9,0.3-1.3
							c0.2-0.2,0.4-0.4,0.7-0.5c0.3-0.1,0.5-0.1,0.8-0.2c0.5-0.1,0.9-0.4,1.2-0.8c0.3-0.4,0.4-0.8,0.4-1.1c0-0.7-0.3-1.1-0.2-1.1
							c0,0,0.4,0.3,0.4,1.1c0,0.4-0.1,0.9-0.4,1.3c-0.3,0.4-0.8,0.8-1.4,0.9c-0.6,0.1-1.1,0.2-1.3,0.6c-0.3,0.3-0.4,0.8-0.3,1.1
							C221.3,142.1,221.5,142.6,221.5,142.6z"/>
					</g>
				</g>
				<g id="XMLID_706_">
					<g id="XMLID_707_">
						<path id="XMLID_708_" class="st4" d="M215.4,131c0,0,0.1-0.1,0.2-0.2c0.2-0.1,0.4-0.3,0.7-0.5c0.3-0.2,0.8-0.3,1.3-0.2
							c0.3,0.1,0.5,0.2,0.7,0.5c0.2,0.2,0.3,0.5,0.5,0.7c0.3,0.4,0.7,0.7,1.2,0.8c0.4,0.1,0.9,0.1,1.2,0c0.7-0.2,0.9-0.6,1-0.6
							c0,0-0.2,0.5-0.9,0.8c-0.3,0.2-0.8,0.2-1.3,0.1c-0.5-0.1-1-0.4-1.4-0.9c-0.3-0.5-0.6-0.9-1-1c-0.4-0.1-0.9,0-1.2,0.1
							C215.8,130.7,215.5,131,215.4,131z"/>
					</g>
				</g>
				<g id="XMLID_703_">
					<g id="XMLID_704_">
						<path id="XMLID_705_" class="st4" d="M213.4,118c0,0,0.1-0.1,0.2-0.3c0.1-0.1,0.4-0.3,0.7-0.5c0.3-0.2,0.8-0.3,1.3-0.2
							c0.3,0.1,0.5,0.2,0.7,0.4c0.2,0.2,0.3,0.4,0.5,0.7c0.3,0.4,0.8,0.7,1.2,0.8c0.4,0.1,0.9,0,1.2-0.1c0.7-0.3,0.9-0.7,1-0.6
							c0,0-0.2,0.5-0.9,0.8c-0.3,0.2-0.8,0.3-1.3,0.2c-0.5-0.1-1-0.4-1.4-0.9c-0.3-0.5-0.6-0.9-1-1c-0.4-0.1-0.9,0-1.2,0.1
							C213.8,117.7,213.5,118.1,213.4,118z"/>
					</g>
				</g>
			</g>
			<g id="XMLID_673_">
				<g id="XMLID_697_">
					<g id="XMLID_700_">
						<path id="XMLID_701_" class="st16" d="M215,69.2c-2.9,1.3-4,4.5-4.3,7.4c-0.3,2.9,0,6-1.1,8.7c-0.9,2.3-2.9,4.4-2.7,6.9
							c0.2,1.8,1.5,3.5,1.8,5.3c0.5,3.5-3.3,6.7-2.6,10.2c0.3,1.6,1.5,3,3,3.9c1.5,1,3.2,1.5,4.9,2.1c2.3,0.8,4.8,1.5,7.1,0.7
							c2-0.7,3.4-2.5,5.4-3.1c2-0.5,4.1,0.3,6.2,0.4c1.9,0,3.8-0.6,5.1-1.9c1.2-1.3,1.7-3.2,1.1-4.8c-0.9-2.3-3.8-3.7-4.2-6.1
							c-0.4-2.2,1.4-4.3,0.8-6.4c-0.6-2.4-3.8-3.6-4.6-6c-0.9-2.8,2-5.8,0.9-8.5c-0.7-1.6-2.6-2.6-3.1-4.3c-0.4-1.1,0-2.4-0.2-3.5
							c-0.4-2-2.7-3.3-4.9-3.7c-2.7-0.6-5.6-0.2-7.9,1.1c-2.3,1.3-3.9,3.6-4.1,6.1"/>
					</g>
					<g id="XMLID_698_">
						<path id="XMLID_699_" class="st16" d="M219.3,67.2c2.6-1,5.7-0.8,8.1,0.6c2.5,1.4,4.3,3.8,4.8,6.6c0.4,2.2,0.1,4.6,1.1,6.7
							c1,2.2,3.5,3.8,3.9,6.2c0.4,2.3-1.4,4.5-1.8,6.8c-0.4,2.4,0.8,4.9,0.5,7.4c-0.3,2.4-2.1,4.6-4.4,5.4c-2.3,0.7-5.1,0-6.7-1.8"
							/>
					</g>
				</g>
				<g id="XMLID_695_">
					<path id="XMLID_696_" class="st16" d="M226.9,72.2c0.2-1.7,1.3-3.3,2.8-4.2c1.5-0.9,3.4-1,5-0.4c0.9,0.4,1.8,1,2.2,1.9
						c0.6,1.1,0.5,2.3,0.2,3.5c-0.5,1.8-1.8,3.4-3.5,4.1c-1.7,0.7-3.8,0.5-5.2-0.6c-1.4-1.2-2-3.3-1.2-5"/>
				</g>
				<g id="XMLID_692_">
					<g id="XMLID_693_">
						<path id="XMLID_694_" class="st6" d="M231.2,77.2c0,0-0.2,0-0.5,0.1c-0.3,0-0.8,0.1-1.4,0c-0.6,0-1.3-0.1-2.1-0.5
							c-0.7-0.3-1.5-1-1.8-1.8c-0.4-0.9-0.4-1.8-0.2-2.6c0.2-0.8,0.6-1.4,1-1.9c0.4-0.5,0.8-0.8,1-1c0.3-0.2,0.4-0.3,0.5-0.3
							c0,0-0.6,0.4-1.3,1.4c-0.3,0.5-0.7,1.1-0.9,1.8c-0.2,0.7-0.1,1.6,0.2,2.4c0.3,0.8,1,1.4,1.7,1.7c0.7,0.3,1.4,0.4,2,0.5
							C230.4,77.2,231.2,77.1,231.2,77.2z"/>
					</g>
				</g>
				<g id="XMLID_689_">
					<g id="XMLID_690_">
						<path id="XMLID_691_" class="st17" d="M231.8,76.6c0,0-0.4,0.4-0.6,1.4c-0.1,0.5-0.2,1.1-0.1,1.8c0.1,0.7,0.3,1.5,0.6,2.3
							c0.3,0.8,0.8,1.7,1.3,2.6c0.5,0.9,1,2,1.2,3.2c0.2,1.2,0.1,2.6-0.6,3.7c-0.7,1.1-1.9,2.1-3.4,2.3l-0.2,0l0-0.2
							c0-0.7,0.1-1.5,0.1-2.2l0.3,0.1c-0.2,0.4-0.5,0.8-0.8,1.1c-0.7,0.6-1.7,0.9-2.6,0.7l-0.2,0l0.1-0.2c0.7-1.3,1.3-2.6,1.5-3.9
							c0.1-0.7,0.1-1.3-0.1-1.9c-0.1-0.6-0.4-1.2-0.8-1.7c-0.7-1-1.6-1.8-2.2-2.7c-0.6-0.9-1-1.9-1.2-2.8c-0.4-1.9-0.1-3.4,0.3-4.4
							c0.4-1,0.7-1.4,0.7-1.4c0,0-0.3,0.5-0.6,1.5c-0.3,1-0.6,2.5-0.2,4.3c0.2,0.9,0.6,1.9,1.2,2.7c0.6,0.9,1.5,1.7,2.2,2.7
							c0.4,0.5,0.7,1.1,0.9,1.8c0.2,0.7,0.2,1.4,0.1,2c-0.2,1.4-0.8,2.7-1.5,4L227,93c0.8,0.2,1.7,0,2.4-0.6c0.3-0.3,0.6-0.6,0.7-1
							l0.3-0.8l-0.1,0.9c0,0.8-0.1,1.5-0.1,2.2l-0.2-0.2c1.3-0.3,2.5-1.1,3.2-2.2c0.7-1.1,0.8-2.4,0.6-3.5c-0.2-1.2-0.7-2.2-1.2-3.1
							c-0.5-0.9-0.9-1.8-1.2-2.7c-0.3-0.8-0.5-1.6-0.6-2.3c-0.1-0.7,0-1.3,0.2-1.8c0.1-0.5,0.3-0.8,0.5-1
							C231.7,76.7,231.8,76.6,231.8,76.6z"/>
					</g>
				</g>
				<g id="XMLID_686_">
					<g id="XMLID_687_">
						<path id="XMLID_688_" class="st17" d="M233.8,67.6c0,0,0.1,0.1,0.2,0.4c0.1,0.3,0.1,0.7,0.2,1.3c0.1,1.1-0.2,2.6-1,4
							c-0.8,1.4-2.1,2.4-3,2.9c-0.5,0.2-0.9,0.4-1.2,0.5c-0.3,0.1-0.5,0.1-0.5,0.1c0-0.1,0.6-0.2,1.5-0.7c0.9-0.5,2.1-1.5,2.9-2.8
							c0.8-1.4,1-2.9,1-3.9C233.9,68.2,233.8,67.6,233.8,67.6z"/>
					</g>
				</g>
				<g id="XMLID_683_">
					<g id="XMLID_684_">
						<path id="XMLID_685_" class="st17" d="M232.2,74.7c0,0-0.4,0.1-1.2,0c-0.7-0.1-1.7-0.4-2.6-1.1c-0.9-0.7-1.4-1.7-1.6-2.4
							c-0.2-0.7-0.2-1.2-0.2-1.2c0,0,0.1,0.4,0.4,1.1c0.3,0.7,0.8,1.5,1.6,2.2c0.8,0.7,1.8,1,2.4,1.2
							C231.8,74.6,232.2,74.6,232.2,74.7z"/>
					</g>
				</g>
				<g id="XMLID_680_">
					<g id="XMLID_681_">
						<path id="XMLID_682_" class="st17" d="M220.3,114.5c0,0,0.8-0.2,1.8-1.1c1-0.9,2.3-2.5,2.7-4.9c0.4-2.4-0.1-5.4-1.7-8.2
							c-0.8-1.4-1.9-2.7-2.9-4.1c-0.5-0.7-1-1.5-1.4-2.3c-0.4-0.8-0.6-1.8-0.7-2.7c-0.1-1.9,0.4-3.7,1.1-5.4
							c0.7-1.6,1.5-3.1,2.3-4.6c0.7-1.4,1.3-2.9,1.5-4.3c0.3-1.4,0.2-2.7-0.1-3.9c-0.5-2.4-1.7-4.1-2.6-5c-1-1-1.7-1.3-1.6-1.3
							c0,0,0,0,0.1,0.1c0.1,0.1,0.2,0.1,0.4,0.2c0.3,0.2,0.7,0.5,1.2,1c1,1,2.2,2.7,2.7,5.1c0.3,1.2,0.4,2.6,0.1,4
							c-0.2,1.4-0.8,2.9-1.5,4.4c-0.7,1.5-1.6,2.9-2.2,4.5c-0.7,1.6-1.2,3.4-1.1,5.2c0.1,1.8,1,3.5,2,4.9c1,1.4,2.1,2.7,2.9,4.2
							c1.6,2.8,2.1,5.9,1.6,8.4c-0.5,2.4-1.8,4.1-2.8,5c-0.5,0.4-1,0.7-1.4,0.8c-0.2,0.1-0.3,0.1-0.4,0.1
							C220.4,114.5,220.3,114.5,220.3,114.5z"/>
					</g>
				</g>
				<g id="XMLID_677_">
					<g id="XMLID_678_">
						<path id="XMLID_679_" class="st17" d="M215.5,114.2C215.5,114.2,215.5,114.2,215.5,114.2c-0.2-0.1-0.2-0.2-0.4-0.3
							c-0.2-0.3-0.5-0.6-0.7-1.2c-0.2-0.6-0.4-1.3-0.3-2.2c0.1-0.9,0.5-1.9,1.3-2.7c0.8-0.8,2-1.2,3.1-1.9c0.5-0.3,1-0.8,1.4-1.3
							c0.3-0.6,0.4-1.3,0.3-2c-0.2-1.4-1-2.8-2-3.9c-1.1-1.1-2.4-2.2-3.3-3.6c-0.5-0.7-0.8-1.5-1-2.3c-0.1-0.8-0.1-1.7,0-2.4
							c0.2-1.6,0.8-3,1.3-4.4c0.5-1.3,1-2.6,1.2-3.9c0.2-1.3,0.1-2.5-0.3-3.5c-0.2-0.5-0.5-0.9-0.8-1.3c-0.3-0.4-0.7-0.7-1-0.9
							c-0.7-0.5-1.3-1-1.7-1.4c-0.4-0.5-0.6-0.9-0.7-1.2c-0.1-0.3,0-0.5,0-0.5c0,0,0,0.2,0.1,0.5c0.1,0.3,0.3,0.7,0.7,1.2
							c0.4,0.4,1,0.9,1.7,1.4c0.3,0.3,0.7,0.6,1.1,0.9c0.3,0.4,0.6,0.8,0.8,1.4c0.4,1,0.6,2.3,0.4,3.6c-0.2,1.3-0.6,2.6-1.2,4
							c-0.5,1.4-1.1,2.8-1.3,4.3c-0.1,0.8-0.1,1.6,0,2.4c0.1,0.8,0.5,1.5,0.9,2.2c0.9,1.4,2.2,2.4,3.3,3.6c1.1,1.2,1.9,2.6,2.1,4.1
							c0.1,0.7,0,1.5-0.4,2.1c-0.3,0.6-0.9,1.1-1.5,1.4c-1.1,0.7-2.3,1-3.1,1.8c-0.8,0.8-1.1,1.7-1.2,2.6c-0.1,0.9,0,1.6,0.2,2.2
							C215,113.8,215.6,114.2,215.5,114.2z"/>
					</g>
				</g>
				<g id="XMLID_674_">
					<g id="XMLID_675_">
						<path id="XMLID_676_" class="st17" d="M231.6,110.2c0,0-0.1-0.1-0.2-0.3c-0.1-0.2-0.2-0.5-0.3-0.8c-0.1-0.4-0.1-0.8-0.1-1.4
							c0-0.5,0.1-1.1,0.3-1.8c0.1-0.7,0.3-1.4,0.4-2.1c0.1-0.4,0.1-0.8,0.1-1.2c0-0.4-0.1-0.8-0.2-1.2c-0.2-0.8-0.7-1.6-1.3-2.4
							c-0.6-0.7-1.3-1.4-2.1-2.1c-0.7-0.7-1.5-1.4-2.1-2.1c-0.6-0.7-1.1-1.6-1.5-2.4c-0.6-1.7-0.5-3.4-0.2-4.7
							c0.3-1.3,0.6-2.4,0.9-3.1c0.1-0.4,0.2-0.6,0.3-0.8c0.1-0.2,0.1-0.3,0.1-0.3c0,0,0,0.1-0.1,0.3c-0.1,0.2-0.1,0.5-0.2,0.8
							c-0.2,0.7-0.5,1.8-0.8,3.1c-0.2,1.3-0.3,2.9,0.3,4.6c0.6,1.6,2,3,3.5,4.4c0.7,0.7,1.5,1.4,2.1,2.1c0.6,0.8,1.1,1.6,1.3,2.5
							c0.1,0.4,0.2,0.9,0.2,1.3c0,0.4,0,0.8-0.1,1.2c-0.1,0.8-0.3,1.5-0.5,2.2c-0.1,0.7-0.3,1.2-0.3,1.8c0,0.5,0,1,0,1.3
							C231.4,109.9,231.7,110.2,231.6,110.2z"/>
					</g>
				</g>
			</g>
		</g>
	</g>
</g>
</svg>
