<?xml version="1.0" encoding="utf-8"?>
<!-- Generator: Adobe Illustrator 19.2.1, SVG Export Plug-In . SVG Version: 6.00 Build 0)  -->
<svg version="1.1" id="Layer_1" xmlns="http://www.w3.org/2000/svg" xmlns:xlink="http://www.w3.org/1999/xlink" x="0px" y="0px"
	 viewBox="0 0 68.8 62.8" style="enable-background:new 0 0 68.8 62.8;" xml:space="preserve">
<style type="text/css">
	.st0{fill:#b1b1b1;}
</style>
<g id="XMLID_444_">
	<g>
		<path id="XMLID_25_" class="st0" d="M46.2,12.7c3.5,0,6.4-2.9,6.4-6.4c0-3.5-2.9-6.4-6.4-6.4c-3.5,0-6.4,2.9-6.4,6.4
			C39.8,9.9,42.7,12.7,46.2,12.7z"/>
		<path id="XMLID_24_" class="st0" d="M17,12.7c3.5,0,6.4-2.9,6.4-6.4C23.4,2.9,20.6,0,17,0c-3.5,0-6.4,2.9-6.4,6.4
			C10.7,9.9,13.5,12.7,17,12.7z"/>
		<path id="XMLID_23_" class="st0" d="M65.9,33.3c0.2-0.9-0.1-1.8-0.9-2.5l-5.8-4.6l-5.3-13c-0.3-0.8-1-1.3-1.8-1.5
			c-1.5,1.6-3.6,2.6-6,2.6s-4.5-1-6-2.6c-0.8,0.2-1.5,0.7-1.8,1.5l-6.8,16.6l-6.8-16.6c-0.3-0.8-1-1.3-1.8-1.5
			c-1.5,1.6-3.6,2.6-6,2.6s-4.5-1-6-2.6c-0.8,0.2-1.5,0.7-1.8,1.5L0.2,35.3c-0.5,1.3,0.1,2.7,1.3,3.2c0.3,0.1,0.6,0.2,0.9,0.2
			c1,0,1.9-0.6,2.3-1.5L9.3,26v3.1L4.7,43.4c-0.8,2.4,1,4.9,3.5,4.9h1v11.3c0,1.8,1.5,3.3,3.3,3.2c1.7-0.1,3.1-1.5,3.1-3.3V48.2h2.6
			v11.3c0,1.8,1.5,3.3,3.3,3.2c1.7-0.1,3.1-1.6,3.1-3.3V48.2h1c2.5,0,4.3-2.5,3.5-4.9l-4.6-14.3V26l3.7,9c0.5,1.3,1.8,2.1,3.2,2.1
			l0,0c1.4,0,2.7-0.8,3.2-2.1l3.7-8.9v33.5c0,1.8,1.5,3.3,3.3,3.2c1.7-0.1,3.1-1.5,3.1-3.3V42.1c0-0.7,0.5-1.3,1.2-1.3
			c0.7,0,1.4,0.5,1.4,1.3v17.5c0,1.8,1.5,3.3,3.3,3.2c1.7-0.1,3.1-1.6,3.1-3.3V26l1.1,2.7c0.2,0.4,0.4,0.7,0.7,1l5.8,4.7
			c-0.7,0.8-1.2,1.8-1.2,2.9v24.2c0,0.6,0.5,1.2,1.1,1.2c0.6,0,1.2-0.5,1.2-1.1V37.3c0-1,0.7-1.9,1.7-2c1.1-0.1,2.1,0.8,2.1,1.9v2.9
			c0,0.6,0.5,1.2,1.1,1.2c0.6,0,1.2-0.5,1.2-1.1v-2.9C68.8,35.4,67.6,33.8,65.9,33.3z"/>
	</g>
</g>
</svg>
