<?xml version="1.0" encoding="utf-8"?>
<!-- Generator: Adobe Illustrator 19.0.0, SVG Export Plug-In . SVG Version: 6.00 Build 0)  -->
<svg version="1.1" id="Layer_1" xmlns="http://www.w3.org/2000/svg" xmlns:xlink="http://www.w3.org/1999/xlink" x="0px" y="0px"
	 viewBox="-271 365.2 68.8 62.8" style="enable-background:new -271 365.2 68.8 62.8;" xml:space="preserve">
<style type="text/css">
	.st0{fill:#FFFFFF;}
</style>
<g id="XMLID_444_">
	<g>
		<path id="XMLID_25_" class="st0" d="M-224.8,377.9c3.5,0,6.4-2.9,6.4-6.4s-2.9-6.4-6.4-6.4s-6.4,2.9-6.4,6.4
			C-231.2,375.1-228.3,377.9-224.8,377.9z"/>
		<path id="XMLID_24_" class="st0" d="M-254,377.9c3.5,0,6.4-2.9,6.4-6.4c0-3.4-2.8-6.3-6.4-6.3c-3.5,0-6.4,2.9-6.4,6.4
			C-260.3,375.1-257.5,377.9-254,377.9z"/>
		<path id="XMLID_23_" class="st0" d="M-205.1,398.5c0.2-0.9-0.1-1.8-0.9-2.5l-5.8-4.6l-5.3-13c-0.3-0.8-1-1.3-1.8-1.5
			c-1.5,1.6-3.6,2.6-6,2.6c-2.4,0-4.5-1-6-2.6c-0.8,0.2-1.5,0.7-1.8,1.5l-6.8,16.6l-6.8-16.6c-0.3-0.8-1-1.3-1.8-1.5
			c-1.5,1.6-3.6,2.6-6,2.6c-2.4,0-4.5-1-6-2.6c-0.8,0.2-1.5,0.7-1.8,1.5l-8.9,22.1c-0.5,1.3,0.1,2.7,1.3,3.2
			c0.3,0.1,0.6,0.2,0.9,0.2c1,0,1.9-0.6,2.3-1.5l4.6-11.2v3.1l-4.6,14.3c-0.8,2.4,1,4.9,3.5,4.9h1v11.3c0,1.8,1.5,3.3,3.3,3.2
			c1.7-0.1,3.1-1.5,3.1-3.3v-11.3h2.6v11.3c0,1.8,1.5,3.3,3.3,3.2c1.7-0.1,3.1-1.6,3.1-3.3v-11.2h1c2.5,0,4.3-2.5,3.5-4.9l-4.6-14.3
			v-3l3.7,9c0.5,1.3,1.8,2.1,3.2,2.1l0,0c1.4,0,2.7-0.8,3.2-2.1l3.7-8.9v33.5c0,1.8,1.5,3.3,3.3,3.2c1.7-0.1,3.1-1.5,3.1-3.3v-17.4
			c0-0.7,0.5-1.3,1.2-1.3c0.7,0,1.4,0.5,1.4,1.3v17.5c0,1.8,1.5,3.3,3.3,3.2c1.7-0.1,3.1-1.6,3.1-3.3v-33.5l1.1,2.7
			c0.2,0.4,0.4,0.7,0.7,1l5.8,4.7c-0.7,0.8-1.2,1.8-1.2,2.9v24.2c0,0.6,0.5,1.2,1.1,1.2s1.2-0.5,1.2-1.1v-24.3c0-1,0.7-1.9,1.7-2
			c1.1-0.1,2.1,0.8,2.1,1.9v2.9c0,0.6,0.5,1.2,1.1,1.2c0.6,0,1.2-0.5,1.2-1.1v-2.9C-202.2,400.6-203.4,399-205.1,398.5z"/>
	</g>
</g>
</svg>
