<?xml version="1.0" encoding="utf-8"?>
<!-- Generator: Adobe Illustrator 19.2.1, SVG Export Plug-In . SVG Version: 6.00 Build 0)  -->
<svg version="1.1" id="Layer_1" xmlns="http://www.w3.org/2000/svg" xmlns:xlink="http://www.w3.org/1999/xlink" x="0px" y="0px"
	 viewBox="0 0 60.7 60.8" style="enable-background:new 0 0 60.7 60.8;" xml:space="preserve">
<style type="text/css">
	.st0{fill:#b1b1b1;}
</style>
<g id="_x30_11---Travel-Insurance_1_" transform="translate(0.000000, -1.000000)">
	<path id="Shape_32_" class="st0" d="M22.3,56.7h-1c-0.6,0-1-0.5-1-1s0.5-1,1-1h1c0.6,0,1,0.5,1,1S22.8,56.7,22.3,56.7z"/>
	<path id="Shape_31_" class="st0" d="M39.5,56.7h-1c-0.6,0-1-0.5-1-1s0.5-1,1-1h1c0.6,0,1,0.5,1,1S40,56.7,39.5,56.7z"/>
	<g id="XMLID_459_">
		<path id="Shape_30_" class="st0" d="M24.3,51.6h-9.8c-0.3,0-0.5-0.1-0.7-0.3L6.5,44c-0.9-0.9-1.7-2-2.2-3.2l-4-8.7
			c-0.5-1.1-0.3-2.3,0.3-3.2s1.8-1.4,3-1.3c1.1,0.1,2.1,0.9,2.6,1.9l2.2,5.1c1.7-1.1,4-1,5.5,0.3c1.7,1.6,3.7,2.8,5.8,3.7
			c1.3,0.5,2.5,1.3,3.4,2.5c1.5,1.9,2.2,4.2,2.2,6.6v2.9C25.3,51.2,24.9,51.6,24.3,51.6z M14.9,49.6h8.4v-1.9c0-1.9-0.6-3.8-1.8-5.4
			c-0.6-0.8-1.5-1.5-2.4-1.8c-2.4-1-4.6-2.4-6.5-4.1c-0.9-0.8-2.3-0.8-3.3-0.1c0.4,0.5,0.8,1.1,1.2,1.5l4.6,4.6
			c0.3,0.3,0.4,0.6,0.3,1c-0.1,0.4-0.4,0.6-0.7,0.7s-0.7,0-1-0.3l-4.6-4.6c-1.1-1.1-2-2.4-2.6-3.8l-2.3-5.3
			c-0.2-0.4-0.6-0.7-1.1-0.7c-0.4,0-0.8,0.2-1,0.6C2,30.5,2,30.9,2.1,31.3l4,8.7c0.4,1,1,1.8,1.8,2.6L14.9,49.6z"/>
		<path id="Shape_29_" class="st0" d="M25.3,61.8H14.2c-1.1,0-2-0.9-2-2v-8.1c0-1.1,0.9-2,2-2h11.1c1.1,0,2,0.9,2,2v8.1
			C27.3,60.9,26.4,61.8,25.3,61.8z M14.2,51.6v8.1h11.1v-8.1H14.2z"/>
		<path id="Shape_28_" class="st0" d="M46.2,51.6h-9.8c-0.6,0-1-0.5-1-1v-2.9c0-2.4,0.8-4.7,2.2-6.6c0.9-1.1,2-2,3.4-2.5
			c2.1-0.9,4.1-2.2,5.8-3.7c1.6-1.3,3.8-1.4,5.5-0.3l2.2-5.1c0.5-1.1,1.5-1.8,2.6-2c1.2-0.1,2.3,0.4,3,1.3c0.7,0.9,0.8,2.2,0.3,3.2
			l-4,8.7c-0.5,1.2-1.3,2.3-2.2,3.2L47,51.3C46.8,51.5,46.5,51.6,46.2,51.6z M37.5,49.6h8.4l7-7c0.7-0.7,1.4-1.6,1.8-2.6l4-8.7
			c0.2-0.4,0.1-0.8-0.1-1.1s-0.6-0.6-1-0.6c-0.5,0-0.9,0.3-1.1,0.7l-2.3,5.3c-0.6,1.4-1.5,2.7-2.6,3.8L47,44c-0.4,0.4-1,0.4-1.4,0
			c-0.4-0.4-0.4-1,0-1.4l4.6-4.6c0.5-0.5,0.9-1,1.3-1.5c-1-0.7-2.3-0.7-3.3,0.1c-1.9,1.7-4.1,3.1-6.5,4.1c-1,0.4-1.8,1-2.4,1.8
			c-1.2,1.5-1.8,3.4-1.8,5.4V49.6z"/>
		<path id="Shape_27_" class="st0" d="M46.6,61.8H35.4c-1.1,0-2-0.9-2-2v-8.1c0-1.1,0.9-2,2-2h11.1c1.1,0,2,0.9,2,2v8.1
			C48.6,60.9,47.7,61.8,46.6,61.8z M35.4,51.6v8.1h11.1v-8.1H35.4z"/>
		<path id="Shape_26_" class="st0" d="M9.9,20c-0.3,0.4-0.3,1.1,0.2,1.4l3.2,2.5l1.2-1.6l-3.2-2.5C10.9,19.5,10.2,19.6,9.9,20z"/>
		<path id="Shape_25_" class="st0" d="M2,12.7l-1.2,1.6l2.9,2.2c0.3,0.2,0.7,0.3,1,0.1c0.3-0.1,0.6-0.4,0.6-0.8
			c0-0.4-0.1-0.7-0.4-0.9L2,12.7z"/>
		<path id="Shape_24_" class="st0" d="M6.9,18.9c0.2,0.2,0.5,0.2,0.7,0.2l0.2,0c0.1,0,0.1-0.1,0.2-0.1c0.1,0,0.1-0.1,0.2-0.1
			c0,0,0.1-0.1,0.1-0.1c0.2-0.2,0.2-0.5,0.2-0.7c0-0.1-0.1-0.3-0.1-0.4c-0.2-0.4-0.6-0.6-1-0.5c-0.1,0-0.3,0.1-0.4,0.1
			c-0.1,0.1-0.2,0.2-0.3,0.3c-0.2,0.2-0.2,0.5-0.2,0.7C6.5,18.5,6.7,18.8,6.9,18.9L6.9,18.9z"/>
		<path id="Shape_23_" class="st0" d="M28.2,24.3H14.5c-0.4,0-0.9-0.1-1.2-0.4c-0.4-0.3-0.5-1-0.2-1.4c0.3-0.4,1-0.5,1.4-0.2h13.7
			c0.6,0,1,0.5,1,1C29.2,23.9,28.8,24.3,28.2,24.3z"/>
		<path id="Shape_22_" class="st0" d="M51.6,24.3H41.2c-0.6,0-1-0.5-1-1c0-0.6,0.5-1,1-1h10.4c2.5,0,7.1-2.1,7.1-4
			c0-0.8-0.9-1.8-2.5-2.7c-1.4-0.8-3-1.2-4.6-1.4H15.4c-0.3,0-0.5-0.1-0.8-0.1L2,8.6v4c0.3,0.2,0.4,0.6,0.4,0.9
			c0,0.4-0.3,0.7-0.6,0.8c-0.3,0.1-0.7,0.1-1-0.1c-0.5-0.4-0.8-1-0.8-1.6v-4C0,8,0.3,7.3,0.9,6.9c0.6-0.4,1.3-0.4,1.9-0.2l12.6,5.4
			h36.2c2,0.1,3.9,0.6,5.6,1.6c2.3,1.3,3.5,2.8,3.5,4.5C60.7,21.8,54.8,24.3,51.6,24.3z"/>
		<path id="Shape_21_" class="st0" d="M29.9,37.5h-7c-0.7,0-1.4-0.4-1.7-1c-0.4-0.6-0.4-1.4,0-2l8.3-15.7c0.3-0.5,0.9-0.7,1.4-0.4
			c0.5,0.3,0.7,0.9,0.4,1.4l-8.3,15.7h7l3.9-4.7c0.4-0.4,1-0.5,1.4-0.1s0.5,1,0.1,1.4l-3.9,4.7C31.1,37.2,30.5,37.5,29.9,37.5z"/>
		<path id="Shape_20_" class="st0" d="M37.9,28.4c-0.4,0-0.7-0.2-0.9-0.6c-0.2-0.4-0.1-0.8,0.1-1.1l6.7-8.1c0.2-0.3,0.6-0.4,0.9-0.4
			c0.4,0.1,0.7,0.3,0.8,0.6c0.1,0.3,0.1,0.7-0.2,1L38.7,28C38.5,28.2,38.2,28.4,37.9,28.4z"/>
		<path id="Shape_19_" class="st0" d="M26.5,14.2c-0.4,0-0.7-0.2-0.9-0.5l-2.4-4.6c-0.3-0.6-0.3-1.4,0.1-2c0.4-0.6,1-1,1.7-1h7
			c0.6,0,1.2,0.3,1.6,0.7l4.7,5.7c0.2,0.3,0.3,0.7,0.2,1s-0.4,0.6-0.8,0.6c-0.4,0.1-0.7-0.1-0.9-0.4l-4.7-5.7h-7l2.4,4.6
			c0.2,0.3,0.2,0.7,0,1C27.2,14,26.9,14.2,26.5,14.2z"/>
		<path id="Shape_18_" class="st0" d="M40.5,32.4h-6c-0.6,0-1-0.5-1-1c0-0.6,0.5-1,1-1h6c0.3,0,0.5-0.1,0.7-0.3
			c0.2-0.2,0.3-0.4,0.3-0.7c0-0.6-0.5-1-1-1h-2.6c-0.6,0-1-0.5-1-1c0-0.6,0.5-1,1-1h2.6c1.7,0,3,1.4,3,3
			C43.5,31,42.2,32.4,40.5,32.4z"/>
		<path id="Shape_17_" class="st0" d="M54.7,10.1c-0.6,0-1-0.5-1-1c0-1.7-1.4-3-3-3c-1.7,0-3,1.4-3,3c0,0.6-0.5,1-1,1s-1-0.5-1-1
			c0-2.8,2.3-5.1,5.1-5.1c2.8,0,5.1,2.3,5.1,5.1c0,0.3-0.1,0.5-0.3,0.7C55.2,10,54.9,10.1,54.7,10.1z"/>
		<path id="Shape_16_" class="st0" d="M38.5,8.1c-0.6,0-1-0.5-1-1c0-3,2.2-5.6,5.2-6c3-0.4,5.9,1.5,6.7,4.4c0.1,0.3,0,0.7-0.3,1
			c-0.3,0.3-0.6,0.4-1,0.3c-0.4-0.1-0.6-0.4-0.7-0.7C46.9,4,45,2.8,43,3.1s-3.5,2-3.5,4c0,0.3-0.1,0.5-0.3,0.7
			C39,8,38.7,8.1,38.5,8.1z"/>
		<path id="Shape_15_" class="st0" d="M59.7,9.1c-0.6,0-1-0.5-1-1c0-0.9-0.7-1.8-1.6-2c-0.9-0.2-1.9,0.2-2.3,1.1
			c-0.2,0.5-0.8,0.7-1.3,0.5C53,7.5,52.8,6.9,53,6.4c0.8-1.7,2.7-2.7,4.5-2.2c1.9,0.4,3.2,2.1,3.2,3.9C60.7,8.7,60.3,9.1,59.7,9.1z"
			/>
		<path id="Shape_14_" class="st0" d="M7.5,6.1c-0.3,0-0.7-0.2-0.8-0.5c-0.2-0.3-0.2-0.6-0.1-1c0.9-2.1,3-3.5,5.3-3.6
			s4.5,1.1,5.6,3.1c0.2,0.3,0.2,0.7,0,1s-0.5,0.5-0.9,0.5c-0.4,0-0.7-0.2-0.9-0.5C14.9,3.8,13.5,3,12,3S9.1,4,8.4,5.5
			C8.3,5.8,7.9,6.1,7.5,6.1z"/>
		<path id="Shape_13_" class="st0" d="M16.2,7.1c-0.6,0-1-0.5-1-1c0-1.7,1-3.2,2.6-3.8c1.6-0.6,3.4-0.1,4.5,1.1
			c0.2,0.3,0.3,0.7,0.2,1c-0.1,0.3-0.4,0.6-0.8,0.7c-0.4,0.1-0.7-0.1-1-0.3c-0.6-0.6-1.4-0.9-2.2-0.6c-0.8,0.3-1.3,1.1-1.3,1.9
			C17.2,6.6,16.8,7.1,16.2,7.1z"/>
	</g>
	<g id="XMLID_456_">
		<g>
			<path id="Shape_74_" class="st0" d="M18.2,20.3c-0.6,0-1-0.5-1-1v-2c0-0.6,0.5-1,1-1c0.6,0,1,0.5,1,1v2
				C19.2,19.8,18.8,20.3,18.2,20.3z"/>
			<path id="Shape_73_" class="st0" d="M22.3,20.3c-0.6,0-1-0.5-1-1v-2c0-0.6,0.5-1,1-1c0.6,0,1,0.5,1,1v2
				C23.3,19.8,22.8,20.3,22.3,20.3z"/>
			<path id="Shape_72_" class="st0" d="M26.3,20.3c-0.6,0-1-0.5-1-1v-2c0-0.6,0.5-1,1-1c0.6,0,1,0.5,1,1v2
				C27.3,19.8,26.9,20.3,26.3,20.3z"/>
			<path id="Shape_71_" class="st0" d="M48.6,20.3c-0.6,0-1-0.5-1-1v-2c0-0.6,0.5-1,1-1s1,0.5,1,1v2C49.6,19.8,49.2,20.3,48.6,20.3z
				"/>
			<path id="Shape_70_" class="st0" d="M34.4,20.3c-0.6,0-1-0.5-1-1v-2c0-0.6,0.5-1,1-1s1,0.5,1,1v2C35.4,19.8,35,20.3,34.4,20.3z"
				/>
			<path id="Shape_69_" class="st0" d="M38.5,20.3c-0.6,0-1-0.5-1-1v-2c0-0.6,0.5-1,1-1c0.6,0,1,0.5,1,1v2
				C39.5,19.8,39,20.3,38.5,20.3z"/>
		</g>
	</g>
</g>
</svg>
