<?xml version="1.0" encoding="utf-8"?>
<!-- Generator: Adobe Illustrator 19.0.0, SVG Export Plug-In . SVG Version: 6.00 Build 0)  -->
<svg version="1.1" id="Layer_1" xmlns="http://www.w3.org/2000/svg" xmlns:xlink="http://www.w3.org/1999/xlink" x="0px" y="0px"
	 viewBox="-275 366.2 60.7 60.8" style="enable-background:new -275 366.2 60.7 60.8;" xml:space="preserve">
<style type="text/css">
	.st0{fill:#FFFFFF;}
</style>
<g id="_x30_11---Travel-Insurance_1_" transform="translate(0.000000, -1.000000)">
	<path id="Shape_32_" class="st0" d="M-252.7,422.9h-1c-0.6,0-1-0.5-1-1s0.5-1,1-1h1c0.6,0,1,0.5,1,1S-252.2,422.9-252.7,422.9z"/>
	<path id="Shape_31_" class="st0" d="M-235.5,422.9h-1c-0.6,0-1-0.5-1-1s0.5-1,1-1h1c0.6,0,1,0.5,1,1S-235,422.9-235.5,422.9z"/>
	<g id="XMLID_459_">
		<path id="Shape_30_" class="st0" d="M-250.7,417.8h-9.8c-0.3,0-0.5-0.1-0.7-0.3l-7.3-7.3c-0.9-0.9-1.7-2-2.2-3.2l-4-8.7
			c-0.5-1.1-0.3-2.3,0.3-3.2s1.8-1.4,3-1.3c1.1,0.1,2.1,0.9,2.6,1.9l2.2,5.1c1.7-1.1,4-1,5.5,0.3c1.7,1.6,3.7,2.8,5.8,3.7
			c1.3,0.5,2.5,1.3,3.4,2.5c1.5,1.9,2.2,4.2,2.2,6.6v2.9C-249.7,417.4-250.1,417.8-250.7,417.8z M-260.1,415.8h8.4v-1.9
			c0-1.9-0.6-3.8-1.8-5.4c-0.6-0.8-1.5-1.5-2.4-1.8c-2.4-1-4.6-2.4-6.5-4.1c-0.9-0.8-2.3-0.8-3.3-0.1c0.4,0.5,0.8,1.1,1.2,1.5
			l4.6,4.6c0.3,0.3,0.4,0.6,0.3,1s-0.4,0.6-0.7,0.7c-0.3,0.1-0.7,0-1-0.3l-4.6-4.6c-1.1-1.1-2-2.4-2.6-3.8l-2.3-5.3
			c-0.2-0.4-0.6-0.7-1.1-0.7c-0.4,0-0.8,0.2-1,0.6c-0.1,0.5-0.1,0.9,0,1.3l4,8.7c0.4,1,1,1.8,1.8,2.6L-260.1,415.8z"/>
		<path id="Shape_29_" class="st0" d="M-249.7,428h-11.1c-1.1,0-2-0.9-2-2v-8.1c0-1.1,0.9-2,2-2h11.1c1.1,0,2,0.9,2,2v8.1
			C-247.7,427.1-248.6,428-249.7,428z M-260.8,417.8v8.1h11.1v-8.1H-260.8z"/>
		<path id="Shape_28_" class="st0" d="M-228.8,417.8h-9.8c-0.6,0-1-0.5-1-1v-2.9c0-2.4,0.8-4.7,2.2-6.6c0.9-1.1,2-2,3.4-2.5
			c2.1-0.9,4.1-2.2,5.8-3.7c1.6-1.3,3.8-1.4,5.5-0.3l2.2-5.1c0.5-1.1,1.5-1.8,2.6-2c1.2-0.1,2.3,0.4,3,1.3c0.7,0.9,0.8,2.2,0.3,3.2
			l-4,8.7c-0.5,1.2-1.3,2.3-2.2,3.2l-7.2,7.4C-228.2,417.7-228.5,417.8-228.8,417.8z M-237.5,415.8h8.4l7-7c0.7-0.7,1.4-1.6,1.8-2.6
			l4-8.7c0.2-0.4,0.1-0.8-0.1-1.1c-0.2-0.3-0.6-0.6-1-0.6c-0.5,0-0.9,0.3-1.1,0.7l-2.3,5.3c-0.6,1.4-1.5,2.7-2.6,3.8l-4.6,4.6
			c-0.4,0.4-1,0.4-1.4,0c-0.4-0.4-0.4-1,0-1.4l4.6-4.6c0.5-0.5,0.9-1,1.3-1.5c-1-0.7-2.3-0.7-3.3,0.1c-1.9,1.7-4.1,3.1-6.5,4.1
			c-1,0.4-1.8,1-2.4,1.8c-1.2,1.5-1.8,3.4-1.8,5.4C-237.5,414.1-237.5,415.8-237.5,415.8z"/>
		<path id="Shape_27_" class="st0" d="M-228.4,428h-11.2c-1.1,0-2-0.9-2-2v-8.1c0-1.1,0.9-2,2-2h11.1c1.1,0,2,0.9,2,2v8.1
			C-226.4,427.1-227.3,428-228.4,428z M-239.6,417.8v8.1h11.1v-8.1H-239.6z"/>
		<path id="Shape_26_" class="st0" d="M-265.1,386.2c-0.3,0.4-0.3,1.1,0.2,1.4l3.2,2.5l1.2-1.6l-3.2-2.5
			C-264.1,385.7-264.8,385.8-265.1,386.2z"/>
		<path id="Shape_25_" class="st0" d="M-273,378.9l-1.2,1.6l2.9,2.2c0.3,0.2,0.7,0.3,1,0.1c0.3-0.1,0.6-0.4,0.6-0.8
			c0-0.4-0.1-0.7-0.4-0.9L-273,378.9z"/>
		<path id="Shape_24_" class="st0" d="M-268.1,385.1c0.2,0.2,0.5,0.2,0.7,0.2h0.2c0.1,0,0.1-0.1,0.2-0.1s0.1-0.1,0.2-0.1l0.1-0.1
			c0.2-0.2,0.2-0.5,0.2-0.7c0-0.1-0.1-0.3-0.1-0.4c-0.2-0.4-0.6-0.6-1-0.5c-0.1,0-0.3,0.1-0.4,0.1c-0.1,0.1-0.2,0.2-0.3,0.3
			c-0.2,0.2-0.2,0.5-0.2,0.7C-268.5,384.7-268.3,385-268.1,385.1L-268.1,385.1z"/>
		<path id="Shape_23_" class="st0" d="M-246.8,390.5h-13.7c-0.4,0-0.9-0.1-1.2-0.4c-0.4-0.3-0.5-1-0.2-1.4c0.3-0.4,1-0.5,1.4-0.2
			h13.7c0.6,0,1,0.5,1,1C-245.8,390.1-246.2,390.5-246.8,390.5z"/>
		<path id="Shape_22_" class="st0" d="M-223.4,390.5h-10.4c-0.6,0-1-0.5-1-1c0-0.6,0.5-1,1-1h10.4c2.5,0,7.1-2.1,7.1-4
			c0-0.8-0.9-1.8-2.5-2.7c-1.4-0.8-3-1.2-4.6-1.4h-36.2c-0.3,0-0.5-0.1-0.8-0.1l-12.6-5.5v4c0.3,0.2,0.4,0.6,0.4,0.9
			c0,0.4-0.3,0.7-0.6,0.8c-0.3,0.1-0.7,0.1-1-0.1c-0.5-0.4-0.8-1-0.8-1.6v-4c0-0.6,0.3-1.3,0.9-1.7s1.3-0.4,1.9-0.2l12.6,5.4h36.2
			c2,0.1,3.9,0.6,5.6,1.6c2.3,1.3,3.5,2.8,3.5,4.5C-214.3,388-220.2,390.5-223.4,390.5z"/>
		<path id="Shape_21_" class="st0" d="M-245.1,403.7h-7c-0.7,0-1.4-0.4-1.7-1c-0.4-0.6-0.4-1.4,0-2l8.3-15.7
			c0.3-0.5,0.9-0.7,1.4-0.4c0.5,0.3,0.7,0.9,0.4,1.4l-8.3,15.7h7l3.9-4.7c0.4-0.4,1-0.5,1.4-0.1c0.4,0.4,0.5,1,0.1,1.4l-3.9,4.7
			C-243.9,403.4-244.5,403.7-245.1,403.7z"/>
		<path id="Shape_20_" class="st0" d="M-237.1,394.6c-0.4,0-0.7-0.2-0.9-0.6c-0.2-0.4-0.1-0.8,0.1-1.1l6.7-8.1
			c0.2-0.3,0.6-0.4,0.9-0.4c0.4,0.1,0.7,0.3,0.8,0.6c0.1,0.3,0.1,0.7-0.2,1l-6.6,8.2C-236.5,394.4-236.8,394.6-237.1,394.6z"/>
		<path id="Shape_19_" class="st0" d="M-248.5,380.4c-0.4,0-0.7-0.2-0.9-0.5l-2.4-4.6c-0.3-0.6-0.3-1.4,0.1-2c0.4-0.6,1-1,1.7-1h7
			c0.6,0,1.2,0.3,1.6,0.7l4.7,5.7c0.2,0.3,0.3,0.7,0.2,1s-0.4,0.6-0.8,0.6c-0.4,0.1-0.7-0.1-0.9-0.4l-4.7-5.7h-7l2.4,4.6
			c0.2,0.3,0.2,0.7,0,1C-247.8,380.2-248.1,380.4-248.5,380.4z"/>
		<path id="Shape_18_" class="st0" d="M-234.5,398.6h-6c-0.6,0-1-0.5-1-1c0-0.6,0.5-1,1-1h6c0.3,0,0.5-0.1,0.7-0.3
			c0.2-0.2,0.3-0.4,0.3-0.7c0-0.6-0.5-1-1-1h-2.6c-0.6,0-1-0.5-1-1c0-0.6,0.5-1,1-1h2.6c1.7,0,3,1.4,3,3S-232.8,398.6-234.5,398.6z"
			/>
		<path id="Shape_17_" class="st0" d="M-220.3,376.3c-0.6,0-1-0.5-1-1c0-1.7-1.4-3-3-3c-1.7,0-3,1.4-3,3c0,0.6-0.5,1-1,1s-1-0.5-1-1
			c0-2.8,2.3-5.1,5.1-5.1s5.1,2.3,5.1,5.1c0,0.3-0.1,0.5-0.3,0.7C-219.8,376.2-220.1,376.3-220.3,376.3z"/>
		<path id="Shape_16_" class="st0" d="M-236.5,374.3c-0.6,0-1-0.5-1-1c0-3,2.2-5.6,5.2-6s5.9,1.5,6.7,4.4c0.1,0.3,0,0.7-0.3,1
			c-0.3,0.3-0.6,0.4-1,0.3c-0.4-0.1-0.6-0.4-0.7-0.7c-0.5-2.1-2.4-3.3-4.4-3c-2,0.3-3.5,2-3.5,4c0,0.3-0.1,0.5-0.3,0.7
			C-236,374.2-236.3,374.3-236.5,374.3z"/>
		<path id="Shape_15_" class="st0" d="M-215.3,375.3c-0.6,0-1-0.5-1-1c0-0.9-0.7-1.8-1.6-2c-0.9-0.2-1.9,0.2-2.3,1.1
			c-0.2,0.5-0.8,0.7-1.3,0.5c-0.5-0.2-0.7-0.8-0.5-1.3c0.8-1.7,2.7-2.7,4.5-2.2c1.9,0.4,3.2,2.1,3.2,3.9
			C-214.3,374.9-214.7,375.3-215.3,375.3z"/>
		<path id="Shape_14_" class="st0" d="M-267.5,372.3c-0.3,0-0.7-0.2-0.8-0.5c-0.2-0.3-0.2-0.6-0.1-1c0.9-2.1,3-3.5,5.3-3.6
			c2.3-0.1,4.5,1.1,5.6,3.1c0.2,0.3,0.2,0.7,0,1c-0.2,0.3-0.5,0.5-0.9,0.5s-0.7-0.2-0.9-0.5c-0.8-1.3-2.2-2.1-3.7-2.1
			s-2.9,1-3.6,2.5C-266.7,372-267.1,372.3-267.5,372.3z"/>
		<path id="Shape_13_" class="st0" d="M-258.8,373.3c-0.6,0-1-0.5-1-1c0-1.7,1-3.2,2.6-3.8c1.6-0.6,3.4-0.1,4.5,1.1
			c0.2,0.3,0.3,0.7,0.2,1c-0.1,0.3-0.4,0.6-0.8,0.7c-0.4,0.1-0.7-0.1-1-0.3c-0.6-0.6-1.4-0.9-2.2-0.6c-0.8,0.3-1.3,1.1-1.3,1.9
			C-257.8,372.8-258.2,373.3-258.8,373.3z"/>
	</g>
	<g id="XMLID_456_">
		<g>
			<path id="Shape_74_" class="st0" d="M-256.8,386.5c-0.6,0-1-0.5-1-1v-2c0-0.6,0.5-1,1-1c0.6,0,1,0.5,1,1v2
				C-255.8,386-256.2,386.5-256.8,386.5z"/>
			<path id="Shape_73_" class="st0" d="M-252.7,386.5c-0.6,0-1-0.5-1-1v-2c0-0.6,0.5-1,1-1c0.6,0,1,0.5,1,1v2
				C-251.7,386-252.2,386.5-252.7,386.5z"/>
			<path id="Shape_72_" class="st0" d="M-248.7,386.5c-0.6,0-1-0.5-1-1v-2c0-0.6,0.5-1,1-1c0.6,0,1,0.5,1,1v2
				C-247.7,386-248.1,386.5-248.7,386.5z"/>
			<path id="Shape_71_" class="st0" d="M-226.4,386.5c-0.6,0-1-0.5-1-1v-2c0-0.6,0.5-1,1-1s1,0.5,1,1v2
				C-225.4,386-225.8,386.5-226.4,386.5z"/>
			<path id="Shape_70_" class="st0" d="M-240.6,386.5c-0.6,0-1-0.5-1-1v-2c0-0.6,0.5-1,1-1s1,0.5,1,1v2
				C-239.6,386-240,386.5-240.6,386.5z"/>
			<path id="Shape_69_" class="st0" d="M-236.5,386.5c-0.6,0-1-0.5-1-1v-2c0-0.6,0.5-1,1-1c0.6,0,1,0.5,1,1v2
				C-235.5,386-236,386.5-236.5,386.5z"/>
		</g>
	</g>
</g>
</svg>
